<svg id="Layer_1" data-name="Layer 1" xmlns="http://www.w3.org/2000/svg" viewBox="0 0 15.06 15.06"><defs><style>.cls-1{fill:none;stroke:#231f20;stroke-linecap:round;stroke-linejoin:round;}.cls-2{fill:#231f20;}</style></defs><title>black_check</title><path class="cls-1" d="M14.56,7.53a7,7,0,1,1-2.06-5,7,7,0,0,1,2.06,5Z"/><path class="cls-2" d="M13.26.3a1.13,1.13,0,0,0-1,.57l-5.07,8L4.45,6.13A1.14,1.14,0,0,0,2.89,6a1.14,1.14,0,0,0-.14,1.57l3.77,4.61A1.14,1.14,0,0,0,8.3,12L14.18,2A1.1,1.1,0,0,0,13.26.3Z"/></svg>