<?xml version="1.0" encoding="utf-8"?>
<!-- Generator: Adobe Illustrator 23.0.1, SVG Export Plug-In . SVG Version: 6.00 Build 0)  -->
<svg version="1.1" id="Layer_1" xmlns="http://www.w3.org/2000/svg" xmlns:xlink="http://www.w3.org/1999/xlink" x="0px" y="0px"
	 viewBox="0 0 24 24" style="enable-background:new 0 0 24 24;" xml:space="preserve">
<style type="text/css">
	.st0{fill:#FFFFFF;}
</style>
<path class="st0" d="M12,6c-0.7,0-1.5,0.2-2.1,0.6C9.3,7,8.8,7.6,8.5,8.3C8.3,9,8.2,9.8,8.3,10.5c0.1,0.7,0.5,1.4,1,1.9
	c0.5,0.5,1.2,0.9,1.9,1c0.7,0.1,1.5,0.1,2.2-0.2c0.7-0.3,1.3-0.8,1.7-1.4c0.4-0.6,0.6-1.3,0.6-2.1c0-1-0.4-1.9-1.1-2.7
	C13.9,6.4,13,6,12,6z"/>
<path class="st0" d="M12,1.5c-2.1,0-4.1,0.6-5.8,1.8C4.4,4.4,3.1,6.1,2.3,8c-0.8,1.9-1,4-0.6,6.1c0.4,2,1.4,3.9,2.9,5.4
	c1.5,1.5,3.3,2.5,5.4,2.9c2,0.4,4.1,0.2,6.1-0.6c1.9-0.8,3.6-2.1,4.7-3.9c1.2-1.7,1.8-3.8,1.8-5.8c0-2.8-1.1-5.5-3.1-7.4
	C17.5,2.6,14.8,1.5,12,1.5L12,1.5z M18,18.7c0-1-0.4-1.9-1.1-2.6c-0.7-0.7-1.6-1.1-2.6-1.1H9.8c-1,0-1.9,0.4-2.6,1.1
	C6.4,16.8,6,17.7,6,18.7c-1.4-1.2-2.3-2.8-2.8-4.6s-0.3-3.6,0.3-5.3c0.6-1.7,1.8-3.2,3.3-4.2C8.4,3.5,10.2,3,12,3
	c1.8,0,3.6,0.6,5.1,1.6c1.5,1,2.7,2.5,3.3,4.2s0.8,3.6,0.3,5.3C20.3,15.9,19.4,17.5,18,18.7L18,18.7z"/>
</svg>
