<svg width="18" height="18" viewBox="0 0 18 18" fill="none" xmlns="http://www.w3.org/2000/svg">
<path d="M10.2864 7.71342C9.60384 7.03112 8.67822 6.64783 7.71309 6.64783C6.74797 6.64783 5.82235 7.03112 5.13976 7.71342L2.56559 10.2868C1.88299 10.9694 1.49951 11.8952 1.49951 12.8605C1.49951 13.8259 1.88299 14.7517 2.56559 15.4343C3.24819 16.1169 4.174 16.5003 5.13934 16.5003C6.10469 16.5003 7.03049 16.1169 7.71309 15.4343L8.99976 14.1476" stroke="#0680D8" stroke-width="1.66667" stroke-linecap="round" stroke-linejoin="round"/>
<path d="M7.71338 10.2867C8.39597 10.969 9.32159 11.3523 10.2867 11.3523C11.2518 11.3523 12.1775 10.969 12.86 10.2867L15.4342 7.71334C16.1168 7.03074 16.5003 6.10493 16.5003 5.13959C16.5003 4.17424 16.1168 3.24844 15.4342 2.56584C14.7516 1.88324 13.8258 1.49976 12.8605 1.49976C11.8951 1.49976 10.9693 1.88324 10.2867 2.56584L9.00005 3.8525" stroke="#0680D8" stroke-width="1.66667" stroke-linecap="round" stroke-linejoin="round"/>
</svg>
