<svg width="16" height="16" viewBox="0 0 16 16" fill="none" xmlns="http://www.w3.org/2000/svg">
<path d="M7.90793 5.27215C6.45548 5.27215 5.27017 6.45746 5.27017 7.90991C5.27017 9.36236 6.45548 10.5477 7.90793 10.5477C9.36038 10.5477 10.5457 9.36236 10.5457 7.90991C10.5457 6.45746 9.36038 5.27215 7.90793 5.27215ZM15.8192 7.90991C15.8192 6.81761 15.8291 5.73519 15.7678 4.64487C15.7064 3.37843 15.4175 2.25446 14.4915 1.32837C13.5634 0.400309 12.4414 0.113381 11.175 0.0520377C10.0827 -0.00930552 9.00024 0.000588587 7.90991 0.000588587C6.81761 0.000588587 5.7352 -0.00930552 4.64487 0.0520377C3.37843 0.113381 2.25446 0.402288 1.32837 1.32837C0.400309 2.25644 0.113381 3.37843 0.0520377 4.64487C-0.00930552 5.73717 0.000588587 6.81958 0.000588587 7.90991C0.000588587 9.00024 -0.00930552 10.0846 0.0520377 11.175C0.113381 12.4414 0.402288 13.5654 1.32837 14.4915C2.25644 15.4195 3.37843 15.7064 4.64487 15.7678C5.73717 15.8291 6.81958 15.8192 7.90991 15.8192C9.00222 15.8192 10.0846 15.8291 11.175 15.7678C12.4414 15.7064 13.5654 15.4175 14.4915 14.4915C15.4195 13.5634 15.7064 12.4414 15.7678 11.175C15.8311 10.0846 15.8192 9.00222 15.8192 7.90991ZM7.90793 11.9685C5.66198 11.9685 3.84938 10.1559 3.84938 7.90991C3.84938 5.66396 5.66198 3.85136 7.90793 3.85136C10.1539 3.85136 11.9665 5.66396 11.9665 7.90991C11.9665 10.1559 10.1539 11.9685 7.90793 11.9685ZM12.1327 4.63299C11.6083 4.63299 11.1849 4.20953 11.1849 3.68514C11.1849 3.16076 11.6083 2.73729 12.1327 2.73729C12.6571 2.73729 13.0806 3.16076 13.0806 3.68514C13.0807 3.80966 13.0563 3.93298 13.0087 4.04805C12.9611 4.16312 12.8913 4.26768 12.8033 4.35572C12.7152 4.44377 12.6107 4.51358 12.4956 4.56116C12.3805 4.60874 12.2572 4.63315 12.1327 4.63299Z" fill="#ADD7F5"/>
</svg>
