<svg width="20" height="20" viewBox="0 0 20 20" fill="none" xmlns="http://www.w3.org/2000/svg">
<path fill-rule="evenodd" clip-rule="evenodd" d="M0.833496 2.36504C0.833496 1.95882 0.994868 1.56923 1.28211 1.28199C1.56935 0.994748 1.95894 0.833376 2.36516 0.833376H17.6335C17.8348 0.833047 18.0342 0.872428 18.2203 0.949265C18.4064 1.0261 18.5754 1.13888 18.7179 1.28116C18.8603 1.42343 18.9733 1.5924 19.0503 1.77838C19.1273 1.96437 19.1669 2.16373 19.1668 2.36504V17.6334C19.167 17.8347 19.1276 18.0341 19.0506 18.2202C18.9737 18.4063 18.8608 18.5754 18.7185 18.7178C18.5762 18.8602 18.4072 18.9732 18.2211 19.0502C18.0351 19.1272 17.8357 19.1668 17.6343 19.1667H2.36516C2.16395 19.1667 1.96471 19.1271 1.77883 19.05C1.59294 18.973 1.42406 18.8601 1.28182 18.7178C1.13958 18.5755 1.02677 18.4065 0.949848 18.2206C0.872924 18.0347 0.833387 17.8354 0.833496 17.6342V2.36504ZM8.09016 7.82338H10.5727V9.07004C10.931 8.35338 11.8477 7.70838 13.2252 7.70838C15.866 7.70838 16.4918 9.13588 16.4918 11.755V16.6067H13.8193V12.3517C13.8193 10.86 13.461 10.0184 12.551 10.0184C11.2885 10.0184 10.7635 10.9259 10.7635 12.3517V16.6067H8.09016V7.82338ZM3.50683 16.4925H6.18016V7.70838H3.50683V16.4917V16.4925ZM6.56266 4.84338C6.5677 5.07227 6.52697 5.29987 6.44286 5.5128C6.35875 5.72574 6.23296 5.91974 6.07286 6.0834C5.91276 6.24707 5.72158 6.3771 5.51054 6.46588C5.29951 6.55466 5.07286 6.60039 4.84391 6.60039C4.61496 6.60039 4.38832 6.55466 4.17728 6.46588C3.96625 6.3771 3.77507 6.24707 3.61497 6.0834C3.45487 5.91974 3.32907 5.72574 3.24496 5.5128C3.16085 5.29987 3.12012 5.07227 3.12516 4.84338C3.13506 4.39409 3.32048 3.96654 3.64173 3.65228C3.96298 3.33803 4.39452 3.16206 4.84391 3.16206C5.29331 3.16206 5.72484 3.33803 6.04609 3.65228C6.36734 3.96654 6.55277 4.39409 6.56266 4.84338Z" fill="#0680D8"/>
</svg>
