<svg width="24" height="24" viewBox="0 0 24 24" fill="none" xmlns="http://www.w3.org/2000/svg">
<path d="M13.5443 10.456C12.7252 9.63723 11.6144 9.17728 10.4563 9.17728C9.29815 9.17728 8.18741 9.63723 7.3683 10.456L4.2793 13.544C3.46018 14.3631 3 15.4741 3 16.6325C3 17.7909 3.46018 18.9019 4.2793 19.721C5.09842 20.5401 6.20939 21.0003 7.3678 21.0003C8.52621 21.0003 9.63718 20.5401 10.4563 19.721L12.0003 18.177" stroke="white" stroke-width="2" stroke-linecap="round" stroke-linejoin="round"/>
<path d="M10.4561 13.544C11.2752 14.3628 12.3859 14.8227 13.5441 14.8227C14.7022 14.8227 15.8129 14.3628 16.6321 13.544L19.7211 10.456C20.5402 9.63688 21.0004 8.52591 21.0004 7.3675C21.0004 6.20909 20.5402 5.09812 19.7211 4.279C18.9019 3.45988 17.791 2.9997 16.6326 2.9997C15.4741 2.9997 14.3632 3.45988 13.5441 4.279L12.0001 5.823" stroke="white" stroke-width="2" stroke-linecap="round" stroke-linejoin="round"/>
</svg>
