<svg width="16" height="16" viewBox="0 0 16 16" fill="none" xmlns="http://www.w3.org/2000/svg">
<path fill-rule="evenodd" clip-rule="evenodd" d="M0.666748 1.89233C0.666748 1.56735 0.795845 1.25568 1.02564 1.02589C1.25543 0.796091 1.5671 0.666994 1.89208 0.666994H14.1067C14.2678 0.666731 14.4273 0.698236 14.5762 0.759705C14.725 0.821174 14.8603 0.9114 14.9742 1.02522C15.0882 1.13904 15.1786 1.27421 15.2402 1.423C15.3018 1.57179 15.3335 1.73128 15.3334 1.89233V14.107C15.3336 14.2681 15.302 14.4276 15.2405 14.5765C15.1789 14.7253 15.0886 14.8606 14.9748 14.9745C14.8609 15.0885 14.7257 15.1788 14.5768 15.2405C14.428 15.3021 14.2685 15.3337 14.1074 15.3337H1.89208C1.73111 15.3337 1.57172 15.3019 1.42301 15.2403C1.2743 15.1787 1.1392 15.0884 1.0254 14.9745C0.911613 14.8607 0.821369 14.7255 0.75983 14.5768C0.69829 14.428 0.666661 14.2686 0.666748 14.1077V1.89233ZM6.47208 6.25899H8.45808V7.25633C8.74475 6.68299 9.47808 6.16699 10.5801 6.16699C12.6927 6.16699 13.1934 7.30899 13.1934 9.40433V13.2857H11.0554V9.88166C11.0554 8.68833 10.7687 8.01499 10.0407 8.01499C9.03075 8.01499 8.61075 8.74099 8.61075 9.88166V13.2857H6.47208V6.25899ZM2.80542 13.1943H4.94408V6.16699H2.80542V13.1937V13.1943ZM5.25008 3.87499C5.25411 4.05811 5.22153 4.24019 5.15424 4.41054C5.08695 4.58089 4.98632 4.73608 4.85824 4.86702C4.73016 4.99795 4.57721 5.10198 4.40839 5.173C4.23956 5.24402 4.05824 5.28061 3.87508 5.28061C3.69192 5.28061 3.51061 5.24402 3.34178 5.173C3.17295 5.10198 3.02001 4.99795 2.89193 4.86702C2.76385 4.73608 2.66321 4.58089 2.59592 4.41054C2.52863 4.24019 2.49605 4.05811 2.50008 3.87499C2.508 3.51556 2.65634 3.17352 2.91334 2.92212C3.17034 2.67071 3.51556 2.52994 3.87508 2.52994C4.2346 2.52994 4.57982 2.67071 4.83682 2.92212C5.09383 3.17352 5.24217 3.51556 5.25008 3.87499Z" fill="#ABABAB"/>
</svg>
