<svg width="101" height="104" viewBox="0 0 101 104" fill="none" xmlns="http://www.w3.org/2000/svg">
<path fill-rule="evenodd" clip-rule="evenodd" d="M29.5368 80.5697V78.5503H29.5322C29.5322 78.5503 29.5975 77.958 29.1031 77.8041C28.1403 77.5481 27.3083 76.9409 26.7713 76.1019C26.244 75.3133 25.941 74.3959 25.8945 73.4482V63.454C25.8488 63.2152 25.7373 62.9942 25.5727 62.8151C25.3867 62.6803 25.1634 62.6071 24.9338 62.6052H23.2269C22.9815 62.6906 22.7617 62.8365 22.588 63.0296C22.4622 63.2203 22.3882 63.4405 22.3734 63.6685V73.7654C22.3734 73.7654 22.588 76.391 23.7725 78.1213C24.6619 79.2872 25.838 80.2031 27.1863 80.7796C27.1863 80.7796 28.2543 81.3718 28.8979 81.3112C29.4156 81.2646 29.5368 80.5697 29.5368 80.5697ZM31.351 80.5697V78.5503H31.379C31.379 78.5503 31.309 77.958 31.8034 77.8041C32.7668 77.5495 33.5992 76.9418 34.1352 76.1019C34.6542 75.3105 34.9491 74.3936 34.9887 73.4482V63.454C35.0344 63.2152 35.1458 62.9942 35.3105 62.8151C35.4965 62.6803 35.7198 62.6071 35.9494 62.6052H37.6563C37.9027 62.691 38.1239 62.837 38.2999 63.0296C38.4252 63.2203 38.4977 63.4409 38.5097 63.6685V73.7654C38.5097 73.7654 38.2952 76.391 37.1106 78.1213C36.2224 79.2881 35.0459 80.2045 33.6968 80.7796C33.6968 80.7796 32.6288 81.3718 31.9899 81.3112C31.4676 81.2646 31.351 80.5697 31.351 80.5697ZM47.4827 86.6278C47.3241 86.7677 47.2136 86.9538 47.1655 87.1595L41.0608 95.9925V102.89C41.0509 102.989 41.0649 103.089 41.1014 103.181C41.1379 103.274 41.1959 103.356 41.2706 103.422C41.5046 103.563 41.7574 103.669 42.0215 103.739H43.5139C43.7062 103.716 43.8893 103.643 44.0455 103.529C44.176 103.367 44.2843 103.188 44.3673 102.997V97.1257L49.4974 89.7105L50.8965 87.2667C50.8825 87.0723 50.8093 86.8866 50.6866 86.7351C50.5332 86.6119 50.3466 86.5369 50.1503 86.5205H48.019C47.8334 86.4921 47.6431 86.5299 47.4827 86.6278ZM15.793 80.9941H16.6464L16.6324 80.9801C17.0627 81.0388 17.5004 81.002 17.9149 80.8728C18.072 80.766 18.2019 80.6238 18.2942 80.4578C18.3865 80.2917 18.4387 80.1066 18.4466 79.9168L18.3393 63.7618C18.3735 63.5878 18.3623 63.4083 18.3068 63.2399C18.2512 63.0716 18.1532 62.9205 18.0222 62.8011C17.5806 62.6155 17.0997 62.5436 16.6231 62.5912C16.1231 62.5628 15.6215 62.5987 15.1307 62.6985C14.9772 62.733 14.8321 62.7978 14.7039 62.8888C14.5758 62.9802 14.4672 63.0963 14.3845 63.2301L10.038 69.1857C10.038 69.1857 9.78616 69.7733 9.39908 69.7173C9.01199 69.6613 8.54562 68.9711 8.54562 68.9711L4.06382 63.0203C3.95392 62.9074 3.82035 62.8207 3.67276 62.7656C3.52517 62.7111 3.36724 62.6896 3.21038 62.7031C3.0687 62.7031 2.86879 62.6998 2.64937 62.6961C2.13928 62.6874 1.52372 62.6771 1.28893 62.7031C-0.0915171 62.8337 0.435484 63.7665 0.435484 63.7665L8.54562 74.4929C8.54562 74.4929 8.90939 75.0013 9.29181 75.0246C9.61822 74.991 9.92145 74.8404 10.1453 74.6002L13.8762 69.7126C13.8762 69.7126 14.3845 69.0364 14.6224 69.0737C14.8602 69.111 14.8369 70.137 14.8369 70.137V79.9308C14.8236 80.2278 14.8965 80.5226 15.0468 80.7796C15.1485 80.8668 15.2678 80.9311 15.3965 80.968C15.5253 81.0053 15.6605 81.0141 15.793 80.9941ZM42.8889 74.866C42.7251 75.0087 42.6108 75.1999 42.5625 75.4117V80.108C42.5625 80.108 42.5252 80.5837 42.7817 80.7609C43.0559 80.8864 43.3616 80.9251 43.6585 80.8728H45.1975C45.387 80.9078 45.5827 80.8677 45.7431 80.7609C45.9017 80.607 45.855 80.2199 45.855 80.2199V75.5189C45.8399 75.3189 45.7634 75.1281 45.6358 74.9733C45.4771 74.8492 45.2862 74.7732 45.0855 74.7541H43.5465C43.321 74.7238 43.0917 74.7629 42.8889 74.866ZM55.2617 81.0874H56.9686L56.9593 81.1013C57.3958 81.1461 57.8365 81.0948 58.2511 80.9521C58.405 80.8472 58.5328 80.7091 58.6247 80.5473C58.717 80.3855 58.7711 80.205 58.7828 80.0194V63.6685C58.7865 63.4876 58.7506 63.3085 58.6774 63.1434C58.6037 62.9778 58.495 62.8309 58.3584 62.7125C57.9181 62.5222 57.4364 62.4485 56.9593 62.4979C56.5997 62.4723 56.2387 62.5087 55.8913 62.6052C55.7374 62.6388 55.5919 62.7031 55.4636 62.7945C55.3354 62.886 55.2267 63.0021 55.1451 63.1369V71.3263C55.1451 71.3263 55.299 74.5489 55.0378 74.6188C54.7767 74.6888 53.0091 72.0678 53.0091 72.0678L46.2888 62.927C46.1788 62.8141 46.0453 62.7274 45.8977 62.6724C45.7501 62.6178 45.5921 62.5963 45.4353 62.6099C45.2936 62.6099 45.0937 62.6069 44.8743 62.6037C44.3642 62.5961 43.7487 62.587 43.5139 62.6099C42.1334 62.7405 42.6604 63.6732 42.6604 63.6732L49.3808 73.0239L55.2617 81.0874ZM91.8576 63.2301V65.1236C91.8576 65.1236 91.8296 65.6459 92.1094 65.7905C92.4316 65.9463 92.7791 66.0442 93.1354 66.0796C93.1354 66.0796 96.9549 67.2502 96.7637 71.9279C96.5725 76.6056 93.1354 77.3471 93.1354 77.3471C92.7432 77.4432 92.3738 77.6157 92.0488 77.8554C91.8986 78.1203 91.8319 78.4244 91.8576 78.7275V80.1266C91.8576 80.1266 91.8389 80.649 92.1467 80.8542C92.4578 80.989 92.8005 81.0328 93.1354 80.9801C93.1354 80.9801 100.229 79.8468 100.392 72.2637C100.565 64.0976 93.6717 62.6985 93.6717 62.6985C93.2072 62.5562 92.718 62.5115 92.2353 62.5679C91.8156 62.6891 91.8576 63.2301 91.8576 63.2301ZM90.1507 63.2301V65.1236C90.1507 65.1236 90.1786 65.6459 89.8941 65.7905C89.5719 65.9467 89.2244 66.0447 88.8681 66.0796C88.8681 66.0796 85.0439 67.2502 85.2398 71.9279C85.4357 76.6056 88.8681 77.3471 88.8681 77.3471C89.2604 77.4432 89.6297 77.6157 89.9548 77.8554C90.1054 78.1203 90.1735 78.4239 90.1507 78.7275V80.1266C90.1507 80.1266 90.1693 80.649 89.8568 80.8542C89.5458 80.989 89.203 81.0328 88.8681 80.9801C88.8681 80.9801 81.7747 79.8468 81.6161 72.2637C81.4389 64.0976 88.3365 62.6985 88.3365 62.6985C88.801 62.5562 89.2902 62.5115 89.7729 62.5679C90.188 62.6891 90.1507 63.2301 90.1507 63.2301ZM62.9428 63.3141V65.2309L62.9288 65.2122C62.9288 65.2122 62.8355 65.7112 63.1806 65.8791C63.4007 65.9862 65.0946 65.9681 66.957 65.9481C68.015 65.9368 69.1273 65.9249 70.0549 65.9351C70.7787 65.9449 71.5001 66.0228 72.2095 66.1683C72.2095 66.1683 76.1037 67.3482 75.8378 72.0118C75.8061 73.1526 75.447 74.2602 74.8039 75.2027C74.1608 76.1453 73.2602 76.883 72.2095 77.3284C72.2095 77.3284 64.0201 77.459 63.3485 77.515C62.9428 77.5476 62.9428 78.8161 62.9428 78.8161V80.2152C62.9885 80.496 63.1284 80.7525 63.3392 80.9428C63.6703 81.162 72.2235 81.0687 72.2235 81.0687C72.2235 81.0687 79.3169 79.9354 79.4801 72.3523C79.6527 64.1955 72.8624 62.6798 72.8624 62.6798C72.8624 62.6798 70.1015 62.5492 68.334 62.5492H63.6376C63.2039 62.5492 62.9428 63.3141 62.9428 63.3141ZM92.5291 87.1641V88.913L92.5385 88.9363C92.5385 88.9363 92.5151 89.4167 92.7716 89.5473C93.0645 89.6904 93.3802 89.7804 93.7044 89.8131C93.7044 89.8131 97.1975 90.8578 97.0202 95.139C96.843 99.4203 93.7044 100.097 93.7044 100.097C93.3448 100.183 93.0071 100.342 92.711 100.563C92.5725 100.804 92.5091 101.082 92.5291 101.36V102.624C92.5291 102.624 92.5151 103.1 92.7996 103.286C93.0841 103.41 93.398 103.451 93.7044 103.403C93.7044 103.403 100.192 102.368 100.341 95.4282C100.499 87.9709 94.1894 86.6791 94.1894 86.6791C93.7636 86.5509 93.3159 86.5112 92.8742 86.5625C92.4965 86.6744 92.5291 87.1641 92.5291 87.1641ZM7.5336 87.402V89.1509L7.52428 89.1415C7.52428 89.1415 7.5476 89.6219 7.29109 89.7525C6.91548 89.9278 6.53096 90.0836 6.13916 90.2188C6.13916 90.2188 3.37826 91.0676 3.56481 95.3489C3.75135 99.6301 6.36302 100.204 6.36302 100.204C6.72166 100.292 7.05931 100.45 7.35638 100.67C7.49438 100.914 7.55613 101.193 7.5336 101.472V102.755C7.5336 102.755 7.5476 103.23 7.26311 103.417C6.98026 103.541 6.66803 103.581 6.36302 103.534C6.36302 103.534 0.510106 102.498 0.365532 95.5587C0.206967 88.1015 5.87334 86.917 5.87334 86.917C6.2989 86.7873 6.74642 86.7463 7.18849 86.7957C7.56625 86.9076 7.5336 87.402 7.5336 87.402ZM90.9621 87.2854V89.0343L90.9528 89.0203C90.9528 89.0203 90.9761 89.5006 90.7196 89.6312C90.4258 89.7721 90.1105 89.8616 89.7869 89.897C89.7869 89.897 86.2938 90.9697 86.471 95.2463C86.6482 99.5229 89.7869 100.204 89.7869 100.204C90.1455 100.292 90.4832 100.45 90.7802 100.67C90.9197 100.913 90.9831 101.193 90.9621 101.472V102.745C90.9621 102.745 90.9761 103.221 90.6916 103.408C90.4072 103.531 90.0933 103.572 89.7869 103.524C89.7869 103.524 83.2997 102.489 83.1505 95.5494C82.9919 88.0922 89.3018 86.8004 89.3018 86.8004C89.7262 86.6726 90.1716 86.6311 90.6123 86.6791C90.9948 86.791 90.9621 87.2854 90.9621 87.2854ZM9.21253 87.2714V89.0203H9.23118C9.23118 89.0203 9.20786 89.5006 9.46437 89.6312C9.7731 89.7697 10.1106 89.8322 10.4484 89.8131C10.9734 90.0369 11.4635 90.3354 11.9035 90.6992C12.2964 91.0555 12.6274 91.4748 12.8828 91.9397C13.0197 92.2238 13.2308 92.4653 13.4938 92.6393C13.9129 92.7983 14.3561 92.8851 14.8043 92.8958C15.2315 92.9508 15.6653 92.8757 16.0495 92.6813C16.3993 92.4108 16.2967 91.6226 16.2967 91.6226C15.9114 90.5742 15.2907 89.628 14.4825 88.857C13.4932 87.8474 12.2439 87.1306 10.8728 86.7864C10.447 86.6581 9.99971 86.6171 9.55764 86.6651C9.17988 86.777 9.21253 87.2714 9.21253 87.2714ZM9.02132 103.007V101.253L9.01199 101.272C9.01199 101.272 8.98401 100.796 9.24051 100.661C9.5492 100.522 9.88671 100.46 10.2245 100.479C10.7554 100.257 11.2517 99.9603 11.6983 99.5975C12.0908 99.2389 12.4217 98.8182 12.6776 98.3523C12.8161 98.0692 13.0289 97.829 13.2932 97.6574C13.7108 97.4979 14.1522 97.4093 14.5991 97.3962C15.0268 97.3412 15.461 97.4177 15.8443 97.6154C16.1941 97.8859 16.0915 98.6741 16.0915 98.6741C15.7068 99.7136 15.0894 100.652 14.2866 101.416C13.2986 102.429 12.049 103.147 10.6769 103.492C10.2527 103.62 9.80663 103.66 9.36643 103.608C8.98401 103.473 9.02132 103.007 9.02132 103.007ZM0.631365 74.936C0.470502 75.0745 0.357822 75.261 0.30957 75.4676L0.318893 80.2479C0.318893 80.2479 0.281579 80.7096 0.533418 80.8868C0.800905 81.0067 1.09806 81.044 1.38688 80.9941H3.09379C3.09379 80.9941 3.47154 81.0407 3.62544 80.8868C3.77934 80.7329 3.73271 80.3552 3.73271 80.3552V75.5702C3.71774 75.3757 3.6446 75.1906 3.52284 75.0386C3.3683 74.9178 3.1819 74.845 2.98651 74.8287H1.27029C1.05132 74.7956 0.827488 74.8329 0.631365 74.936ZM71.4167 86.8004C71.2749 86.6385 71.0855 86.5261 70.8757 86.4786L68.3619 86.4879C68.3619 86.4879 67.8909 86.4459 67.709 86.7024C67.5892 86.9715 67.5519 87.27 67.6018 87.5605V88.9596C67.5812 89.0632 67.5864 89.17 67.6172 89.2707C67.6479 89.3719 67.703 89.4633 67.7781 89.5379C67.8527 89.6121 67.945 89.6671 68.0457 89.697C68.1469 89.7273 68.2537 89.7319 68.3573 89.7105H70.7684C70.9666 89.696 71.1555 89.621 71.3094 89.496C71.4334 89.3407 71.5099 89.1527 71.5286 88.955V87.4439C71.5589 87.2229 71.5202 86.9981 71.4167 86.8004ZM73.3987 86.6278C73.2378 86.7663 73.125 86.9529 73.0769 87.1595V102.676C73.0769 102.676 73.0396 103.244 73.2915 103.422C73.5209 103.54 73.7839 103.578 74.0376 103.529H75.7446C75.9306 103.562 76.1218 103.523 76.2809 103.422C76.4301 103.249 76.3835 102.783 76.3835 102.783V90.3448C76.3788 90.3074 76.4021 89.8691 76.4907 89.8131C76.7995 89.7082 77.1278 89.6732 77.4515 89.7105H80.5481C80.9077 89.7651 81.2747 89.7282 81.6161 89.6032C81.8959 89.4307 81.826 88.9643 81.826 88.9643L81.9332 87.2667C81.9193 87.0713 81.8442 86.8852 81.7187 86.7351C81.5671 86.6115 81.382 86.5364 81.1871 86.5205H73.9304C73.7462 86.4921 73.5578 86.5303 73.3987 86.6278ZM53.233 95.0224C53.0721 95.1609 52.9592 95.3475 52.9112 95.5541L52.8972 102.666C52.8991 102.897 52.9741 103.12 53.1117 103.305C53.3696 103.458 53.6658 103.532 53.9652 103.52H55.3643C55.3643 103.52 55.854 103.487 56.0079 103.305C56.2737 102.993 56.2177 102.773 56.2177 102.773V98.6274C56.2131 98.5855 56.2364 98.1471 56.325 98.0958C56.6333 97.9899 56.9616 97.9536 57.2857 97.9885C57.2857 97.9885 59.6549 98.0631 62.0893 97.8859C62.9376 97.8101 63.6294 97.3292 64.2881 96.8713C64.4804 96.7376 64.6698 96.6059 64.8595 96.4868C66.3365 95.572 66.511 93.5137 66.5983 92.4831C66.6219 92.2055 66.6391 92.0025 66.6737 91.9164C66.9022 91.3708 66.24 88.6145 64.0107 87.346C62.08 86.25 58.7641 86.5812 58.7641 86.5812L54.1844 86.6045C53.7898 86.549 53.3873 86.5858 53.0091 86.7117C52.7246 86.8796 52.7946 87.346 52.7946 87.346V88.941C52.8086 89.1364 52.8837 89.3225 53.0091 89.4726C53.1616 89.5944 53.3463 89.6685 53.5408 89.6872H61.0027C61.0027 89.6872 63.4837 89.967 63.3905 92.2988C63.2832 95.0271 60.6576 94.9152 60.6576 94.9152H53.7646C53.5804 94.8867 53.392 94.925 53.233 95.0224ZM19.3094 94.4768C19.145 94.619 19.0306 94.8102 18.9829 95.0224V102.48C18.9849 102.709 19.0601 102.931 19.1975 103.114C19.455 103.267 19.7516 103.341 20.0509 103.328H21.45C21.45 103.328 21.9397 103.296 22.0889 103.114C22.162 103.047 22.2192 102.964 22.2563 102.872C22.2934 102.78 22.3095 102.681 22.3035 102.582V98.1191C22.2941 98.0771 22.3175 97.6387 22.4107 97.5874C22.7194 97.4825 23.0476 97.4475 23.3715 97.4848H26.4122L29.4529 102.368C29.4529 102.368 29.9706 103.398 30.852 103.324C30.9886 103.312 31.1964 103.313 31.4346 103.314C32.0499 103.317 32.8678 103.321 33.1838 103.109C33.6222 102.815 33.1838 102.051 33.1838 102.051C33.1838 102.051 29.7001 97.0091 30.0079 96.8226C30.2442 96.6793 30.471 96.5225 30.6942 96.3681C30.885 96.2362 31.0732 96.106 31.2624 95.9878C32.733 95.0746 32.9087 93.2185 32.9984 92.272C33.0227 92.0149 33.0407 91.8249 33.0766 91.7392C33.3004 91.1889 32.6382 88.4373 30.4089 87.1688C28.4782 86.0682 25.1623 86.3993 25.1623 86.3993H20.4753C20.0805 86.3438 19.6783 86.3806 19.3001 86.5065C19.0202 86.6791 19.0902 87.1455 19.0902 87.1455V88.7404C19.1544 88.9704 19.262 89.1854 19.4073 89.3747C19.5608 89.4978 19.7475 89.5729 19.9436 89.5892L27.5128 89.5659C27.5128 89.5659 29.9053 89.7152 29.7933 92.0703C29.6814 94.4255 27.0604 94.3695 27.0604 94.3695H19.8457C19.6599 94.3415 19.4701 94.3793 19.3094 94.4768ZM34.443 87.4813L37.3345 91.6226H37.3252C37.4167 91.7821 37.5394 91.9211 37.6861 92.0316C37.8328 92.1421 38.0003 92.2219 38.1786 92.2662C38.8154 92.3637 39.4633 92.3637 40.1001 92.2662C40.1001 92.2662 40.8416 92.1916 40.9535 91.7345C41.0654 91.2775 40.5245 90.5639 40.5245 90.5639L37.9641 86.9496C37.874 86.833 37.7616 86.7355 37.6335 86.6628C37.5054 86.59 37.3642 86.5429 37.2179 86.5252C36.5821 86.431 35.9389 86.3951 35.2965 86.4179C35.2965 86.4179 34.6762 86.4646 34.443 86.7397C34.2098 87.0149 34.443 87.4813 34.443 87.4813ZM51.8705 47.0057C51.8703 47.0057 51.8707 47.0057 51.8705 47.0057L51.8712 47.0239L51.8479 47.0099C51.8554 47.0085 51.863 47.0071 51.8705 47.0057ZM58.2694 45.8569C58.2586 45.8682 58.2479 45.8794 58.2371 45.8906L58.2138 45.8766C58.2323 45.8701 58.2509 45.8635 58.2694 45.8569Z" fill="#F0B742"/>
<path fill-rule="evenodd" clip-rule="evenodd" d="M51.8572 0.0839499C51.4557 0.0279967 51.0504 -5.62565e-05 50.6446 8.46966e-08C50.2706 6.66262e-05 49.8966 0.0234345 49.5254 0.0699594V0.0186588C44.9851 0.210403 40.5844 1.64354 36.802 4.16215C33.0195 6.68076 30.0002 10.1884 28.0724 14.3035C28.0445 14.3595 28.0165 14.4201 27.9932 14.4807C26.5236 17.7016 25.7631 21.2005 25.7631 24.7408C25.7631 28.2811 26.5236 31.78 27.9932 35.0009C28.0165 35.0615 28.0445 35.1175 28.0724 35.1781C30.0002 39.2932 33.0195 42.8009 36.802 45.3195C40.5844 47.8381 44.9851 49.2713 49.5254 49.463V49.4163C49.8052 49.4536 50.0803 49.477 50.3601 49.4863H50.9664C51.2649 49.4784 51.562 49.4518 51.8572 49.407V49.4583C58.2268 49.1817 64.2439 46.4564 68.6534 41.8513C73.0629 37.2462 75.524 31.1166 75.524 24.7408C75.524 18.365 73.0629 12.2354 68.6534 7.63029C64.2439 3.02517 58.2268 0.300069 51.8572 0.0233199V0.0839499ZM57.7707 3.16197C60.4104 5.69435 62.5417 9.59318 63.8335 14.2988H70.829C68.1022 9.0203 63.4133 5.02171 57.7707 3.16197ZM61.5297 14.3035C59.6828 7.61579 56.0825 2.85883 51.8479 2.08933V14.3035H61.5297ZM62.108 16.6213H51.8479V32.8649H62.0287C63.1391 27.51 63.1661 21.9869 62.108 16.6213ZM39.2559 32.8649H49.516L49.5393 16.6213H39.2046C38.686 19.2321 38.4267 21.8878 38.4305 24.5496C38.414 27.3426 38.6906 30.1297 39.2559 32.8649ZM39.7223 14.3175H49.516V2.07067C45.2394 2.78422 41.6018 7.56915 39.7223 14.3175ZM37.4464 14.3175C38.7243 9.61184 40.8602 5.713 43.5092 3.18063V3.16664C37.8697 5.03379 33.1866 9.03704 30.4649 14.3175H37.4464ZM29.4342 16.6353C28.4686 19.1831 27.9755 21.8856 27.9792 24.6102H28.0025C27.9981 27.4407 28.5297 30.2464 29.5695 32.8789H36.8961C35.8281 27.517 35.8281 21.9972 36.8961 16.6353H29.4342ZM37.4558 35.1968H30.6421C33.3104 40.1852 37.7441 43.9985 43.0755 45.8906C40.6364 43.3535 38.673 39.6319 37.4558 35.1968ZM49.5393 35.1968H39.8715C41.765 41.7306 45.342 46.343 49.5393 47.0425V35.1968ZM51.8712 35.1828H61.4224C59.5464 41.6535 56.0114 46.2376 51.8705 47.0057L51.8712 47.0239L51.8479 47.0099L51.8705 47.0057L51.8712 35.1828ZM63.8568 35.1968H70.6705C68.0056 40.169 63.5841 43.9692 58.2694 45.8569L58.2371 45.8906L58.2138 45.8766L58.2694 45.8569C60.6936 43.3207 62.6496 39.6124 63.8568 35.1968ZM64.4118 16.6353C65.4817 21.997 65.4817 27.5172 64.4118 32.8789H71.7618C73.8101 27.6652 73.8497 21.8768 71.8737 16.6353H64.4118Z" fill="#F0B742"/>
</svg>
