<svg width="179" height="56" viewBox="0 0 179 56" fill="none" xmlns="http://www.w3.org/2000/svg">
<path d="M28.5702 0.0949482C28.1306 0.0316645 27.6869 -6.36267e-05 27.2426 9.57927e-08C26.8331 7.5355e-05 26.4236 0.0265046 26.0171 0.0791248V0.0211033C21.0461 0.237968 16.2278 1.85886 12.0864 4.70744C7.94499 7.55601 4.63916 11.5232 2.52845 16.1774C2.49781 16.2407 2.46718 16.3093 2.44165 16.3778C0.832623 20.0207 0 23.978 0 27.9821C0 31.9862 0.832623 35.9435 2.44165 39.5864C2.46718 39.655 2.49781 39.7182 2.52845 39.7868C4.63916 44.441 7.94499 48.4082 12.0864 51.2568C16.2278 54.1054 21.0461 55.7263 26.0171 55.9431V55.8904C26.3235 55.9326 26.6248 55.9589 26.9311 55.9695H27.5949C27.9217 55.9605 28.247 55.9305 28.5702 55.8798V55.9378C35.5443 55.6251 42.1324 52.5427 46.9603 47.3342C51.7883 42.1258 54.4828 35.1932 54.4828 27.9821C54.4828 20.7711 51.7883 13.8384 46.9603 8.62994C42.1324 3.4215 35.5443 0.339381 28.5702 0.026375V0.0949482ZM41.683 16.1721C40.2686 10.85 37.9351 6.44037 35.0449 3.57622C41.223 5.6796 46.3568 10.2021 49.3424 16.1721H41.683ZM28.56 2.36305C33.1965 3.23337 37.1385 8.61353 39.1606 16.1774H28.56V2.36305ZM28.56 18.7989H39.7937C40.9523 24.8674 40.9227 31.1141 39.7069 37.1706H28.56V18.7989ZM26.0069 37.1706H14.7732C14.1542 34.077 13.8513 30.9248 13.8694 27.7659C13.8653 24.7553 14.1492 21.7517 14.717 18.7989H26.0324L26.0069 37.1706ZM26.0069 16.1932H15.2838C17.3416 8.56079 21.3245 3.14898 26.0069 2.34195V16.1932ZM19.4301 3.59733C16.5297 6.46147 14.1911 10.8711 12.792 16.1932H5.14795C8.12795 10.221 13.2554 5.69326 19.4301 3.5815V3.59733ZM2.42633 27.8344C2.42234 24.7529 2.96223 21.6963 4.01947 18.8147H12.1894C11.0201 24.8791 11.0201 31.1221 12.1894 37.1864H4.16755C3.02912 34.209 2.44701 31.0357 2.45186 27.8344H2.42633ZM5.34199 39.8079H12.8022C14.1349 44.8241 16.2846 49.0333 18.9552 51.9027C13.1179 49.7627 8.26352 45.4499 5.34199 39.8079ZM15.4472 39.8079H26.0324V53.2056C21.4368 52.4144 17.5203 47.1977 15.4472 39.8079ZM28.5855 53.1845V39.7921H39.0431C36.9853 47.1239 33.1046 52.3142 28.56 53.1686L28.5855 53.1845ZM35.5556 51.9027C38.2261 49.0333 40.3809 44.8241 41.7086 39.8079H49.1688C46.2409 45.4512 41.3761 49.7596 35.53 51.8869L35.5556 51.9027ZM42.3162 37.1864C43.4876 31.1223 43.4876 24.8789 42.3162 18.8147H50.4862C52.6497 24.7429 52.6063 31.2896 50.3636 37.1864H42.3162Z" fill="#F0B742"/>
<path d="M99.2643 25.0447V22.7084H99.2591C99.2591 22.7084 99.3323 22.0232 98.7786 21.8451C97.7002 21.5489 96.7684 20.8464 96.1669 19.8757C95.5764 18.9633 95.237 17.902 95.1849 16.8056V5.24283C95.1338 4.96657 95.0089 4.71082 94.8245 4.50363C94.6162 4.3477 94.3661 4.26299 94.1089 4.26083H92.1972C91.9224 4.35957 91.6762 4.52845 91.4816 4.75183C91.3407 4.97251 91.2579 5.22718 91.2413 5.49103V17.1725C91.2413 17.1725 91.4816 20.2102 92.8083 22.212C93.8044 23.5609 95.1216 24.6206 96.6318 25.2875C96.6318 25.2875 97.8279 25.9727 98.5488 25.9026C99.1285 25.8486 99.2643 25.0447 99.2643 25.0447Z" fill="#F0B742"/>
<path d="M101.296 25.0447V22.7084H101.328C101.328 22.7084 101.249 22.0232 101.803 21.8451C102.882 21.5505 103.814 20.8474 104.415 19.8757C104.996 18.9601 105.326 17.8993 105.37 16.8056V5.24283C105.422 4.96657 105.546 4.71082 105.731 4.50363C105.939 4.3477 106.189 4.26299 106.446 4.26083H108.358C108.634 4.36011 108.882 4.52899 109.079 4.75183C109.219 4.97251 109.3 5.22772 109.314 5.49103V17.1725C109.314 17.1725 109.074 20.2102 107.747 22.212C106.752 23.562 105.435 24.6222 103.924 25.2875C103.924 25.2875 102.727 25.9727 102.012 25.9026C101.427 25.8486 101.296 25.0447 101.296 25.0447Z" fill="#F0B742"/>
<path d="M119.364 32.0536C119.186 32.2155 119.062 32.4307 119.008 32.6687L112.171 42.888V50.8681C112.16 50.9824 112.176 51.0979 112.217 51.2047C112.257 51.3121 112.322 51.4071 112.406 51.4831C112.668 51.6461 112.951 51.7697 113.247 51.8501H114.919C115.134 51.8231 115.339 51.7394 115.514 51.6073C115.66 51.4195 115.781 51.2128 115.874 50.9921V44.1991L121.62 35.6201L123.187 32.7928C123.171 32.5678 123.089 32.353 122.952 32.1777C122.78 32.0352 122.571 31.9484 122.351 31.9295H119.964C119.756 31.8966 119.543 31.9403 119.364 32.0536Z" fill="#F0B742"/>
<path d="M83.8713 25.5357H84.8271L84.8114 25.5195C85.2933 25.5875 85.7836 25.5449 86.2479 25.3954C86.4238 25.2719 86.5692 25.1073 86.6727 24.9152C86.776 24.7231 86.8345 24.5089 86.8433 24.2893L86.7232 5.59894C86.7615 5.39768 86.7489 5.18995 86.6867 4.99517C86.6245 4.80039 86.5147 4.62558 86.368 4.48745C85.8734 4.2727 85.3348 4.18961 84.801 4.24465C84.241 4.21173 83.6792 4.25328 83.1295 4.36874C82.9576 4.40867 82.795 4.48367 82.6515 4.58889C82.508 4.69464 82.3864 4.82899 82.2938 4.98384L77.4257 11.874C77.4257 11.874 77.1436 12.5539 76.7101 12.4891C76.2766 12.4244 75.7542 11.6258 75.7542 11.6258L70.7346 4.74104C70.6115 4.61047 70.4619 4.51011 70.2966 4.44644C70.1313 4.38331 69.9545 4.35849 69.7788 4.37414C69.2512 4.37414 68.0028 4.33097 67.6268 4.37414C66.0807 4.52521 66.6709 5.60433 66.6709 5.60433L75.7542 18.0142C75.7542 18.0142 76.1617 18.6023 76.59 18.6293C76.9555 18.5905 77.2952 18.4162 77.5458 18.1383L81.7245 12.4837C81.7245 12.4837 82.2938 11.7014 82.5602 11.7445C82.8266 11.7877 82.8005 12.9747 82.8005 12.9747V24.3055C82.7856 24.6492 82.8672 24.9902 83.0355 25.2875C83.1494 25.3884 83.283 25.4629 83.4272 25.5055C83.5714 25.5486 83.7229 25.5589 83.8713 25.5357Z" fill="#F0B742"/>
<path d="M114.219 18.4459C114.035 18.611 113.907 18.8322 113.853 19.0772V24.5105C113.853 24.5105 113.811 25.0609 114.099 25.2659C114.406 25.4111 114.748 25.4558 115.081 25.3954H116.804C117.016 25.4359 117.236 25.3895 117.415 25.2659C117.593 25.0879 117.541 24.64 117.541 24.64V19.2013C117.524 18.9698 117.438 18.7491 117.295 18.57C117.117 18.4264 116.904 18.3385 116.679 18.3164H114.955C114.703 18.2813 114.446 18.3266 114.219 18.4459Z" fill="#F0B742"/>
<path d="M128.076 25.6436H129.988L129.977 25.6598C130.466 25.7116 130.96 25.6522 131.424 25.4871C131.597 25.3657 131.74 25.206 131.843 25.0188C131.946 24.8316 132.007 24.6228 132.02 24.408V5.49103C132.024 5.28168 131.984 5.07448 131.902 4.88348C131.819 4.69193 131.697 4.52198 131.544 4.38493C131.051 4.16479 130.512 4.07953 129.977 4.13673C129.575 4.10705 129.17 4.14914 128.781 4.26083C128.609 4.29968 128.446 4.37413 128.302 4.47989C128.159 4.58564 128.037 4.71999 127.946 4.87593V14.3506C127.946 14.3506 128.118 18.079 127.825 18.1599C127.533 18.2408 125.553 15.2085 125.553 15.2085L118.026 4.63312C117.903 4.50255 117.754 4.4022 117.588 4.33853C117.423 4.2754 117.246 4.25058 117.071 4.26623C116.543 4.26623 115.295 4.22846 114.919 4.26623C113.372 4.4173 113.963 5.49642 113.963 5.49642L121.489 16.3146L128.076 25.6436Z" fill="#F0B742"/>
<path d="M169.063 4.98384V7.17446C169.063 7.17446 169.032 7.77877 169.345 7.94603C169.706 8.12625 170.096 8.23955 170.495 8.28056C170.495 8.28056 174.772 9.63485 174.558 15.0466C174.344 20.4584 170.495 21.3163 170.495 21.3163C170.055 21.4275 169.642 21.6271 169.278 21.9045C169.109 22.2109 169.035 22.5627 169.063 22.9134V24.5321C169.063 24.5321 169.042 25.1364 169.387 25.3738C169.736 25.5298 170.12 25.5805 170.495 25.5195C170.495 25.5195 178.439 24.2084 178.622 15.4351C178.815 5.98742 171.095 4.36874 171.095 4.36874C170.575 4.20418 170.027 4.15238 169.486 4.21766C169.016 4.35795 169.063 4.98384 169.063 4.98384Z" fill="#F0B742"/>
<path d="M167.152 4.98384V7.17446C167.152 7.17446 167.183 7.77877 166.864 7.94603C166.503 8.12679 166.114 8.24009 165.715 8.28056C165.715 8.28056 161.432 9.63485 161.652 15.0466C161.871 20.4584 165.715 21.3163 165.715 21.3163C166.155 21.4275 166.568 21.6271 166.932 21.9045C167.101 22.2109 167.177 22.5622 167.152 22.9134V24.5321C167.152 24.5321 167.173 25.1364 166.823 25.3738C166.474 25.5298 166.09 25.5805 165.715 25.5195C165.715 25.5195 157.771 24.2084 157.593 15.4351C157.395 5.98742 165.12 4.36874 165.12 4.36874C165.64 4.20418 166.188 4.15238 166.729 4.21766C167.193 4.35795 167.152 4.98384 167.152 4.98384Z" fill="#F0B742"/>
<path d="M136.679 5.08096V7.29855L136.663 7.27697C136.663 7.27697 136.559 7.8543 136.945 8.04854C137.332 8.24278 141.777 8.08092 144.644 8.11329C145.455 8.12463 146.263 8.21473 147.058 8.38307C147.058 8.38307 151.419 9.74816 151.121 15.1438C151.086 16.4635 150.684 17.745 149.963 18.8354C149.243 19.9259 148.234 20.7795 147.058 21.2947C147.058 21.2947 137.885 21.4458 137.133 21.5106C136.679 21.5483 136.679 23.0159 136.679 23.0159V24.6346C136.73 24.9594 136.887 25.2562 137.123 25.4763C137.494 25.7299 147.073 25.622 147.073 25.622C147.073 25.622 155.018 24.3109 155.201 15.5376C155.394 6.10073 147.789 4.34716 147.789 4.34716C147.789 4.34716 144.697 4.19608 142.717 4.19608H137.457C136.971 4.19608 136.679 5.08096 136.679 5.08096Z" fill="#F0B742"/>
<path d="M169.816 32.6741V34.6974L169.826 34.7244C169.826 34.7244 169.8 35.2802 170.087 35.4312C170.415 35.5969 170.769 35.701 171.132 35.7388C171.132 35.7388 175.044 36.9474 174.846 41.9006C174.647 46.8537 171.132 47.6361 171.132 47.6361C170.729 47.7359 170.351 47.9199 170.019 48.1757C169.864 48.4551 169.793 48.7767 169.816 49.0983V50.5605C169.816 50.5605 169.8 51.1109 170.118 51.3267C170.437 51.4697 170.789 51.5166 171.132 51.4616C171.132 51.4616 178.397 50.2637 178.565 42.2351C178.742 33.6075 171.675 32.1129 171.675 32.1129C171.198 31.9646 170.697 31.9187 170.202 31.978C169.779 32.1075 169.816 32.6741 169.816 32.6741Z" fill="#F0B742"/>
<path d="M74.6208 32.9493V34.9726L74.6103 34.9618C74.6103 34.9618 74.6365 35.5176 74.3492 35.6686C73.9285 35.8715 73.4978 36.0517 73.059 36.2082C73.059 36.2082 69.9668 37.1902 70.1757 42.1434C70.3847 47.0965 73.3097 47.7602 73.3097 47.7602C73.7114 47.8622 74.0896 48.0456 74.4223 48.2997C74.5769 48.5814 74.646 48.9051 74.6208 49.2278V50.7116C74.6208 50.7116 74.6365 51.2619 74.3178 51.4778C74.001 51.6207 73.6513 51.6677 73.3097 51.6126C73.3097 51.6126 66.7545 50.4148 66.5926 42.3862C66.415 33.7586 72.7613 32.3881 72.7613 32.3881C73.2379 32.2381 73.7391 32.1906 74.2343 32.2478C74.6573 32.3773 74.6208 32.9493 74.6208 32.9493Z" fill="#F0B742"/>
<path d="M168.061 32.8144V34.8377L168.05 34.8215C168.05 34.8215 168.076 35.3773 167.789 35.5284C167.46 35.6913 167.107 35.7949 166.744 35.8359C166.744 35.8359 162.832 37.0769 163.03 42.0247C163.229 46.9724 166.744 47.7602 166.744 47.7602C167.146 47.8622 167.524 48.0456 167.857 48.2997C168.013 48.5809 168.084 48.9046 168.061 49.2278V50.7008C168.061 50.7008 168.076 51.2511 167.758 51.467C167.439 51.6099 167.087 51.6569 166.744 51.6019C166.744 51.6019 159.479 50.404 159.311 42.3754C159.134 33.7478 166.201 32.2532 166.201 32.2532C166.676 32.1054 167.175 32.0574 167.669 32.1129C168.097 32.2424 168.061 32.8144 168.061 32.8144Z" fill="#F0B742"/>
<path d="M76.5012 32.7982V34.8215H76.5221C76.5221 34.8215 76.4959 35.3773 76.7832 35.5284C77.129 35.6886 77.507 35.7609 77.8853 35.7388C78.4734 35.9978 79.0222 36.3431 79.515 36.7639C79.9551 37.1762 80.3258 37.6612 80.6119 38.1992C80.7652 38.5278 81.0016 38.8073 81.2962 39.0085C81.7656 39.1925 82.2619 39.2929 82.7639 39.3053C83.2424 39.3689 83.7282 39.2821 84.1585 39.0571C84.5503 38.7441 84.4354 37.8323 84.4354 37.8323C84.0039 36.6194 83.3088 35.5246 82.4035 34.6327C81.2955 33.4645 79.8963 32.6352 78.3607 32.237C77.8837 32.0887 77.3828 32.0412 76.8877 32.0967C76.4646 32.2262 76.5012 32.7982 76.5012 32.7982Z" fill="#F0B742"/>
<path d="M76.287 51.0029V48.9742L76.2766 48.9958C76.2766 48.9958 76.2452 48.4454 76.5325 48.289C76.8782 48.1287 77.2563 48.0564 77.6346 48.0785C78.2292 47.8217 78.785 47.4785 79.2852 47.0588C79.7248 46.6438 80.0954 46.1572 80.3821 45.6181C80.5372 45.2906 80.7755 45.0127 81.0716 44.8142C81.5392 44.6297 82.0336 44.5271 82.5341 44.512C83.0131 44.4484 83.4995 44.5368 83.9287 44.7656C84.3205 45.0786 84.2055 45.9904 84.2055 45.9904C83.7747 47.1931 83.0833 48.2787 82.1841 49.163C81.0776 50.3344 79.678 51.1654 78.1413 51.5641C77.6661 51.7125 77.1666 51.7583 76.6735 51.699C76.2452 51.5425 76.287 51.0029 76.287 51.0029Z" fill="#F0B742"/>
<path d="M66.8903 18.5268C66.7101 18.687 66.5839 18.9029 66.5299 19.1419L66.5403 24.6724C66.5403 24.6724 66.4985 25.2066 66.7806 25.4116C67.0802 25.5503 67.413 25.5934 67.7365 25.5357H69.6482C69.6482 25.5357 70.0713 25.5897 70.2436 25.4116C70.416 25.2335 70.3638 24.7965 70.3638 24.7965V19.2606C70.347 19.0356 70.2651 18.8214 70.1287 18.6455C69.9556 18.5058 69.7469 18.4216 69.5281 18.4027H67.6059C67.3606 18.3644 67.1099 18.4076 66.8903 18.5268Z" fill="#F0B742"/>
<path d="M146.17 32.2532C146.011 32.066 145.799 31.9359 145.564 31.8809L142.748 31.8917C142.748 31.8917 142.221 31.8432 142.017 32.1399C141.883 32.4512 141.841 32.7966 141.897 33.1327V34.7514C141.874 34.8712 141.88 34.9947 141.914 35.1113C141.949 35.2284 142.01 35.3341 142.094 35.4204C142.178 35.5062 142.281 35.5699 142.394 35.6044C142.508 35.6395 142.627 35.6449 142.743 35.6201H145.444C145.666 35.6034 145.877 35.5165 146.049 35.3719C146.188 35.1922 146.274 34.9748 146.295 34.746V32.9978C146.329 32.7421 146.286 32.482 146.17 32.2532Z" fill="#F0B742"/>
<path d="M148.39 32.0536C148.209 32.2138 148.083 32.4297 148.029 32.6687V50.6199C148.029 50.6199 147.987 51.2781 148.269 51.4831C148.526 51.6202 148.821 51.6639 149.105 51.6073H151.017C151.225 51.645 151.439 51.6008 151.618 51.4831C151.785 51.2835 151.732 50.7439 151.732 50.7439V36.3539C151.727 36.3107 151.753 35.8035 151.853 35.7388C152.198 35.6174 152.566 35.5769 152.929 35.6201H156.397C156.8 35.6832 157.211 35.6406 157.593 35.496C157.906 35.2963 157.828 34.7568 157.828 34.7568L157.948 32.7928C157.933 32.5667 157.848 32.3514 157.708 32.1777C157.538 32.0347 157.331 31.9478 157.112 31.9295H148.985C148.779 31.8966 148.568 31.9408 148.39 32.0536Z" fill="#F0B742"/>
<path d="M125.804 41.7657C125.624 41.9259 125.497 42.1417 125.444 42.3808L125.428 50.6091C125.43 50.8756 125.514 51.1346 125.668 51.3483C125.957 51.5247 126.289 51.611 126.624 51.5965H128.191C128.191 51.5965 128.739 51.5587 128.912 51.3483C129.21 50.9868 129.147 50.7332 129.147 50.7332V45.9365C129.142 45.8879 129.168 45.3807 129.267 45.3214C129.612 45.1989 129.98 45.1568 130.343 45.1973C130.343 45.1973 132.996 45.2836 135.723 45.0786C136.95 44.9653 137.885 44.0696 138.826 43.4599C140.925 42.1164 140.675 38.6416 140.858 38.1722C141.113 37.5409 140.372 34.3521 137.875 32.8845C135.713 31.6165 131.999 31.9996 131.999 31.9996L126.869 32.0266C126.428 31.9624 125.977 32.005 125.553 32.1507C125.235 32.3449 125.313 32.8845 125.313 32.8845V34.7298C125.329 34.9559 125.413 35.1712 125.553 35.3449C125.724 35.4857 125.931 35.5715 126.149 35.5931H134.506C134.506 35.5931 137.285 35.9168 137.18 38.6146C137.06 41.7711 134.119 41.6416 134.119 41.6416H126.399C126.193 41.6087 125.982 41.6529 125.804 41.7657Z" fill="#F0B742"/>
<path d="M87.8096 41.1344C87.6256 41.299 87.4974 41.5202 87.444 41.7657V50.3932C87.4462 50.6582 87.5304 50.915 87.6843 51.127C87.9727 51.304 88.3049 51.3903 88.6401 51.3752H90.2071C90.2071 51.3752 90.7556 51.3375 90.9227 51.127C91.0045 51.0493 91.0686 50.9538 91.1101 50.8475C91.1517 50.7412 91.1697 50.6263 91.163 50.5119V45.3483C91.1525 45.2998 91.1787 44.7926 91.2831 44.7332C91.6288 44.6118 91.9964 44.5714 92.3591 44.6145H95.7647L99.1703 50.2637C99.1703 50.2637 99.7501 51.4562 100.737 51.3698C101.286 51.3213 102.858 51.4616 103.349 51.1216C103.84 50.7817 103.349 49.8968 103.349 49.8968C103.349 49.8968 99.4471 44.0642 99.7919 43.8484C100.283 43.5408 100.737 43.1793 101.197 42.8826C103.292 41.5391 103.041 38.4312 103.229 37.9672C103.48 37.3305 102.738 34.1471 100.241 32.6795C98.0787 31.4061 94.3649 31.7892 94.3649 31.7892H89.1155C88.6733 31.725 88.2228 31.7676 87.7992 31.9133C87.4858 32.1129 87.5641 32.6525 87.5641 32.6525V34.4978C87.636 34.7638 87.7566 35.0125 87.9193 35.2316C88.0912 35.374 88.3003 35.4609 88.52 35.4798L96.9974 35.4528C96.9974 35.4528 99.677 35.6255 99.5516 38.3503C99.4263 41.075 96.4908 41.0103 96.4908 41.0103H88.4103C88.2022 40.9779 87.9896 41.0216 87.8096 41.1344Z" fill="#F0B742"/>
<path d="M104.759 33.041L107.998 37.8323H107.987C108.09 38.0168 108.227 38.1776 108.391 38.3055C108.556 38.4333 108.743 38.5256 108.943 38.5769C109.656 38.6896 110.382 38.6896 111.095 38.5769C111.095 38.5769 111.926 38.4905 112.051 37.9618C112.176 37.433 111.57 36.6075 111.57 36.6075L108.703 32.4259C108.602 32.291 108.476 32.1782 108.333 32.094C108.189 32.0099 108.031 31.9554 107.867 31.9349C107.155 31.8259 106.435 31.7843 105.715 31.8108C105.715 31.8108 105.02 31.8647 104.759 32.1831C104.498 32.5014 104.759 33.041 104.759 33.041Z" fill="#F0B742"/>
</svg>
