<svg id="Layer_1" data-name="Layer 1" xmlns="http://www.w3.org/2000/svg" viewBox="0 0 30.79 27.74"><defs><style>.cls-1{fill:#2a5673;}</style></defs><title>Untitled-1</title><path class="cls-1" d="M26,14a8.55,8.55,0,0,0-1.05-4.08A9.31,9.31,0,0,0,22,6.69,10.5,10.5,0,0,0,17.83,5a11.1,11.1,0,0,0-4.59.15,10.5,10.5,0,0,0-4,2,9.24,9.24,0,0,0-2.65,3.42,8.62,8.62,0,0,0-.72,4.15,8.82,8.82,0,0,0,1.37,4,7.76,7.76,0,0,1-.54-2.85v-.23a7.83,7.83,0,0,1,1-3.55,8.37,8.37,0,0,1,2.54-2.83,9.49,9.49,0,0,1,3.62-1.57,10,10,0,0,1,4,0A9.72,9.72,0,0,1,21.45,9.2,8.71,8.71,0,0,1,24,12a7.75,7.75,0,0,1,.25,7.15A8.71,8.71,0,0,0,26,14Z" transform="translate(0.01 0.02)"/><path class="cls-1" d="M18.28,2.5a13.34,13.34,0,0,0-6.35,1.58,12.4,12.4,0,0,1,3.88-.62h.31a12.27,12.27,0,0,1,4.82,1.11,11.32,11.32,0,0,1,3.84,2.88,10,10,0,0,1,2.13,4.1,9.55,9.55,0,0,1,0,4.54,10,10,0,0,1-2.11,4.11A11.23,11.23,0,0,1,21,23.11a12.38,12.38,0,0,1-9.7.28,13.16,13.16,0,0,0,5.42,1.86,13.66,13.66,0,0,0,5.75-.56,12.71,12.71,0,0,0,4.85-2.87,11.23,11.23,0,0,0,2.92-4.56A10.38,10.38,0,0,0,30.6,12a10.92,10.92,0,0,0-2.27-4.86,12.34,12.34,0,0,0-4.42-3.41A13.58,13.58,0,0,0,18.28,2.5Z" transform="translate(0.01 0.02)"/><path class="cls-1" d="M17.8,26.54A14.86,14.86,0,0,1,12,25.19,13.51,13.51,0,0,1,7.29,21.7a12.11,12.11,0,0,1-2.58-5,11.54,11.54,0,0,1,0-5.51,12.13,12.13,0,0,1,2.56-5,13.64,13.64,0,0,1,4.64-3.52,15,15,0,0,1,11.77-.35A16.44,16.44,0,0,0,8.25,1.5,14.81,14.81,0,0,0,2.34,6.44a12.85,12.85,0,0,0-.47,14.09,14.45,14.45,0,0,0,5.57,5.25,16.2,16.2,0,0,0,7.72,1.94,16.32,16.32,0,0,0,7.72-1.92,15,15,0,0,1-4.7.75Z" transform="translate(0.01 0.02)"/></svg>