<svg width="133" height="26" viewBox="0 0 133 26" fill="none" xmlns="http://www.w3.org/2000/svg">
<path fill-rule="evenodd" clip-rule="evenodd" d="M17.1004 25.4851C15.4578 22.5677 13.6803 19.6869 11.768 16.843C9.85573 13.9991 7.82084 11.3145 5.66337 8.78925L5.66337 25.4851H0V0H4.67044C5.47949 0.809052 6.37435 1.80198 7.35502 2.97878C8.33569 4.15559 9.32862 5.4182 10.3338 6.76662C11.3635 8.09052 12.381 9.47572 13.3861 10.9222C14.3913 12.3442 15.3352 13.7171 16.2178 15.041V0H21.918V25.4851H17.1004ZM23.5677 15.9604C23.5677 14.2442 23.8251 12.7487 24.34 11.4738C24.8793 10.1744 25.578 9.09571 26.4361 8.23762C27.2942 7.37954 28.2749 6.72984 29.3781 6.28854C30.5059 5.84724 31.6582 5.62659 32.835 5.62659C35.5809 5.62659 37.7506 6.47242 39.3442 8.16407C40.9378 9.83121 41.7346 12.2951 41.7346 15.5559C41.7346 15.8746 41.7223 16.2301 41.6978 16.6223C41.6733 16.9901 41.6488 17.3211 41.6243 17.6153H29.1943C29.3169 18.743 29.844 19.6379 30.7756 20.2999C31.7072 20.9618 32.9576 21.2928 34.5267 21.2928C35.5318 21.2928 36.5125 21.207 37.4687 21.0354C38.4493 20.8392 39.2461 20.6063 39.859 20.3366L40.5946 24.7864C40.3004 24.9335 39.9081 25.0806 39.4177 25.2277C38.9274 25.3748 38.3758 25.4974 37.7629 25.5955C37.1745 25.7181 36.537 25.8161 35.8506 25.8897C35.1641 25.9632 34.4776 26 33.7912 26C32.0505 26 30.5304 25.7426 29.231 25.2277C27.9562 24.7129 26.8897 24.0141 26.0316 23.1315C25.198 22.2244 24.5729 21.1579 24.1561 19.9321C23.7638 18.7063 23.5677 17.3824 23.5677 15.9604ZM36.439 13.8642C36.4144 13.3984 36.3286 12.9448 36.1815 12.5035C36.059 12.0622 35.8506 11.67 35.5564 11.3267C35.2867 10.9835 34.9312 10.7016 34.4899 10.4809C34.0731 10.2603 33.546 10.1499 32.9086 10.1499C32.2956 10.1499 31.7685 10.2603 31.3272 10.4809C30.8859 10.677 30.5182 10.9467 30.224 11.29C29.9298 11.6332 29.6969 12.0377 29.5252 12.5035C29.3781 12.9448 29.2678 13.3984 29.1943 13.8642H36.439ZM51.5162 10.3706C54.115 10.3706 55.4143 12.1358 55.4143 15.6662C55.4143 17.3578 55.0343 18.7185 54.2743 19.7482C53.5143 20.7779 52.3865 21.2928 50.891 21.2928C50.4007 21.2928 49.9471 21.2805 49.5303 21.256C49.1135 21.207 48.7703 21.1579 48.5006 21.1089V11.1429C48.8439 10.9222 49.2852 10.7383 49.8245 10.5912C50.3884 10.4441 50.9523 10.3706 51.5162 10.3706ZM60.3054 20.0057C60.7713 18.7553 61.0042 17.3579 61.0042 15.8133C61.0042 14.2933 60.8203 12.9203 60.4525 11.6945C60.0848 10.4441 59.5454 9.37765 58.8344 8.49505C58.1234 7.61245 57.2408 6.93824 56.1866 6.47242C55.1324 5.98208 53.9188 5.73692 52.5459 5.73692C51.7859 5.73692 51.0749 5.81047 50.4129 5.95757C49.751 6.10467 49.1135 6.31306 48.5006 6.58274V0H43.0211V24.86C43.5115 25.0071 44.0754 25.1542 44.7128 25.3013C45.3502 25.4239 46.0122 25.5342 46.6986 25.6322C47.4096 25.7303 48.1206 25.8039 48.8316 25.8529C49.5671 25.9265 50.2658 25.9632 50.9278 25.9632C52.5214 25.9632 53.9433 25.7303 55.1937 25.2645C56.444 24.7742 57.4983 24.0877 58.3563 23.2051C59.2144 22.3225 59.8641 21.256 60.3054 20.0057ZM80.3668 15.7765C80.3668 17.2966 80.1462 18.694 79.7049 19.9689C79.2636 21.2192 78.6261 22.298 77.7926 23.2051C76.959 24.0877 75.9538 24.7742 74.777 25.2645C73.6247 25.7548 72.3253 26 70.8789 26C69.4569 26 68.1575 25.7548 66.9807 25.2645C65.8284 24.7742 64.8355 24.0877 64.0019 23.2051C63.1683 22.298 62.5186 21.2192 62.0528 19.9689C61.587 18.694 61.3541 17.2966 61.3541 15.7765C61.3541 14.2565 61.587 12.8713 62.0528 11.6209C62.5432 10.3706 63.2051 9.3041 64.0387 8.4215C64.8968 7.5389 65.902 6.85243 67.0542 6.36209C68.231 5.87176 69.5059 5.62659 70.8789 5.62659C72.2763 5.62659 73.5512 5.87176 74.7035 6.36209C75.8803 6.85243 76.8855 7.5389 77.719 8.4215C78.5526 9.3041 79.2023 10.3706 79.6681 11.6209C80.1339 12.8713 80.3668 14.2565 80.3668 15.7765ZM74.777 15.7765C74.777 14.0849 74.4338 12.761 73.7473 11.8048C73.0854 10.8241 72.1292 10.3338 70.8789 10.3338C69.6285 10.3338 68.6601 10.8241 67.9736 11.8048C67.2871 12.761 66.9439 14.0849 66.9439 15.7765C66.9439 17.4682 67.2871 18.8166 67.9736 19.8218C68.6601 20.8025 69.6285 21.2928 70.8789 21.2928C72.1292 21.2928 73.0854 20.8025 73.7473 19.8218C74.4338 18.8166 74.777 17.4682 74.777 15.7765ZM85.4941 25.338C86.4993 25.6568 88.1377 25.9019 89.7313 25.9265V21.2928C89.1441 21.2493 89.0039 21.1865 88.706 21.0531C88.6681 21.0361 88.6275 21.018 88.5832 20.9986C88.1909 20.827 87.8845 20.6063 87.6638 20.3366C87.4677 20.0669 87.3328 19.736 87.2593 19.3437C87.1857 18.9514 87.149 18.5101 87.149 18.0198V0H81.6695V19.1231C81.6695 20.1528 81.7675 21.0844 81.9637 21.918C82.1843 22.727 82.5766 23.4257 83.1405 24.0141C83.7289 24.578 84.5134 25.0193 85.4941 25.338ZM106.875 24.8232C105.944 25.0929 104.742 25.338 103.271 25.5587C101.8 25.8039 100.256 25.9265 98.6377 25.9265C96.9951 25.9265 95.6222 25.7058 94.5189 25.2645C93.4402 24.8232 92.5821 24.2103 91.9447 23.4257C91.3072 22.6167 90.8537 21.6605 90.584 20.5573C90.3143 19.454 90.1795 18.2405 90.1795 16.9165V6.14144H95.659V16.2546C95.659 18.0198 95.8919 19.2947 96.3577 20.0792C96.8235 20.8637 97.6939 21.256 98.9687 21.256C99.361 21.256 99.7778 21.2438 100.219 21.2192C100.66 21.1702 101.053 21.1212 101.396 21.0721V6.14144H106.875V24.8232ZM116.763 21.256C116.346 21.4521 115.635 21.5502 114.63 21.5502C113.674 21.5502 112.705 21.4521 111.725 21.256C110.744 21.0354 109.788 20.7412 108.856 20.3734L107.937 24.8232C108.378 25.0193 109.163 25.2645 110.291 25.5587C111.443 25.8529 112.877 26 114.593 26C117.217 26 119.239 25.5097 120.661 24.529C122.108 23.5483 122.831 22.1018 122.831 20.1895C122.831 19.3805 122.733 18.6695 122.537 18.0566C122.365 17.4437 122.046 16.892 121.581 16.4017C121.139 15.8868 120.526 15.421 119.742 15.0042C118.957 14.5629 117.964 14.1216 116.763 13.6803C116.175 13.4597 115.684 13.2636 115.292 13.0919C114.924 12.8958 114.63 12.7242 114.409 12.5771C114.189 12.4055 114.042 12.2339 113.968 12.0622C113.895 11.8906 113.858 11.6945 113.858 11.4738C113.858 10.5177 114.716 10.0396 116.432 10.0396C117.364 10.0396 118.197 10.1254 118.933 10.297C119.693 10.4686 120.391 10.6648 121.029 10.8854L121.985 6.61952C121.348 6.37435 120.49 6.1537 119.411 5.95757C118.332 5.73692 117.204 5.62659 116.027 5.62659C113.674 5.62659 111.823 6.1537 110.474 7.20792C109.126 8.26214 108.452 9.69637 108.452 11.5106C108.452 12.4422 108.587 13.239 108.856 13.901C109.126 14.5629 109.506 15.1391 109.996 15.6294C110.487 16.0952 111.075 16.4998 111.762 16.843C112.473 17.1862 113.257 17.5172 114.115 17.8359C115.218 18.2527 116.04 18.6327 116.579 18.976C117.118 19.2947 117.388 19.6747 117.388 20.116C117.388 20.6799 117.18 21.0599 116.763 21.256ZM132.758 4.74399C132.758 5.15128 132.703 5.54568 132.6 5.92013C132.189 7.80009 130.979 10.855 128.92 12.4751C128.597 12.7295 128.192 12.9175 127.788 12.8402C126.975 12.6846 127.228 11.7414 127.537 10.5932C127.663 10.1269 127.797 9.62688 127.873 9.13205C125.658 8.89648 123.932 7.02176 123.932 4.74399C123.932 2.30675 125.908 0.330975 128.345 0.330975C130.782 0.330975 132.758 2.30675 132.758 4.74399Z" fill="white"/>
</svg>
