<?xml version="1.0" encoding="utf-8"?>
<!-- Generator: Adobe Illustrator 23.0.1, SVG Export Plug-In . SVG Version: 6.00 Build 0)  -->
<svg version="1.1" id="Layer_1" xmlns="http://www.w3.org/2000/svg" xmlns:xlink="http://www.w3.org/1999/xlink" x="0px" y="0px"
	 viewBox="0 0 16 16" enable-background="new 0 0 16 16" xml:space="preserve">
<path fill="#373737" d="M14.113,1.309c-0.478-0.082-0.962-0.125-1.447-0.127C11.012,1.181,9.392,1.656,8,2.549
	C6.604,1.667,4.984,1.205,3.333,1.216C2.848,1.218,2.364,1.26,1.887,1.343C1.73,1.37,1.588,1.452,1.487,1.574
	C1.385,1.696,1.331,1.851,1.333,2.009v8c-0.001,0.098,0.019,0.195,0.059,0.284c0.04,0.089,0.1,0.169,0.174,0.232
	c0.074,0.064,0.162,0.11,0.257,0.136c0.094,0.026,0.193,0.031,0.29,0.014c0.955-0.165,1.934-0.138,2.879,0.081
	c0.945,0.219,1.836,0.624,2.621,1.193l0.08,0.047h0.073C7.841,12.027,7.92,12.043,8,12.043c0.08,0,0.159-0.016,0.233-0.047h0.073
	l0.08-0.047c0.78-0.581,1.669-1,2.613-1.231c0.945-0.231,1.926-0.271,2.887-0.116c0.097,0.017,0.196,0.012,0.29-0.014
	c0.095-0.026,0.182-0.072,0.257-0.136c0.075-0.064,0.134-0.143,0.174-0.232c0.04-0.089,0.061-0.186,0.059-0.284v-8
	C14.66,1.784,14.601,1.639,14.5,1.525C14.4,1.411,14.263,1.335,14.113,1.309z M7.333,10.169c-1.233-0.649-2.606-0.988-4-0.987
	c-0.22,0-0.44,0-0.667,0V2.516c0.222-0.013,0.445-0.013,0.667,0c1.422-0.002,2.813,0.416,4,1.2V10.169z M13.333,9.209
	c-0.227,0-0.447,0-0.667,0c-1.394-0.001-2.767,0.338-4,0.987v-6.48c1.187-0.784,2.578-1.202,4-1.2c0.222-0.013,0.445-0.013,0.667,0
	V9.209z M14.113,11.976c-0.478-0.082-0.962-0.125-1.447-0.127C11.012,11.848,9.392,12.322,8,13.216
	c-1.392-0.894-3.012-1.368-4.667-1.367c-0.485,0.002-0.969,0.044-1.447,0.127c-0.087,0.014-0.17,0.045-0.245,0.091
	c-0.075,0.046-0.14,0.106-0.191,0.178c-0.051,0.071-0.088,0.152-0.108,0.238s-0.023,0.174-0.009,0.261
	c0.034,0.173,0.135,0.326,0.281,0.425c0.146,0.099,0.326,0.135,0.499,0.102c0.955-0.165,1.934-0.138,2.879,0.081
	c0.945,0.219,1.836,0.624,2.621,1.193c0.113,0.08,0.248,0.124,0.387,0.124c0.139,0,0.274-0.043,0.387-0.124
	c0.785-0.568,1.677-0.974,2.621-1.193c0.945-0.219,1.923-0.246,2.879-0.081c0.173,0.033,0.353-0.003,0.499-0.102
	c0.146-0.099,0.247-0.251,0.281-0.425c0.014-0.087,0.011-0.175-0.009-0.261s-0.057-0.166-0.108-0.238
	c-0.051-0.071-0.116-0.132-0.191-0.178C14.283,12.021,14.2,11.99,14.113,11.976z"/>
</svg>
