<svg width="24" height="24" viewBox="0 0 24 24" fill="none" xmlns="http://www.w3.org/2000/svg">
<path fill-rule="evenodd" clip-rule="evenodd" d="M19.863 10.7879C19.863 14.5367 16.8239 17.5758 13.0751 17.5758C11.5379 17.5758 10.1201 17.0648 8.98215 16.2034L5.18568 20L4.5 19.3143L8.25103 15.5632C7.03696 14.3368 6.28722 12.6499 6.28722 10.7879C6.28722 7.03904 9.32625 4 13.0751 4C16.8239 4 19.863 7.03904 19.863 10.7879ZM13.0751 16.6061C16.2884 16.6061 18.8933 14.0012 18.8933 10.7879C18.8933 7.57458 16.2884 4.9697 13.0751 4.9697C9.8618 4.9697 7.25691 7.57458 7.25691 10.7879C7.25691 14.0012 9.8618 16.6061 13.0751 16.6061Z" fill="white"/>
</svg>
