<svg width="24" height="24" viewBox="0 0 24 24" fill="none" xmlns="http://www.w3.org/2000/svg">
<path d="M17.2914 2.78877C16.6937 3.35801 16.1461 3.97496 15.6594 4.63282L15.5055 4.58509C14.6179 4.309 13.6981 4.13857 12.7711 4.08063C12.492 4.06017 11.4505 4.06017 11.1105 4.08063C10.0833 4.14539 9.29591 4.29196 8.40116 4.5885C8.36537 4.60214 8.33316 4.61236 8.30095 4.62259C7.79631 3.96814 7.2344 3.3546 6.61523 2.79218C9.58581 1.34353 13.061 1.1697 16.1712 2.31157C16.504 2.43087 16.8297 2.57062 17.1483 2.7206L17.2914 2.78877Z" fill="#F00500"/>
<path d="M22.8325 15.717C22.3815 16.9407 21.7051 18.0757 20.8282 19.0642C20.3522 19.596 19.8261 20.0834 19.2606 20.5265C17.9364 21.5423 16.3903 22.2683 14.7403 22.6501C12.915 23.0693 11.011 23.0693 9.18571 22.6501C7.5322 22.2683 5.98965 21.5423 4.66542 20.5265C4.09993 20.0834 3.57382 19.596 3.09781 19.0642C0.574604 16.2249 -0.191305 12.3255 1.09356 8.8112C1.33693 8.16016 1.64115 7.53298 2.00621 6.93648C2.17442 6.66379 2.38201 6.35702 2.48222 6.2309C2.8258 7.63865 3.24812 8.87597 3.4056 9.32249C3.39486 9.34635 3.38055 9.37362 3.36623 9.39748C2.53232 11.0063 2.08137 12.5572 1.974 14.207C1.974 14.2275 1.97042 14.2513 1.97042 14.2718C1.94179 14.766 1.9561 15.0012 2.042 15.3114C2.31042 16.2828 3.13718 17.3531 4.43278 18.403C6.55513 20.1209 9.43266 21.3616 11.6123 21.5048C13.8849 21.6514 17.2385 20.3868 19.4718 18.5393C19.8225 18.2428 20.1518 17.9292 20.4596 17.5951C20.6815 17.3497 21.0108 16.9271 20.9857 16.9271C20.9785 16.9271 20.9857 16.9202 21 16.9134C21.0108 16.9066 21.0215 16.8964 21.0143 16.8896C21.0108 16.8862 21.0179 16.8759 21.0287 16.8725C21.0394 16.8691 21.0466 16.8623 21.043 16.8555C21.0394 16.8487 21.043 16.8418 21.0573 16.8384C21.068 16.835 21.0716 16.8248 21.068 16.818C21.0644 16.8112 21.068 16.8043 21.0752 16.8043C21.0823 16.8043 21.0895 16.7941 21.0895 16.7873C21.0895 16.7805 21.0967 16.7703 21.1038 16.7703C21.111 16.7703 21.1181 16.7634 21.1181 16.7566C21.1289 16.7294 21.1468 16.7021 21.1647 16.6782C21.2183 16.5998 21.4331 16.2351 21.4617 16.1738C21.6657 15.734 21.7946 15.3421 21.8554 14.9501C21.884 14.7626 21.9019 14.4183 21.8876 14.3365C21.884 14.3229 21.884 14.299 21.8805 14.2615C21.8733 14.1934 21.8697 14.0911 21.8626 13.9889C21.8554 13.8355 21.8411 13.6207 21.8304 13.5151C21.6765 11.9676 21.2613 10.703 20.4739 9.36339C20.4417 9.31227 20.4131 9.26114 20.3952 9.22023C20.388 9.21001 20.3844 9.19978 20.3809 9.19297C20.4918 8.87597 20.9463 7.55003 21.3078 6.0332L21.315 6.04002L21.3687 6.10819C21.4617 6.22749 21.7087 6.58199 21.8196 6.75242C22.3243 7.53639 22.7179 8.37831 22.9971 9.25773C23.6449 11.3745 23.5912 13.6309 22.8325 15.717Z" fill="#F00500"/>
<path d="M18.1872 11.6446C18.1765 11.6992 18.0083 11.8628 17.8401 11.9821C17.3462 12.3263 16.4622 12.6468 15.5638 12.8001C15.052 12.8888 14.5402 12.9024 14.3863 12.8308C14.2861 12.7831 14.2718 12.7456 14.3076 12.6229C14.3827 12.3672 14.6261 12.0877 15.0055 11.8253C15.1988 11.6923 15.9826 11.239 16.3476 11.0481C16.9489 10.7345 17.4357 10.5471 17.7649 10.5028C17.8687 10.4891 17.994 10.4857 18.0333 10.5028C18.0978 10.5266 18.1693 10.7073 18.198 10.9254C18.2123 11.0413 18.2051 11.5526 18.1872 11.6446Z" fill="black"/>
<path d="M9.75495 12.7726C9.73348 12.8135 9.62611 12.8578 9.50442 12.8749C9.38274 12.8919 9.01052 12.8817 8.79936 12.8578C8.04061 12.7624 7.23534 12.5408 6.64839 12.2682C6.31912 12.1148 6.0829 11.9614 5.90753 11.7944L5.80732 11.6955L5.79658 11.566C5.77869 11.341 5.78227 10.9865 5.8109 10.8604C5.82879 10.7547 5.86816 10.6525 5.92185 10.5605C5.95048 10.5264 5.95048 10.5264 6.07932 10.5264C6.2368 10.5264 6.36922 10.5502 6.58396 10.615C7.02418 10.7445 7.67914 11.0581 8.47725 11.5149C9.13579 11.8898 9.38274 12.0739 9.57242 12.3261C9.70127 12.4829 9.78716 12.7045 9.75495 12.7726Z" fill="black"/>
<path d="M14.8225 17.5166C14.8225 17.5268 14.7796 17.6904 14.7259 17.8847C14.6722 18.079 14.6293 18.2358 14.6293 18.2426C14.5899 18.246 14.5541 18.2494 14.5147 18.246H14.4002L14.2427 18.6005C14.1568 18.7948 14.0781 18.9754 14.0674 19.0027L14.0459 19.0504L13.9707 18.9345L13.8956 18.8187V17.8745L13.8669 17.8813C13.8061 17.8949 13.373 17.9495 13.1833 17.9665C12.3995 18.0415 11.6122 18.0245 10.8319 17.9188C10.7067 17.9017 10.5993 17.8881 10.5957 17.8915C10.5921 17.8949 10.5957 18.1131 10.6029 18.3824L10.6136 18.8664L10.5528 18.955C10.5206 19.0027 10.4883 19.0436 10.4883 19.047C10.4776 19.0573 10.4418 19.0027 10.3595 18.8459C10.27 18.6823 10.2056 18.5085 10.1591 18.3278L10.134 18.229L10.0231 18.2358L9.91212 18.246L9.88349 18.1199C9.86917 18.0517 9.85128 17.9461 9.84412 17.8881L9.83339 17.779L9.74033 17.7006C9.68664 17.6563 9.63296 17.612 9.62222 17.6052C9.60433 17.5916 9.59717 17.5677 9.59717 17.5473V17.5063L10.0445 17.5098L10.4919 17.5132L10.5062 17.5575L10.5206 17.6018L10.6745 17.6086C10.7604 17.612 11.0324 17.6188 11.2757 17.6256L11.7231 17.6359L11.8376 17.4654L11.9557 17.295H12.1061L12.1025 16.9405L12.0989 16.586L11.9021 16.5042C11.2686 16.2384 10.8964 15.935 10.7568 15.5669C10.7281 15.4919 10.7281 15.4646 10.721 15.1238C10.7174 14.7863 10.7174 14.7556 10.7425 14.6806C10.7926 14.5102 10.9321 14.3773 11.1111 14.333C11.1719 14.3159 11.333 14.3159 12.1776 14.3159L13.1726 14.3193L13.2835 14.3705C13.416 14.4318 13.4768 14.4761 13.552 14.5716C13.6379 14.6806 13.6629 14.7659 13.6629 14.9738C13.6629 15.2703 13.6415 15.526 13.6092 15.6282C13.5627 15.768 13.4911 15.9009 13.4017 16.0202C13.2227 16.2384 12.897 16.4565 12.6 16.5554L12.5141 16.586L12.5176 16.9439L12.5212 17.3018L12.6 17.3087L12.6787 17.3155L12.7861 17.4689L12.8899 17.6222H13.3694C13.6343 17.6222 13.8669 17.6256 13.8884 17.6291C13.9242 17.6359 13.9314 17.6325 13.9671 17.5745L14.0101 17.5132H14.4217C14.7295 17.4995 14.8225 17.5063 14.8225 17.5166Z" fill="black"/>
<path d="M12.9328 18.4953C12.8648 18.5328 12.8183 18.5498 12.8076 18.543C12.7968 18.5396 12.7467 18.4987 12.693 18.4612L12.5964 18.3862L12.4962 18.4885C12.2779 18.7135 12.2707 18.7237 12.2063 18.7271C12.1061 18.7373 12.0846 18.7203 11.9629 18.5464C11.8985 18.4578 11.8484 18.3828 11.8484 18.3828C11.8484 18.3828 11.8019 18.376 11.7482 18.3726L11.648 18.3624L11.6014 18.4544L11.5549 18.5464L11.4726 18.5226C11.4082 18.5021 11.3438 18.4783 11.2829 18.451L11.1755 18.3999V18.2056L12.1276 18.209L13.0796 18.2124L13.0831 18.3044C13.0867 18.4135 13.0903 18.4101 12.9328 18.4953Z" fill="black"/>
<path d="M21.8805 14.3363C21.8769 14.3227 21.8769 14.2988 21.8733 14.2613C21.0144 14.1727 18.5627 14.1182 16.2865 15.9077C16.2865 15.9077 15.5528 12.7036 12.1169 12.7036C8.68108 12.7036 7.40695 15.9077 7.40695 15.9077C5.48144 13.9341 2.90456 14.0773 1.97401 14.2068C1.97401 14.2272 1.97043 14.2511 1.97043 14.2716C1.9418 14.7658 1.95612 15.001 2.04201 15.3112C2.31044 16.2826 3.13719 17.3529 4.43279 18.4028C6.55515 20.1207 9.43267 21.3614 11.6123 21.5046C13.885 21.6511 17.2385 20.3866 19.4718 18.5391C19.8225 18.2426 20.1518 17.929 20.4596 17.5949C20.6815 17.3495 21.0108 16.9268 20.9857 16.9268C20.9786 16.9268 20.9857 16.92 21 16.9132C21.0108 16.9064 21.0215 16.8962 21.0144 16.8894C21.0108 16.8859 21.0179 16.8757 21.0287 16.8723C21.0394 16.8689 21.0466 16.8621 21.043 16.8553C21.0394 16.8484 21.043 16.8416 21.0573 16.8382C21.068 16.8348 21.0716 16.8246 21.068 16.8178C21.0645 16.811 21.068 16.8041 21.0752 16.8041C21.0824 16.8041 21.0895 16.7939 21.0895 16.7871C21.0895 16.7803 21.0967 16.7701 21.1038 16.7701C21.111 16.7701 21.1181 16.7632 21.1181 16.7564C21.1289 16.7291 21.1468 16.7019 21.1647 16.678C21.2184 16.5996 21.4331 16.2349 21.4617 16.1735C21.6657 15.7338 21.7946 15.3419 21.8554 14.9499C21.8769 14.7624 21.8948 14.4181 21.8805 14.3363ZM12.9329 18.4948C12.8649 18.5323 12.8184 18.5493 12.8077 18.5425C12.7969 18.5391 12.7468 18.4982 12.6931 18.4607L12.5965 18.3857L12.4963 18.488C12.278 18.7129 12.2708 18.7232 12.2064 18.7266C12.1062 18.7368 12.0847 18.7198 11.963 18.5459C11.8986 18.4573 11.8485 18.3823 11.8485 18.3823C11.8485 18.3823 11.802 18.3755 11.7483 18.3721L11.6481 18.3619L11.6016 18.4539L11.555 18.5459L11.4727 18.5221C11.4083 18.5016 11.3439 18.4778 11.283 18.4505L11.1757 18.3994V18.2051L12.1277 18.2085L13.0797 18.2119L13.0833 18.3039C13.0868 18.413 13.0904 18.4096 12.9329 18.4948ZM14.7225 17.8813C14.6688 18.0755 14.6258 18.2323 14.6258 18.2392C14.5864 18.2426 14.5507 18.246 14.5113 18.2426H14.3968L14.2429 18.6005C14.157 18.7947 14.0782 18.9754 14.0675 19.0027L14.046 19.0504L13.9709 18.9345L13.8957 18.8186V17.8744L13.8671 17.8813C13.8062 17.8949 13.3732 17.9494 13.1835 17.9665C12.3997 18.0415 11.6123 18.0244 10.8321 17.9187C10.7068 17.9017 10.5994 17.8881 10.5958 17.8915C10.5923 17.8949 10.5959 18.113 10.603 18.3823L10.6137 18.8663L10.5529 18.955C10.5207 19.0027 10.4885 19.0436 10.4885 19.047C10.4777 19.0572 10.442 19.0027 10.3596 18.8459C10.2702 18.6823 10.2057 18.5084 10.1592 18.3278L10.1342 18.2289L10.0232 18.2357L9.91226 18.246L9.88363 18.1199C9.86931 18.0517 9.85142 17.946 9.84426 17.8881L9.83352 17.779L9.74047 17.7006C9.68678 17.6563 9.6331 17.612 9.62236 17.6052C9.60447 17.5915 9.59731 17.5677 9.59731 17.5472V17.5063L10.0447 17.5097L10.4921 17.5131L10.5064 17.5574L10.5207 17.6017L10.6746 17.6086C10.7605 17.612 11.0325 17.6188 11.2759 17.6256L11.7232 17.6358L11.8378 17.4654L11.9559 17.295H12.1062L12.1026 16.9405L12.099 16.586L11.9022 16.5042C11.2687 16.2383 10.8965 15.9349 10.7569 15.5668C10.7283 15.4918 10.7283 15.4646 10.7211 15.1237C10.7175 14.7863 10.7175 14.7556 10.7426 14.6806C10.7927 14.5102 10.9323 14.3772 11.1112 14.3329C11.1721 14.3159 11.3331 14.3159 12.1778 14.3159L13.1727 14.3193L13.2837 14.3704C13.4161 14.4318 13.477 14.4761 13.5521 14.5715C13.638 14.6806 13.6631 14.7658 13.6631 14.9737C13.6631 15.2703 13.6416 15.5259 13.6094 15.6282C13.5629 15.7679 13.4913 15.9009 13.4018 16.0202C13.2228 16.2383 12.8972 16.4565 12.6001 16.5553L12.5142 16.586L12.5178 16.9439L12.5214 17.3018L12.6001 17.3086L12.6788 17.3154L12.7862 17.4688L12.89 17.6222H13.3696C13.6344 17.6222 13.8671 17.6256 13.8885 17.629C13.9243 17.6358 13.9315 17.6324 13.9673 17.5745L14.0102 17.5131H14.4218C14.7403 17.5131 14.8334 17.5165 14.8334 17.5268C14.8227 17.5233 14.7761 17.6904 14.7225 17.8813Z" fill="white"/>
<path d="M21.852 13.989C21.8449 13.8356 21.8306 13.6209 21.8198 13.5152C21.6659 11.9677 21.2508 10.7031 20.4634 9.36354C20.4312 9.31241 20.4025 9.26128 20.3846 9.22038C20.3775 9.21016 20.3739 9.19993 20.3703 9.19311C20.4813 8.87612 20.9358 7.55018 21.2973 6.03336C21.7876 3.97458 22.099 1.56812 21.147 0.845505C21.147 0.845505 19.5006 0.729613 17.2959 2.78839C16.6983 3.35763 16.1507 3.97458 15.6639 4.63244L15.51 4.58471C14.6224 4.30862 13.7026 4.13819 12.7757 4.08025C12.4965 4.05979 11.455 4.05979 11.115 4.08025C10.0878 4.14501 9.30044 4.29158 8.40568 4.58812C8.36989 4.60176 8.33768 4.61198 8.30547 4.62221C7.80083 3.96776 7.23892 3.35422 6.61976 2.7918C4.32561 0.722796 2.61842 0.842096 2.61842 0.842096C1.60914 1.58857 1.95273 4.10411 2.47526 6.23106C2.81885 7.6388 3.24117 8.87612 3.39865 9.32264C3.38791 9.3465 3.37359 9.37377 3.35928 9.39763C2.52537 11.0065 2.07441 12.5574 1.96704 14.2071C2.90116 14.0776 5.47447 13.931 7.40356 15.908C7.40356 15.908 8.67769 12.7039 12.1135 12.7039C15.5494 12.7039 16.2831 15.908 16.2831 15.908C18.5593 14.1185 21.011 14.1765 21.8699 14.2617C21.8663 14.1935 21.8592 14.0912 21.852 13.989ZM4.07508 8.03761C4.07508 8.03761 2.73653 4.85058 3.08011 3.0304C3.13738 2.72363 3.24475 2.45435 3.41296 2.24984C3.41296 2.24984 4.93046 2.393 7.3785 4.98352C7.3785 4.98352 6.91324 5.19826 6.29049 5.65501C6.29049 5.65501 6.28691 5.65842 6.28333 5.65842C5.60689 6.15266 4.74078 6.93663 4.07508 8.03761ZM9.75497 12.7721C9.7335 12.813 9.62612 12.8573 9.50444 12.8744C9.38275 12.8914 9.01054 12.8812 8.79938 12.8573C8.04062 12.7619 7.23535 12.5403 6.64839 12.2677C6.31912 12.1143 6.0829 11.9609 5.90753 11.7939L5.80732 11.695L5.79658 11.5655C5.77869 11.3405 5.78227 10.986 5.8109 10.8599C5.8288 10.7542 5.86816 10.652 5.92185 10.56C5.95048 10.5259 5.95048 10.5259 6.07933 10.5259C6.2368 10.5259 6.36923 10.5497 6.58397 10.6145C7.02418 10.744 7.67914 11.0576 8.47726 11.5144C9.1358 11.8893 9.38275 12.0734 9.57244 12.3256C9.70128 12.4824 9.78718 12.7039 9.75497 12.7721ZM18.1871 11.6439C18.1764 11.6984 18.0082 11.862 17.84 11.9813C17.3461 12.3256 16.462 12.646 15.5637 12.7994C15.0519 12.888 14.5401 12.9016 14.3862 12.8301C14.286 12.7823 14.2717 12.7449 14.3075 12.6221C14.3826 12.3665 14.626 12.087 15.0054 11.8245C15.1986 11.6916 15.9825 11.2383 16.3475 11.0474C16.9488 10.7338 17.4355 10.5463 17.7648 10.502C17.8686 10.4884 17.9939 10.485 18.0332 10.502C18.0976 10.5259 18.1692 10.7065 18.1979 10.9247C18.2122 11.0406 18.205 11.5519 18.1871 11.6439ZM17.593 5.65501L17.5858 5.6516C16.9846 5.19485 16.5336 4.98011 16.5336 4.98011C18.8993 2.38959 20.3632 2.24643 20.3632 2.24643C20.5242 2.45435 20.628 2.72022 20.6853 3.02699C21.0181 4.84718 19.7261 8.03761 19.7261 8.03761C19.1857 7.1207 18.4591 6.30946 17.593 5.65501Z" fill="#FFA409"/>
<path d="M20.6887 3.02666C20.4095 2.99257 19.0889 2.98576 17.5928 5.65468L17.5857 5.65127C16.9844 5.19452 16.5334 4.97978 16.5334 4.97978C18.8992 2.38925 20.363 2.24609 20.363 2.24609C20.5276 2.45402 20.6314 2.71989 20.6887 3.02666Z" fill="#FF9300"/>
<path d="M19.7302 8.03692C19.1862 7.1166 18.4632 6.30877 17.5935 5.65432C19.0895 2.9854 20.4066 2.99222 20.6893 3.0263C21.0222 4.84989 19.7302 8.03692 19.7302 8.03692Z" fill="#FF8300"/>
<path d="M20.7429 3.03759C20.725 3.03401 20.7071 3.03043 20.6892 3.02686L20.7429 3.03759Z" fill="#FF8300"/>
<path d="M7.37863 4.97978C7.37863 4.97978 6.91336 5.19452 6.29061 5.65127C6.29061 5.65127 6.28703 5.65468 6.28345 5.65468C4.73374 2.98235 3.37014 2.99257 3.07666 3.02666C3.13392 2.71989 3.2413 2.45061 3.40951 2.24609C3.41309 2.24609 4.93059 2.38925 7.37863 4.97978Z" fill="#FF9300"/>
<path d="M6.28639 5.65432C5.60638 6.15197 4.74026 6.93254 4.07456 8.03692C4.07456 8.03692 2.73601 4.84989 3.07959 3.0263C3.36949 2.99222 4.73668 2.9854 6.28639 5.65432Z" fill="#FF8300"/>
<path d="M3.07997 3.02637C3.06207 3.02995 3.0406 3.03352 3.02271 3.0371L3.07997 3.02637Z" fill="#FF8300"/>
<path d="M16.1078 9.80697C16.1078 9.80697 14.9625 9.87514 15.1056 9.023C15.2488 8.17086 16.1436 8.06861 16.3941 8.10269C16.6446 8.13678 17.6467 8.47763 17.4678 9.19343C17.2888 9.90923 17.0383 9.77288 16.8951 9.80697C16.752 9.84105 16.1078 9.80697 16.1078 9.80697Z" fill="white"/>
<path d="M7.66074 9.80697C7.66074 9.80697 6.51546 9.87514 6.65862 9.023C6.80178 8.17086 7.69653 8.06861 7.94706 8.10269C8.19759 8.13678 9.19971 8.47763 9.02076 9.19343C8.84181 9.90923 8.59128 9.77288 8.44812 9.80697C8.30496 9.84105 7.66074 9.80697 7.66074 9.80697Z" fill="white"/>
</svg>
