<svg width="32" height="32" viewBox="0 0 32 32" fill="none" xmlns="http://www.w3.org/2000/svg">
<circle opacity="0.1" cx="16" cy="16" r="16" fill="#10C684"/>
<mask id="path-2-inside-1_627_41255" fill="white">
<path d="M22.8545 20.8611V21.8333H9.72952L9.24341 21.3472V10.1666H10.2156V20.8611H22.8545Z"/>
</mask>
<path d="M22.8545 20.8611H23.8267V19.8888H22.8545V20.8611ZM22.8545 21.8333V22.8055H23.8267V21.8333H22.8545ZM9.72952 21.8333L9.04205 22.5208L9.32681 22.8055H9.72952V21.8333ZM9.24341 21.3472H8.27119V21.7499L8.55594 22.0346L9.24341 21.3472ZM9.24341 10.1666V9.1944H8.27119V10.1666H9.24341ZM10.2156 10.1666H11.1879V9.1944H10.2156V10.1666ZM10.2156 20.8611H9.24341V21.8333H10.2156V20.8611ZM21.8823 20.8611V21.8333H23.8267V20.8611H21.8823ZM22.8545 20.8611H9.72952V22.8055H22.8545V20.8611ZM10.417 21.1458L9.93087 20.6597L8.55594 22.0346L9.04205 22.5208L10.417 21.1458ZM10.2156 21.3472V10.1666H8.27119V21.3472H10.2156ZM9.24341 11.1388H10.2156V9.1944H9.24341V11.1388ZM9.24341 10.1666V20.8611H11.1879V10.1666H9.24341ZM10.2156 21.8333H22.8545V19.8888H10.2156V21.8333Z" fill="#10C684" mask="url(#path-2-inside-1_627_41255)"/>
<path d="M20.91 11.3401L15.9069 16.3441H15.2186L13.6183 14.7429L10.0736 18.2886L9.38525 17.6003L13.2741 13.7114H13.9625L15.5628 15.3126L20.5658 10.3086H21.2532L23.1976 12.253L22.5103 12.9414L20.91 11.3401Z" fill="#10C684"/>
</svg>
