<svg width="80" height="16" viewBox="0 0 80 16" fill="none" xmlns="http://www.w3.org/2000/svg">
<path d="M7.57827 1.9205C7.45144 1.99939 7.34924 2.11221 7.28322 2.24618L5.73922 5.37498L2.28562 5.87658C2.13786 5.89804 1.99905 5.96042 1.8849 6.05666C1.77075 6.15291 1.68582 6.27918 1.6397 6.42119C1.59358 6.5632 1.58813 6.71528 1.62396 6.86023C1.65978 7.00518 1.73546 7.1372 1.84242 7.24138L4.34162 9.67658L3.75202 13.1166C3.72692 13.2636 3.74341 13.4147 3.79964 13.5528C3.85587 13.691 3.94959 13.8106 4.07023 13.8983C4.19087 13.986 4.33361 14.0382 4.48236 14.0491C4.6311 14.06 4.77992 14.029 4.91202 13.9598L8.00162 12.3358L11.0896 13.9598C11.2217 14.0292 11.3707 14.0604 11.5195 14.0496C11.6684 14.0389 11.8113 13.9867 11.9321 13.8989C12.0528 13.8112 12.1467 13.6915 12.2029 13.5532C12.2592 13.4149 12.2756 13.2637 12.2504 13.1166L11.66 9.67738L14.1592 7.24138C14.2662 7.1372 14.3419 7.00518 14.3777 6.86023C14.4135 6.71528 14.4081 6.5632 14.3619 6.42119C14.3158 6.27918 14.2309 6.15291 14.1167 6.05666C14.0026 5.96042 13.8638 5.89804 13.716 5.87658L10.2624 5.37498L8.71842 2.24618C8.6524 2.11221 8.55019 1.99939 8.42337 1.9205C8.29655 1.84162 8.15017 1.7998 8.00082 1.7998C7.85146 1.7998 7.70509 1.84162 7.57827 1.9205Z" fill="#FFB74D"/>
<path d="M23.5783 1.9205C23.4514 1.99939 23.3492 2.11221 23.2832 2.24618L21.7392 5.37498L18.2856 5.87658C18.1379 5.89804 17.9991 5.96042 17.8849 6.05666C17.7708 6.15291 17.6858 6.27918 17.6397 6.42119C17.5936 6.5632 17.5881 6.71528 17.624 6.86023C17.6598 7.00518 17.7355 7.1372 17.8424 7.24138L20.3416 9.67658L19.752 13.1166C19.7269 13.2636 19.7434 13.4147 19.7996 13.5528C19.8559 13.691 19.9496 13.8106 20.0702 13.8983C20.1909 13.986 20.3336 14.0382 20.4824 14.0491C20.6311 14.06 20.7799 14.029 20.912 13.9598L24.0016 12.3358L27.0896 13.9598C27.2217 14.0292 27.3707 14.0604 27.5195 14.0496C27.6684 14.0389 27.8113 13.9867 27.9321 13.8989C28.0528 13.8112 28.1467 13.6915 28.2029 13.5532C28.2592 13.4149 28.2756 13.2637 28.2504 13.1166L27.66 9.67738L30.1592 7.24138C30.2662 7.1372 30.3419 7.00518 30.3777 6.86023C30.4135 6.71528 30.4081 6.5632 30.3619 6.42119C30.3158 6.27918 30.2309 6.15291 30.1167 6.05666C30.0026 5.96042 29.8638 5.89804 29.716 5.87658L26.2624 5.37498L24.7184 2.24618C24.6524 2.11221 24.5502 1.99939 24.4234 1.9205C24.2965 1.84162 24.1502 1.7998 24.0008 1.7998C23.8515 1.7998 23.7051 1.84162 23.5783 1.9205Z" fill="#FFB74D"/>
<path d="M39.5783 1.9205C39.4514 1.99939 39.3492 2.11221 39.2832 2.24618L37.7392 5.37498L34.2856 5.87658C34.1379 5.89804 33.9991 5.96042 33.8849 6.05666C33.7708 6.15291 33.6858 6.27918 33.6397 6.42119C33.5936 6.5632 33.5881 6.71528 33.624 6.86023C33.6598 7.00518 33.7355 7.1372 33.8424 7.24138L36.3416 9.67658L35.752 13.1166C35.7269 13.2636 35.7434 13.4147 35.7996 13.5528C35.8559 13.691 35.9496 13.8106 36.0702 13.8983C36.1909 13.986 36.3336 14.0382 36.4824 14.0491C36.6311 14.06 36.7799 14.029 36.912 13.9598L40.0016 12.3358L43.0896 13.9598C43.2217 14.0292 43.3707 14.0604 43.5195 14.0496C43.6684 14.0389 43.8113 13.9867 43.9321 13.8989C44.0528 13.8112 44.1467 13.6915 44.2029 13.5532C44.2592 13.4149 44.2756 13.2637 44.2504 13.1166L43.66 9.67738L46.1592 7.24138C46.2662 7.1372 46.3419 7.00518 46.3777 6.86023C46.4135 6.71528 46.4081 6.5632 46.3619 6.42119C46.3158 6.27918 46.2309 6.15291 46.1167 6.05666C46.0026 5.96042 45.8638 5.89804 45.716 5.87658L42.2624 5.37498L40.7184 2.24618C40.6524 2.11221 40.5502 1.99939 40.4234 1.9205C40.2965 1.84162 40.1502 1.7998 40.0008 1.7998C39.8515 1.7998 39.7051 1.84162 39.5783 1.9205Z" fill="#FFB74D"/>
<path d="M55.5778 1.9205C55.451 1.99939 55.3487 2.11221 55.2827 2.24618L53.7387 5.37498L50.2851 5.87658C50.1374 5.89804 49.9986 5.96042 49.8844 6.05666C49.7703 6.15291 49.6853 6.27918 49.6392 6.42119C49.5931 6.5632 49.5876 6.71528 49.6235 6.86023C49.6593 7.00518 49.735 7.1372 49.8419 7.24138L52.3411 9.67658L51.7515 13.1166C51.7264 13.2636 51.7429 13.4147 51.7992 13.5528C51.8554 13.691 51.9491 13.8106 52.0697 13.8983C52.1904 13.986 52.3331 14.0382 52.4819 14.0491C52.6306 14.06 52.7794 14.029 52.9115 13.9598L56.0011 12.3358L59.0891 13.9598C59.2212 14.0292 59.3702 14.0604 59.519 14.0496C59.6679 14.0389 59.8108 13.9867 59.9316 13.8989C60.0524 13.8112 60.1462 13.6915 60.2024 13.5532C60.2587 13.4149 60.2751 13.2637 60.2499 13.1166L59.6595 9.67738L62.1587 7.24138C62.2657 7.1372 62.3414 7.00518 62.3772 6.86023C62.413 6.71528 62.4076 6.5632 62.3614 6.42119C62.3153 6.27918 62.2304 6.15291 62.1162 6.05666C62.0021 5.96042 61.8633 5.89804 61.7155 5.87658L58.2619 5.37498L56.7179 2.24618C56.6519 2.11221 56.5497 1.99939 56.4229 1.9205C56.2961 1.84162 56.1497 1.7998 56.0003 1.7998C55.851 1.7998 55.7046 1.84162 55.5778 1.9205Z" fill="#FFB74D" fill-opacity="0.2"/>
<path d="M71.5778 1.9205C71.451 1.99939 71.3487 2.11221 71.2827 2.24618L69.7387 5.37498L66.2851 5.87658C66.1374 5.89804 65.9986 5.96042 65.8844 6.05666C65.7703 6.15291 65.6853 6.27918 65.6392 6.42119C65.5931 6.5632 65.5876 6.71528 65.6235 6.86023C65.6593 7.00518 65.735 7.1372 65.8419 7.24138L68.3411 9.67658L67.7515 13.1166C67.7264 13.2636 67.7429 13.4147 67.7992 13.5528C67.8554 13.691 67.9491 13.8106 68.0697 13.8983C68.1904 13.986 68.3331 14.0382 68.4819 14.0491C68.6306 14.06 68.7794 14.029 68.9115 13.9598L72.0011 12.3358L75.0891 13.9598C75.2212 14.0292 75.3702 14.0604 75.519 14.0496C75.6679 14.0389 75.8108 13.9867 75.9316 13.8989C76.0524 13.8112 76.1462 13.6915 76.2024 13.5532C76.2587 13.4149 76.2751 13.2637 76.2499 13.1166L75.6595 9.67738L78.1587 7.24138C78.2657 7.1372 78.3414 7.00518 78.3772 6.86023C78.413 6.71528 78.4076 6.5632 78.3614 6.42119C78.3153 6.27918 78.2304 6.15291 78.1162 6.05666C78.0021 5.96042 77.8633 5.89804 77.7155 5.87658L74.2619 5.37498L72.7179 2.24618C72.6519 2.11221 72.5497 1.99939 72.4229 1.9205C72.2961 1.84162 72.1497 1.7998 72.0003 1.7998C71.851 1.7998 71.7046 1.84162 71.5778 1.9205Z" fill="#FFB74D" fill-opacity="0.2"/>
</svg>
