<svg width="15" height="16" viewBox="0 0 15 16" fill="none" xmlns="http://www.w3.org/2000/svg">
<path d="M7.6348 0.0135007C8.50734 0 9.37489 0.00800043 10.2414 0C10.2939 1.02055 10.661 2.06011 11.408 2.78165C12.1535 3.52119 13.2081 3.85971 14.2341 3.97421V6.65886C13.2726 6.62735 12.3065 6.42734 11.434 6.01332C11.054 5.84131 10.7 5.6198 10.3534 5.39329C10.3489 7.34139 10.3614 9.287 10.3409 11.2271C10.2889 12.1591 9.98142 13.0867 9.43939 13.8547C8.56735 15.1333 7.05377 15.9669 5.49918 15.9929C4.54563 16.0474 3.59308 15.7873 2.78054 15.3083C1.43397 14.5143 0.486416 13.0607 0.348409 11.5006C0.331026 11.1702 0.328356 10.8392 0.340409 10.5086C0.460415 9.23999 1.08795 8.02643 2.062 7.20088C3.16606 6.23933 4.71264 5.78131 6.16072 6.05232C6.17422 7.03988 6.13472 8.02643 6.13472 9.01398C5.47318 8.79997 4.70014 8.85997 4.12211 9.26149C3.69921 9.54009 3.37962 9.94999 3.21256 10.4281C3.07455 10.7661 3.11406 11.1416 3.12206 11.5006C3.28057 12.5947 4.33262 13.5142 5.45568 13.4147C6.20022 13.4067 6.91376 12.9747 7.30178 12.3422C7.42729 12.1206 7.56779 11.8941 7.57529 11.6336C7.6408 10.4411 7.6148 9.25349 7.6228 8.06093C7.6283 5.37329 7.6148 2.69314 7.6353 0.0140007L7.6348 0.0135007Z" fill="#ADD7F5"/>
</svg>
