<svg width="15" height="16" viewBox="0 0 15 16" fill="none" xmlns="http://www.w3.org/2000/svg">
<path d="M7.63504 0.0135007C8.50759 0 9.37513 0.00800043 10.2417 0C10.2942 1.02055 10.6612 2.06011 11.4082 2.78165C12.1538 3.52119 13.2083 3.85971 14.2344 3.97421V6.65886C13.2728 6.62735 12.3068 6.42734 11.4342 6.01332C11.0542 5.84131 10.7002 5.6198 10.3537 5.39329C10.3492 7.34139 10.3617 9.287 10.3412 11.2271C10.2892 12.1591 9.98167 13.0867 9.43964 13.8547C8.56759 15.1333 7.05401 15.9669 5.49943 15.9929C4.54588 16.0474 3.59333 15.7873 2.78078 15.3083C1.43421 14.5143 0.486661 13.0607 0.348653 11.5006C0.33127 11.1702 0.3286 10.8392 0.340653 10.5086C0.460659 9.23999 1.08819 8.02643 2.06224 7.20088C3.1663 6.23933 4.71289 5.78131 6.16096 6.05232C6.17446 7.03988 6.13496 8.02643 6.13496 9.01398C5.47343 8.79997 4.70039 8.85997 4.12235 9.26149C3.69945 9.54009 3.37987 9.94999 3.21281 10.4281C3.0748 10.7661 3.1143 11.1416 3.1223 11.5006C3.28081 12.5947 4.33287 13.5142 5.45593 13.4147C6.20047 13.4067 6.914 12.9747 7.30202 12.3422C7.42753 12.1206 7.56804 11.8941 7.57554 11.6336C7.64104 10.4411 7.61504 9.25349 7.62304 8.06093C7.62854 5.37329 7.61504 2.69314 7.63554 0.0140007L7.63504 0.0135007Z" fill="#ABABAB"/>
</svg>
