<?xml version="1.0" encoding="utf-8"?>
<!-- Generator: Adobe Illustrator 23.0.1, SVG Export Plug-In . SVG Version: 6.00 Build 0)  -->
<svg version="1.1" id="Layer_1" xmlns="http://www.w3.org/2000/svg" xmlns:xlink="http://www.w3.org/1999/xlink" x="0px" y="0px"
	 viewBox="0 0 16 16" style="enable-background:new 0 0 16 16;" xml:space="preserve">
<style type="text/css">
	.st0{fill-rule:evenodd;clip-rule:evenodd;fill:#373737;}
</style>
<path class="st0" d="M14,8c0,3.3-2.7,6-6,6c-3.3,0-6-2.7-6-6c0-3.3,2.7-6,6-6C11.3,2,14,4.7,14,8z M14.7,8c0,3.7-3,6.7-6.7,6.7
	c-3.7,0-6.7-3-6.7-6.7c0-3.7,3-6.7,6.7-6.7C11.7,1.3,14.7,4.3,14.7,8z M7.3,4.7H8v4h2v0.7H8v0H7.3v0h0V8.7h0V4.7z"/>
</svg>
