<svg width="24" height="24" viewBox="0 0 24 24" fill="none" xmlns="http://www.w3.org/2000/svg">
<path fill-rule="evenodd" clip-rule="evenodd" d="M8.45584 15.505C8.44484 15.497 8.42886 15.491 8.41586 15.484L5.83887 17.17C7.98987 20.116 12.1029 20.625 14.4459 19.647L13.0709 16.814C11.0349 17.158 10.2868 16.903 8.45584 15.505Z" fill="white"/>
<path fill-rule="evenodd" clip-rule="evenodd" d="M10.6466 7.686L10.5216 4.49301C8.02056 4.94701 6.27756 6.2 5.04756 8.375C3.85956 10.478 3.71455 12.64 4.49455 14.892L7.34856 13.522C6.79156 10.668 7.87456 8.744 10.6466 7.686Z" fill="white"/>
<path fill-rule="evenodd" clip-rule="evenodd" d="M16.3667 10.674L19.4807 10.295C18.8027 7.30301 15.9227 4.718 13.0727 4.492L13.0537 7.646C14.6457 8.111 15.7407 9.13101 16.3667 10.674Z" fill="white"/>
<path fill-rule="evenodd" clip-rule="evenodd" d="M19.7436 12.716L16.6366 12.783C16.6256 12.81 16.6106 12.838 16.6066 12.862C16.4076 14.065 15.9726 14.903 15.0596 15.745L16.7306 18.386C18.5066 16.885 19.6376 15.128 19.7436 12.716Z" fill="white"/>
</svg>
