<svg width="16" height="13" viewBox="0 0 16 13" fill="none" xmlns="http://www.w3.org/2000/svg">
<path d="M5.026 12.9997C11.064 12.9997 14.367 7.99672 14.367 3.66572C14.367 3.52572 14.367 3.38372 14.361 3.24372C15.0041 2.7782 15.5591 2.20187 16 1.54172C15.3993 1.80657 14.7628 1.98112 14.111 2.05972C14.7975 1.64935 15.3117 1.00369 15.558 0.242717C14.913 0.624841 14.207 0.89309 13.471 1.03572C12.9762 0.50874 12.3214 0.159634 11.6081 0.0424741C10.8948 -0.0746862 10.1627 0.046638 9.52534 0.387654C8.88796 0.72867 8.38081 1.27035 8.08245 1.92878C7.78409 2.58721 7.71118 3.32565 7.875 4.02972C6.56974 3.96427 5.29282 3.62518 4.12704 3.03446C2.96127 2.44373 1.93268 1.61456 1.108 0.600717C0.68934 1.3238 0.561574 2.17912 0.750646 2.99298C0.939718 3.80685 1.43145 4.51825 2.126 4.98272C1.60554 4.96503 1.09652 4.82528 0.64 4.57472V4.61972C0.640897 5.3772 0.903307 6.11114 1.38287 6.69748C1.86244 7.28382 2.52975 7.68659 3.272 7.83772C2.99026 7.91533 2.69923 7.95402 2.407 7.95272C2.20098 7.95334 1.99538 7.93426 1.793 7.89572C2.00279 8.54777 2.41127 9.11788 2.96125 9.52619C3.51122 9.93451 4.17513 10.1606 4.86 10.1727C3.69656 11.0865 2.2594 11.5821 0.78 11.5797C0.519321 11.5808 0.258823 11.5658 0 11.5347C1.50151 12.492 3.2453 13.0003 5.026 12.9997Z" fill="#ABABAB"/>
</svg>
