<svg width="14" height="12" viewBox="0 0 14 12" fill="none" xmlns="http://www.w3.org/2000/svg">
<path d="M13.3269 2.93997C13.2676 4.24038 12.361 6.02105 10.6077 8.28107C8.79486 10.6419 7.26111 11.8222 6.00644 11.8222C5.2295 11.8222 4.5715 11.1035 4.03443 9.66561C3.67549 8.3476 3.31695 7.02973 2.95815 5.71172C2.55908 4.27464 2.13121 3.55517 1.67374 3.55517C1.57401 3.55517 1.22494 3.76544 0.627337 4.18438L0 3.37464C0.658004 2.7953 1.30721 2.21609 1.94588 1.63609C2.82349 0.876219 3.48229 0.476616 3.92136 0.436216C4.9591 0.336349 5.59777 1.04702 5.8375 2.56836C6.09657 4.20971 6.27577 5.23065 6.37657 5.63025C6.67564 6.992 7.00471 7.672 7.36431 7.672C7.64338 7.672 8.06259 7.2304 8.62152 6.34719C9.17993 5.46372 9.479 4.79158 9.5194 4.32984C9.59886 3.56744 9.29966 3.1853 8.62152 3.1853C8.30232 3.1853 7.97325 3.2589 7.63472 3.40437C8.28992 1.25382 9.54193 0.209414 11.3899 0.269015C12.76 0.309282 13.4058 1.19955 13.3269 2.93997Z" fill="#ABABAB"/>
</svg>
