<svg id="Layer_1" data-name="Layer 1" xmlns="http://www.w3.org/2000/svg" viewBox="0 0 17 14.5"><defs><style>.cls-1{fill:#fff;}</style></defs><title>wallet</title><path class="cls-1" d="M16.11,6.15V5.5A2.59,2.59,0,0,0,14.18,3V1.92A1.92,1.92,0,0,0,12.26,0h-.1l-9,2.78a1.82,1.82,0,0,0-.58.13h0A2.59,2.59,0,0,0,0,5.5v6.42A2.59,2.59,0,0,0,2.58,14.5h11a2.59,2.59,0,0,0,2.58-2.58v-.86A1.38,1.38,0,0,0,17,9.77V7.44A1.39,1.39,0,0,0,16.11,6.15Zm-.45,3.62a0,0,0,0,1,0,.05H12A0,0,0,0,1,12,9.77V7.44a0,0,0,0,1,.05,0h3.62a0,0,0,0,1,0,0ZM12.34,1.34a.58.58,0,0,1,.5.58v1H7.28Zm1.19,11.82H2.58a1.25,1.25,0,0,1-1.24-1.25V5.5A1.25,1.25,0,0,1,2.58,4.25h11A1.25,1.25,0,0,1,14.78,5.5v.56H12a1.38,1.38,0,0,0-1.39,1.38V9.77A1.39,1.39,0,0,0,12,11.16h2.78v.76A1.25,1.25,0,0,1,13.53,13.16Z" transform="translate(0 0)"/></svg>