<?xml version="1.0" encoding="utf-8"?>
<!-- Generator: Adobe Illustrator 23.0.1, SVG Export Plug-In . SVG Version: 6.00 Build 0)  -->
<svg version="1.1" id="Layer_1" xmlns="http://www.w3.org/2000/svg" xmlns:xlink="http://www.w3.org/1999/xlink" x="0px" y="0px"
	 viewBox="0 0 24 24" style="enable-background:new 0 0 24 24;" xml:space="preserve">
<style type="text/css">
	.st0{fill:#FFFFFF;}
</style>
<path class="st0" d="M11.7,2.9c-4.9,0-8.8,3.9-8.8,8.8c0,2,0.7,3.9,1.8,5.4v0.1c0,0,0.1,0,0.1,0c1.6,2,4.1,3.3,6.9,3.3
	c2.8,0,5.4-1.3,7-3.4c0,0,0,0,0,0v0c1.2-1.5,1.8-3.4,1.8-5.4C20.6,6.8,16.6,2.9,11.7,2.9z M19.8,11.3h-4.4c0-1-0.1-2.1-0.4-3.1
	c1.3-0.2,2.5-0.4,3.6-0.7C19.3,8.6,19.8,9.9,19.8,11.3z M8.8,11.3c0-1,0.2-2.1,0.4-3.1c0.9,0.1,1.8,0.1,2.7,0.1c0.8,0,1.6,0,2.4-0.1
	c0.2,1,0.3,2,0.4,3.1H8.8z M14.7,12.1c0,1.1-0.2,2.3-0.5,3.4c-0.7-0.1-1.5-0.1-2.3-0.1c-0.9,0-1.8,0-2.7,0.1
	c-0.3-1.2-0.4-2.3-0.5-3.4L14.7,12.1L14.7,12.1z M18.2,6.8c-1,0.3-2.2,0.5-3.3,0.7c-0.3-1.2-0.8-2.4-1.4-3.7
	C15.4,4.2,17.1,5.3,18.2,6.8z M11.7,3.6c0.3,0,0.6,0,0.9,0.1c0.6,1.3,1.1,2.6,1.4,3.9c-0.7,0.1-1.5,0.1-2.2,0.1
	c-0.9,0-1.7,0-2.6-0.1c0.3-1.3,0.8-2.5,1.4-3.9C11.1,3.6,11.4,3.6,11.7,3.6z M10,3.8C9.4,5,8.9,6.3,8.6,7.4C7.5,7.3,6.4,7,5.4,6.7
	C6.5,5.3,8.1,4.2,10,3.8z M4.9,7.4C6,7.7,7.2,8,8.5,8.2c-0.2,1.1-0.4,2.1-0.4,3.2H3.7C3.7,9.9,4.2,8.5,4.9,7.4z M5.1,16.4
	c-0.9-1.2-1.4-2.7-1.5-4.3h4.4c0,1.2,0.2,2.4,0.5,3.5C7.3,15.8,6.2,16,5.1,16.4z M5.6,17c1-0.3,2-0.5,3.1-0.6
	c0.3,1.1,0.7,2.2,1.2,3.3C8.3,19.2,6.7,18.3,5.6,17z M10.8,19.7c-0.6-1.2-1-2.4-1.3-3.5c0.8-0.1,1.6-0.1,2.5-0.1
	c0.7,0,1.4,0,2.1,0.1c-0.3,1.1-0.8,2.3-1.4,3.5c-0.3,0-0.6,0.1-0.9,0.1C11.4,19.8,11.1,19.8,10.8,19.7z M13.5,19.6
	c0.5-1.1,0.9-2.2,1.3-3.3c1.1,0.1,2.2,0.3,3.2,0.6C16.8,18.2,15.3,19.2,13.5,19.6z M18.4,16.3c-1.1-0.3-2.2-0.6-3.5-0.7
	c0.3-1.1,0.4-2.3,0.5-3.5h4.4C19.8,13.6,19.3,15.1,18.4,16.3z"/>
</svg>
