<svg width="20" height="20" viewBox="0 0 20 20" fill="none" xmlns="http://www.w3.org/2000/svg">
<path fill-rule="evenodd" clip-rule="evenodd" d="M10 0C15.522 0 20 4.478 20 10C20 15.522 15.522 20 10 20C4.478 20 0 15.522 0 10C0 4.478 4.478 0 10 0Z" fill="black"/>
<path d="M6.08142 16L7.82301 12.9947L9.5646 10L11.2956 6.99471L11.5823 6.51852L12.2407 8.97355L11.646 10L9.90442 12.9947L8.17345 16H10.2549L12.8991 11.4392L13.3239 12.9947L14.131 16H16L14.3858 10L14.1735 9.22751L15.469 6.99471H13.5788L13.515 6.77249L12.7717 4H10.9558L10.9133 4.06349L7.47257 10L5.74159 12.9947L4 16H6.08142Z" fill="white"/>
</svg>
