<svg width="20" height="20" viewBox="0 0 20 20" fill="none" xmlns="http://www.w3.org/2000/svg">
<path fill-rule="evenodd" clip-rule="evenodd" d="M10 0C15.522 0 20 4.478 20 10C20 15.522 15.522 20 10 20C4.478 20 0 15.522 0 10C0 4.478 4.478 0 10 0Z" fill="#0055D5"/>
<path fill-rule="evenodd" clip-rule="evenodd" d="M5.44047 6.616C5.44047 6.616 4.36447 5.756 4.29047 7.88C4.21647 9.52599 4.21847 12.722 4.98047 14.232C5.30247 14.8 5.73247 14.626 6.53247 14.06C7.22847 13.546 9.74647 11.226 10.8125 10.208C11.8785 9.18999 14.0405 6.27 14.4905 8.25399C14.6685 9.08799 14.8885 9.79599 14.7205 11.646C14.6685 12.216 14.4245 12.648 13.3125 11.876C12.4725 11.336 11.6745 10.756 11.6745 10.756C11.6745 10.756 11.5205 10.48 11.1565 10.928C10.8705 11.286 10.7265 11.374 11.1845 11.646C11.6445 11.918 13.9705 13.522 14.8625 13.772C15.5985 13.986 16.0185 13.982 16.0405 12.536C16.0365 11.388 15.9705 8.102 15.5525 6.702C15.2365 5.83 14.7725 5.434 13.7705 6.414C12.7685 7.394 9.60847 10.458 7.88047 11.846C6.73447 12.706 6.24447 13.482 5.81247 12.048C5.50847 10.962 5.11447 7.582 6.35847 8.22599C7.13647 8.59799 7.52447 8.59599 7.22047 8.82999C6.91647 9.06199 6.04247 9.86399 6.04247 9.86399C6.04247 9.86399 5.77247 10.082 5.89847 10.554C6.02447 10.884 6.02447 11.048 6.70247 10.41C7.38047 9.77199 7.88047 9.28999 7.88047 9.28999C7.88047 9.28999 7.98847 9.11999 8.31047 9.43399C8.63247 9.74799 8.68447 9.83599 8.68447 9.83599C8.68447 9.83599 8.77047 10.07 9.11447 9.66399C9.46047 9.25799 9.68247 9.00999 9.02847 8.62999C8.37647 8.24599 5.44047 6.616 5.44047 6.616Z" fill="white"/>
</svg>
