<svg width="20" height="20" viewBox="0 0 20 20" fill="none" xmlns="http://www.w3.org/2000/svg">
<circle cx="10" cy="10" r="10" fill="#F3BA2F"/>
<g clip-path="url(#clip0_55:374)">
<path d="M7.67048 9.04252L10.0009 6.71218L12.3325 9.04372L13.6885 7.68772L10.0009 4L6.31454 7.68652L7.67048 9.04252ZM4.00098 9.99981L5.35702 8.64377L6.71297 9.99973L5.35694 11.3558L4.00098 9.99981ZM7.67048 10.9575L10.0009 13.2878L12.3324 10.9563L13.6891 12.3116L13.6885 12.3123L10.0009 16L6.31442 12.3136L6.3125 12.3117L7.67048 10.9575ZM13.289 10.0006L14.6451 8.64452L16.001 10.0005L14.645 11.3565L13.289 10.0006Z" fill="white"/>
<path d="M11.3751 9.99927H11.3757L9.99969 8.62329L8.98281 9.64017H8.98275L8.86593 9.75705L8.62497 9.99807L8.62305 9.99993L8.62497 10.0019L9.99969 11.3767L11.3757 10.0007L11.3763 9.99993L11.3751 9.99927Z" fill="white"/>
</g>
<defs>
<clipPath id="clip0_55:374">
<rect width="12" height="12" fill="white" transform="translate(4 4)"/>
</clipPath>
</defs>
</svg>
