<svg width="20" height="20" viewBox="0 0 20 20" fill="none" xmlns="http://www.w3.org/2000/svg">
<path d="M10 20C15.5228 20 20 15.5228 20 10C20 4.47715 15.5228 0 10 0C4.47715 0 0 4.47715 0 10C0 15.5228 4.47715 20 10 20Z" fill="#0AC18E"/>
<path d="M13.1192 6.64213C12.6167 5.50254 11.4619 5.25889 10.0482 5.49493L9.59385 3.73351L8.52279 4.01015L8.96949 5.7665C8.68776 5.83757 8.39842 5.89848 8.11162 5.9797L7.66492 4.23351L6.59386 4.51015L7.04817 6.27158C6.81721 6.33757 4.88574 6.83249 4.88574 6.83249L5.18016 7.9797C5.18016 7.9797 5.96696 7.75889 5.95934 7.77665C6.39589 7.66244 6.60147 7.88071 6.69792 8.0863L7.94665 12.9137C7.96187 13.0533 7.93649 13.2919 7.637 13.3731C7.65477 13.3833 6.85782 13.5736 6.85782 13.5736L6.97457 14.9112C6.97457 14.9112 8.88827 14.4213 9.13954 14.3579L9.59893 16.1396L10.67 15.8629L10.2106 14.0685C10.505 14 10.7918 13.9289 11.071 13.8553L11.5279 15.6396L12.5989 15.3629L12.1395 13.5838C13.7893 13.1827 14.9542 12.1421 14.7157 10.5508C14.5634 9.59137 13.5152 8.80457 12.6446 8.71574C13.1801 8.24112 13.4517 7.54823 13.1192 6.64213ZM12.604 10.8426C12.8172 12.4188 10.6268 12.6117 9.90349 12.802L9.27405 10.4442C9.99994 10.2538 12.2436 9.45432 12.604 10.8426ZM11.2842 7.63198C11.5101 9.033 9.637 9.19543 9.03294 9.35026L8.45934 7.21066C9.06593 7.06092 10.8248 6.33503 11.2842 7.63198Z" fill="white"/>
</svg>
