<svg width="20" height="20" viewBox="0 0 20 20" fill="none" xmlns="http://www.w3.org/2000/svg">
<circle cx="10" cy="10" r="10" fill="#F3BA2F"/>
<g clip-path="url(#clip0_55:442)">
<path d="M7.67048 9.04252L10.0009 6.71218L12.3325 9.04372L13.6885 7.68772L10.0009 4L6.31454 7.68652L7.67048 9.04252ZM4.00098 9.99981L5.35702 8.64377L6.71297 9.99973L5.35694 11.3558L4.00098 9.99981ZM7.67048 10.9575L10.0009 13.2878L12.3324 10.9563L13.6891 12.3116L13.6885 12.3123L10.0009 16L6.31442 12.3136L6.3125 12.3117L7.67048 10.9575ZM13.289 10.0006L14.6451 8.64452L16.001 10.0005L14.645 11.3565L13.289 10.0006Z" fill="white"/>
<path d="M11.3751 9.99927H11.3757L9.99969 8.62329L8.98281 9.64017H8.98275L8.86593 9.75705L8.62497 9.99807L8.62305 9.99993L8.62497 10.0019L9.99969 11.3767L11.3757 10.0007L11.3763 9.99993L11.3751 9.99927Z" fill="white"/>
</g>
<g clip-path="url(#clip1_55:442)">
<path d="M19.7 12.419C18.3644 17.7762 12.9385 21.0365 7.58067 19.7006C2.22505 18.365 -1.03527 12.9387 0.300984 7.58183C1.63598 2.22402 7.06192 -1.03661 12.4182 0.29902C17.7757 1.63464 21.0357 7.06152 19.7 12.419Z" fill="#F7931A"/>
<path d="M14.4091 8.57534C14.6081 7.24472 13.595 6.52941 12.2097 6.05222L12.6591 4.24972L11.5619 3.97628L11.1244 5.73128C10.8359 5.65941 10.5397 5.59159 10.2453 5.52441L10.6859 3.75784L9.58938 3.48441L9.13969 5.28628C8.90094 5.23191 8.66656 5.17816 8.43906 5.12159L8.44031 5.11597L6.92719 4.73816L6.63531 5.91003C6.63531 5.91003 7.44938 6.09659 7.43219 6.10816C7.87656 6.21909 7.95687 6.51316 7.94344 6.74628L7.43156 8.79972C7.46219 8.80753 7.50187 8.81878 7.54562 8.83628C7.50906 8.82722 7.47 8.81722 7.42969 8.80753L6.71219 11.6841C6.65781 11.8191 6.52 12.0216 6.20938 11.9447C6.22031 11.9607 5.41188 11.7457 5.41188 11.7457L4.86719 13.0016L6.295 13.3575C6.56063 13.4241 6.82094 13.4938 7.07719 13.5594L6.62312 15.3825L7.71906 15.656L8.16875 13.8522C8.46813 13.9335 8.75875 14.0085 9.04312 14.0791L8.595 15.8744L9.69219 16.1478L10.1463 14.3282C12.0172 14.6822 13.4241 14.5394 14.0163 12.8472C14.4934 11.4847 13.9925 10.6988 13.0081 10.1863C13.725 10.021 14.265 9.54941 14.4091 8.57534ZM11.9022 12.0907C11.5631 13.4532 9.26906 12.7166 8.52531 12.5319L9.12781 10.1166C9.87156 10.3022 12.2566 10.6697 11.9022 12.0907ZM12.2416 8.55566C11.9322 9.79503 10.0228 9.16534 9.40344 9.01097L9.94969 6.82034C10.5691 6.97472 12.5637 7.26284 12.2416 8.55566Z" fill="white"/>
</g>
<defs>
<clipPath id="clip0_55:442">
<rect width="12" height="12" fill="white" transform="translate(4 4)"/>
</clipPath>
<clipPath id="clip1_55:442">
<rect width="20" height="20" fill="white"/>
</clipPath>
</defs>
</svg>
