<svg width="20" height="20" viewBox="0 0 20 20" fill="none" xmlns="http://www.w3.org/2000/svg">
<g clip-path="url(#clip0_55:423)">
<circle cx="10" cy="10" r="10" fill="#476593"/>
<path d="M9.82825 3.53828C10.1334 3.37917 10.5059 3.74828 10.3437 4.05313C10.2496 4.30163 9.89258 4.36771 9.71023 4.17829C9.51703 3.9965 9.58003 3.63719 9.82825 3.53828ZM6.54629 3.89206C6.73165 3.81576 6.9663 3.98558 6.9474 4.1876C6.96707 4.40691 6.69889 4.56833 6.50996 4.4641C6.25964 4.36715 6.28827 3.9608 6.54629 3.89206ZM13.2681 4.47026C12.9785 4.43526 12.9326 3.97984 13.2115 3.88814C13.4278 3.78265 13.6263 3.98047 13.6579 4.1855C13.6125 4.36057 13.466 4.52087 13.2681 4.47026ZM7.29306 5.28892C7.60295 5.09292 8.04514 5.38482 7.99747 5.74476C7.98137 6.1082 7.49865 6.31876 7.22628 6.07306C6.96294 5.88007 7.00284 5.43732 7.29306 5.28892ZM12.0237 5.49689C12.162 5.14059 12.7222 5.12981 12.8796 5.47666C13.0351 5.74658 12.8438 6.08083 12.5667 6.1726C12.1996 6.24113 11.8509 5.8443 12.0237 5.49689ZM9.43303 6.15237C9.43002 5.84612 9.70897 5.61792 10 5.59706C10.1931 5.63577 10.4035 5.71802 10.4863 5.91283C10.6407 6.18156 10.5036 6.55158 10.2247 6.67492C10.0972 6.74639 9.94641 6.71958 9.80753 6.71125C9.59522 6.60702 9.41644 6.40262 9.43303 6.15237ZM4.55227 6.59862C4.83535 6.4246 5.21727 6.74219 5.1101 7.0497C5.05109 7.3157 4.69353 7.42392 4.48913 7.2541C4.27094 7.09499 4.30552 6.71244 4.55227 6.59862ZM15.0331 6.59806C15.2732 6.41158 15.6696 6.6255 15.6409 6.92874C15.657 7.20524 15.3144 7.41377 15.076 7.27139C14.8134 7.15337 14.7866 6.7494 15.0331 6.59806ZM10.8056 7.14861C11.2019 7.00623 11.6727 7.17661 11.8986 7.52997C12.1966 7.96195 12.038 8.61981 11.5756 8.86768C11.0964 9.16084 10.3968 8.91234 10.2198 8.37726C10.0189 7.89824 10.3116 7.29876 10.8056 7.14861ZM8.48019 7.19572C8.91944 6.98838 9.51059 7.16233 9.72276 7.61166C9.97246 8.04902 9.7794 8.65803 9.333 8.88385C8.88605 9.13767 8.25549 8.94524 8.03919 8.47568C7.79664 8.02158 8.01203 7.40481 8.48019 7.19572ZM6.15177 7.99176C6.18516 7.70875 6.45214 7.52458 6.72151 7.50554C7.01173 7.54054 7.24357 7.76594 7.27514 8.05966C7.2561 8.35045 7.0314 8.63465 6.72326 8.6329C6.38424 8.66209 6.08702 8.32483 6.15177 7.99176ZM13.0292 7.56707C13.3772 7.36449 13.8605 7.6594 13.845 8.05925C13.8689 8.48289 13.334 8.78144 12.9874 8.53294C12.6274 8.32602 12.6555 7.74326 13.0292 7.56707ZM7.53386 9.06018C7.94091 8.94818 8.40634 9.14005 8.60598 9.5142C8.82466 9.8908 8.73527 10.414 8.39563 10.6902C7.96002 11.0954 7.15663 10.9327 6.92479 10.3798C6.65837 9.87288 6.98198 9.1936 7.53386 9.06018ZM11.9445 9.05808C12.3402 8.94489 12.8051 9.09742 13.0178 9.45792C13.2991 9.87022 13.1648 10.4852 12.7461 10.751C12.3075 11.0596 11.628 10.8975 11.3867 10.415C11.0941 9.91579 11.3885 9.21033 11.9445 9.05808ZM4.91578 9.52848C5.26739 9.39548 5.65715 9.78349 5.5147 10.1321C5.42769 10.4497 4.98011 10.5671 4.7489 10.3329C4.47835 10.1131 4.57852 9.62382 4.91578 9.52848ZM14.4463 10.0344C14.4362 9.74303 14.6493 9.48501 14.9481 9.46891C15.1889 9.50706 15.423 9.70131 15.404 9.96346C15.426 10.3097 15.0088 10.545 14.7139 10.3823C14.5756 10.3121 14.5047 10.1702 14.4463 10.0344ZM3.18691 9.69949C3.39845 9.60716 3.66012 9.79049 3.61182 10.0254C3.60048 10.2914 3.20777 10.3937 3.0635 10.1714C2.93603 10.0171 3.01233 9.77908 3.18691 9.69949ZM16.525 9.69417C16.6739 9.58812 16.9129 9.66435 16.9719 9.83837C17.072 10.0284 16.8885 10.2888 16.6746 10.2567C16.3743 10.2841 16.2771 9.8264 16.525 9.69417ZM8.68284 10.971C9.23948 10.8263 9.83784 11.2905 9.84134 11.8636C9.87768 12.4428 9.28834 12.9564 8.71854 12.8226C8.2781 12.7517 7.93251 12.3274 7.94679 11.8824C7.9456 11.4567 8.26683 11.0611 8.68284 10.971ZM10.8873 10.9699C11.4523 10.8119 12.0685 11.2844 12.0595 11.8708C12.0893 12.4393 11.5184 12.9356 10.9605 12.8228C10.4355 12.7549 10.0481 12.1781 10.1947 11.6687C10.2687 11.3292 10.5523 11.0531 10.8873 10.9699ZM6.63695 11.3227C7.0279 11.2559 7.39442 11.6921 7.23587 12.0633C7.12023 12.4589 6.54454 12.5662 6.29002 12.2431C5.99147 11.9328 6.21435 11.3655 6.63695 11.3227ZM13.1018 11.3401C13.4504 11.1941 13.8783 11.4956 13.8515 11.874C13.8655 12.2905 13.3372 12.5777 12.9963 12.3346C12.6102 12.1163 12.6805 11.474 13.1018 11.3401ZM14.9088 13.1525C14.7723 12.8981 15.0202 12.5608 15.3028 12.6079C15.4434 12.6055 15.5417 12.7164 15.6318 12.8093C15.6502 12.9601 15.6813 13.14 15.5561 13.2562C15.3861 13.4713 15.0011 13.4099 14.9088 13.1525ZM4.55108 12.6788C4.81512 12.503 5.19508 12.7652 5.13572 13.0739C5.10415 13.3469 4.76024 13.5029 4.53372 13.348C4.29061 13.2073 4.29957 12.8069 4.55108 12.6788ZM9.76749 13.2503C10.1132 13.0977 10.5535 13.3987 10.5208 13.7794C10.5464 14.2001 10.0017 14.4914 9.66375 14.2388C9.28834 14.0219 9.35092 13.3837 9.76749 13.2503ZM7.35144 13.8139C7.64586 13.659 8.04094 13.9265 8.01413 14.256C8.02309 14.5266 7.75905 14.7571 7.49207 14.7172C7.27094 14.7124 7.12674 14.5142 7.05583 14.3257C7.05947 14.1202 7.14403 13.8914 7.35144 13.8139ZM12.2454 13.8187C12.5482 13.6315 12.9785 13.9003 12.9498 14.2527C12.9576 14.6209 12.4713 14.8568 12.1894 14.6149C11.9165 14.4253 11.9498 13.9694 12.2454 13.8187ZM13.0965 15.9227C12.9618 15.7189 13.1204 15.4734 13.339 15.4269C13.5149 15.4627 13.7008 15.5949 13.6638 15.7987C13.6382 16.0746 13.2347 16.1593 13.0965 15.9227ZM6.3407 15.7457C6.39432 15.5842 6.52424 15.4237 6.71437 15.4657C6.9915 15.4854 7.07375 15.903 6.8312 16.0318C6.61308 16.1789 6.36002 15.9775 6.3407 15.7457ZM9.59998 15.931C9.65304 15.6921 9.96231 15.5759 10.1661 15.7028C10.3008 15.7606 10.3402 15.9113 10.3747 16.0394C10.3563 16.1061 10.3397 16.1729 10.3235 16.2396C10.2401 16.3385 10.1328 16.4374 9.99395 16.4339C9.73585 16.4641 9.50303 16.1723 9.59998 15.931Z" fill="white"/>
</g>
<defs>
<clipPath id="clip0_55:423">
<rect width="20" height="20" fill="white"/>
</clipPath>
</defs>
</svg>
