<svg width="20" height="20" viewBox="0 0 20 20" fill="none" xmlns="http://www.w3.org/2000/svg">
<path d="M10 20C15.5228 20 20 15.5228 20 10C20 4.47715 15.5228 0 10 0C4.47715 0 0 4.47715 0 10C0 15.5228 4.47715 20 10 20Z" fill="#2A5ADA"/>
<g clip-path="url(#clip0_63:296)">
<path d="M10.0688 3L8.7844 3.73853L5.2844 5.76147L4 6.5V13.5L5.2844 14.2385L8.81651 16.2615L10.1009 17L11.3853 16.2615L14.8532 14.2385L16.1376 13.5V6.5L14.8532 5.76147L11.3532 3.73853L10.0688 3ZM6.56881 12.0229V7.97706L10.0688 5.95413L13.5688 7.97706V12.0229L10.0688 14.0459L6.56881 12.0229Z" fill="white"/>
</g>
<defs>
<clipPath id="clip0_63:296">
<rect width="12.1376" height="14" fill="white" transform="translate(4 3)"/>
</clipPath>
</defs>
</svg>
