<svg width="20" height="20" viewBox="0 0 20 20" fill="none" xmlns="http://www.w3.org/2000/svg">
<path d="M10 20C15.5228 20 20 15.5228 20 10C20 4.47715 15.5228 0 10 0C4.47715 0 0 4.47715 0 10C0 15.5228 4.47715 20 10 20Z" fill="#2E3148"/>
<path d="M9.99975 15.8024C13.2044 15.8024 15.8022 13.2046 15.8022 9.99997C15.8022 6.79537 13.2044 4.19753 9.99975 4.19753C6.79512 4.19753 4.19727 6.79537 4.19727 9.99997C4.19727 13.2046 6.79512 15.8024 9.99975 15.8024Z" fill="#1B1E36"/>
<path d="M10.0199 1.27577C8.9404 1.27577 8.0651 5.19098 8.0651 10.0207C8.0651 14.8503 8.9404 18.7655 10.0199 18.7655C11.0993 18.7655 11.9747 14.8503 11.9747 10.0207C11.9747 5.19098 11.0993 1.27577 10.0199 1.27577ZM10.1548 18.272C10.0314 18.4367 9.90795 18.3131 9.90795 18.3131C9.41082 17.7371 9.16225 16.6671 9.16225 16.6671C8.2927 13.8687 8.49967 7.8605 8.49967 7.8605C8.90832 3.09057 9.65171 1.96377 9.90467 1.71361C9.93051 1.68808 9.96452 1.67248 10.0007 1.66955C10.0369 1.66663 10.073 1.67656 10.1026 1.69761C10.4697 1.95769 10.7775 3.04537 10.7775 3.04537C11.6866 6.41986 11.6042 9.58858 11.6042 9.58858C11.6866 12.3458 11.1487 15.4322 11.1487 15.4322C10.7347 17.7778 10.1548 18.272 10.1548 18.272Z" fill="#6F7390"/>
<path d="M17.6058 5.66872C17.0683 4.73208 13.2371 5.92136 9.04577 8.32472C4.85449 10.7281 1.89801 13.4358 2.43505 14.3721C2.97209 15.3083 6.80377 14.1194 10.9951 11.7161C15.1863 9.31272 18.1428 6.60496 17.6058 5.66872ZM2.93089 14.2436C2.72513 14.2177 2.77161 14.0486 2.77161 14.0486C3.02401 13.3309 3.82721 12.5827 3.82721 12.5827C5.82265 10.4358 11.1375 7.62552 11.1375 7.62552C15.4779 5.60616 16.826 5.69136 17.168 5.78552C17.2031 5.79532 17.2336 5.81722 17.2541 5.84736C17.2746 5.87749 17.2838 5.91391 17.28 5.95016C17.2389 6.39816 16.4467 7.20616 16.4467 7.20616C13.9737 9.67488 11.184 11.1806 11.184 11.1806C8.83337 12.6246 5.88857 13.6934 5.88857 13.6934C3.64785 14.5008 2.93089 14.2436 2.93089 14.2436Z" fill="#6F7390"/>
<path d="M17.5861 14.4032C18.1277 13.469 15.1787 10.7489 11.0022 8.32748C6.82567 5.90607 2.9949 4.70208 2.45379 5.63783C1.91267 6.57358 4.86121 9.29211 9.04014 11.7135C13.2191 14.1349 17.045 15.339 17.5861 14.4032ZM2.81267 5.99879C2.73267 5.80911 2.90154 5.76343 2.90154 5.76343C3.64922 5.62223 4.69945 5.94399 4.69945 5.94399C7.55663 6.59462 12.6514 9.78594 12.6514 9.78594C16.574 12.5308 17.1756 13.7398 17.2657 14.083C17.2749 14.1182 17.2714 14.1555 17.2557 14.1883C17.24 14.2212 17.2133 14.2474 17.1802 14.2624C16.7711 14.4497 15.6756 14.1707 15.6756 14.1707C12.2991 13.2653 9.59869 11.6066 9.59869 11.6066C7.17239 10.2979 4.77321 8.28436 4.77321 8.28436C2.95018 6.74942 2.81323 6.00087 2.81323 6.00087L2.81267 5.99879Z" fill="#6F7390"/>
<path d="M9.9993 11.0288C10.5675 11.0288 11.0281 10.5682 11.0281 10C11.0281 9.43181 10.5675 8.9712 9.9993 8.9712C9.43111 8.9712 8.9705 9.43181 8.9705 10C8.9705 10.5682 9.43111 11.0288 9.9993 11.0288Z" fill="#B7B9C8"/>
<path d="M14.2179 6.66664C14.5475 6.66664 14.8146 6.39028 14.8146 6.04936C14.8146 5.70845 14.5475 5.43208 14.2179 5.43208C13.8884 5.43208 13.6213 5.70845 13.6213 6.04936C13.6213 6.39028 13.8884 6.66664 14.2179 6.66664Z" fill="#B7B9C8"/>
<path d="M4.42387 8.76544C4.75343 8.76544 5.02059 8.48908 5.02059 8.14816C5.02059 7.80725 4.75343 7.53088 4.42387 7.53088C4.09431 7.53088 3.82715 7.80725 3.82715 8.14816C3.82715 8.48908 4.09431 8.76544 4.42387 8.76544Z" fill="#B7B9C8"/>
<path d="M8.78551 16.3374C9.11509 16.3374 9.38226 16.0611 9.38226 15.7202C9.38226 15.3792 9.11509 15.1029 8.78551 15.1029C8.45594 15.1029 8.18876 15.3792 8.18876 15.7202C8.18876 16.0611 8.45594 16.3374 8.78551 16.3374Z" fill="#B7B9C8"/>
</svg>
