<svg width="20" height="20" viewBox="0 0 20 20" fill="none" xmlns="http://www.w3.org/2000/svg">
<path d="M10 20C15.5228 20 20 15.5228 20 10C20 4.47715 15.5228 0 10 0C4.47715 0 0 4.47715 0 10C0 15.5228 4.47715 20 10 20Z" fill="#988430"/>
<path d="M9.9995 19.6797C15.3454 19.6797 19.6792 15.3459 19.6792 9.99999C19.6792 4.65406 15.3454 0.320328 9.9995 0.320328C4.65356 0.320328 0.319824 4.65406 0.319824 9.99999C0.319824 15.3459 4.65356 19.6797 9.9995 19.6797Z" fill="#7A6A2A"/>
<path d="M9.99966 19.4757C15.233 19.4757 19.4754 15.2333 19.4754 9.99999C19.4754 4.7667 15.233 0.524277 9.99966 0.524277C4.76636 0.524277 0.523926 4.7667 0.523926 9.99999C0.523926 15.2333 4.76636 19.4757 9.99966 19.4757Z" fill="#BA9F33"/>
<path fill-rule="evenodd" clip-rule="evenodd" d="M4.37219 8.93205C4.31555 8.88031 4.25571 8.82847 4.20067 8.77674C4.14563 8.72501 4.0891 8.67317 4.03246 8.62143L3.86414 8.46143C3.83662 8.43391 3.8075 8.4097 3.77998 8.38207C3.75246 8.35786 3.72014 8.33034 3.69262 8.30602C3.46926 8.09407 3.24462 7.88213 3.02435 7.67007C3.25251 7.87882 3.47587 8.08607 3.70403 8.29791L3.78329 8.37727C3.81081 8.40469 3.83993 8.42901 3.86745 8.45653L4.03566 8.61183C4.0923 8.66357 4.14734 8.71541 4.20398 8.77183C4.26062 8.82826 4.31566 8.88021 4.3723 8.93183L4.37219 8.93205ZM1.40782 8.90005C1.40782 8.90005 2.22009 8.9841 2.61657 9.04074C2.98382 9.09258 4.13273 9.2689 4.13273 9.2689L1.40782 8.90005ZM1.40782 8.90005C1.63598 8.91946 1.86414 8.94367 2.0923 8.96799C2.20878 8.9793 2.32046 8.99221 2.43214 9.00351L2.60355 9.02303C2.66019 9.03103 2.71523 9.03914 2.77187 9.04725L3.45155 9.15562L3.79129 9.21226C3.90297 9.23167 4.01465 9.25279 4.13113 9.27221C4.01945 9.2609 3.90297 9.24469 3.79129 9.22847L3.45155 9.17994L2.77187 9.07967C2.71523 9.07157 2.66019 9.06015 2.60355 9.05215L2.43203 9.03242C2.32035 9.02111 2.20387 9.0049 2.09219 8.99189C1.86403 8.96447 1.63587 8.93525 1.40771 8.89973L1.40782 8.90005ZM4.05187 9.48053C4.05187 9.48053 3.18457 9.70069 2.89166 9.78485C2.60366 9.8641 1.73145 10.1295 1.73145 10.1295L4.05177 9.48063L4.05187 9.48053Z" fill="#CFB66C"/>
<path fill-rule="evenodd" clip-rule="evenodd" d="M4.05209 9.48047C3.85956 9.53711 3.66809 9.59215 3.47279 9.64399L2.89348 9.7993C2.70095 9.85594 2.50948 9.91098 2.31748 9.96762L2.02948 10.0469C1.93401 10.0744 1.83695 10.0986 1.73828 10.1262C1.83364 10.0942 1.93081 10.0615 2.02628 10.034L2.31428 9.9418C2.50681 9.88186 2.69828 9.82522 2.89028 9.76538C3.08601 9.71684 3.27865 9.665 3.47439 9.61807C3.66041 9.57114 3.85625 9.52431 4.05209 9.48058V9.48047ZM1.85316 10.6634C1.94852 10.6278 3.04889 10.1149 3.30457 9.99514C3.43257 9.93519 3.80463 9.80314 3.80463 9.80314L1.85316 10.6634Z" fill="#CFB66C"/>
<path fill-rule="evenodd" clip-rule="evenodd" d="M1.85216 10.6635C1.93621 10.6315 2.01557 10.5923 2.09642 10.5551L2.33589 10.4434L2.81653 10.2121C2.97653 10.1361 3.13205 10.0521 3.29706 9.98064C3.38122 9.94513 3.46538 9.91601 3.54944 9.88849L3.67744 9.84806C3.72106 9.83676 3.7616 9.82375 3.80544 9.81244C3.64544 9.88849 3.47701 9.95323 3.3168 10.0276C3.1568 10.1069 2.99317 10.1717 2.82805 10.2428L2.33941 10.458C2.17536 10.5244 2.01536 10.5955 1.85205 10.6635H1.85216ZM1.95882 11.1115C1.95882 11.1115 2.95552 10.5274 3.29856 10.3397C3.47818 10.2394 4.05909 9.95131 4.05909 9.95131L1.95882 11.1115Z" fill="#CFB66C"/>
<path fill-rule="evenodd" clip-rule="evenodd" d="M1.95947 11.1117C2.12768 11.0081 2.2992 10.9029 2.47072 10.7962L2.72672 10.6408C2.81408 10.589 2.89824 10.5405 2.98731 10.4888C3.07466 10.4369 3.15882 10.3852 3.24778 10.3366C3.29013 10.3105 3.3345 10.2878 3.38048 10.2687L3.51637 10.2008C3.69599 10.1134 3.87562 10.0243 4.06495 9.94827C3.89343 10.0568 3.71701 10.149 3.54069 10.2444C3.45333 10.2929 3.36426 10.3366 3.2769 10.3852C3.18954 10.4337 3.10538 10.4856 3.01632 10.5325C2.92896 10.5842 2.8448 10.6328 2.75584 10.6797L2.49206 10.8237L1.95969 11.1117H1.95947ZM4.05162 10.0793C4.05162 10.0793 3.43189 10.555 3.23125 10.7071C3.03061 10.8592 2.44 11.2864 2.44 11.2864L4.05162 10.0793Z" fill="#CFB66C"/>
<path fill-rule="evenodd" clip-rule="evenodd" d="M7.60863 13.9158L7.2915 13.3155L7.47593 12.5647L8.79146 12.0566L8.23156 10.9078L8.50826 9.74762L9.02773 8.70869L10.633 8.45631L11.8125 7.33173L14.3595 7.52426L14.8595 10.2476L13.8967 13.6764L13.3482 15.4515L11.1248 15.5357L10.0925 14.8205L8.88373 14.3155L7.60863 13.9158Z" fill="#E2CC85"/>
<path fill-rule="evenodd" clip-rule="evenodd" d="M11.5084 13.8964C11.5084 13.8964 11.2009 14.0372 10.6764 14.0048C10.5247 13.801 9.46163 13.7055 9.46163 13.7055C9.46163 13.7055 9.32894 13.6651 9.09427 13.7621C8.85811 13.8581 8.63475 13.8463 8.42601 13.898C8.21726 13.9498 8.01001 13.678 7.85001 13.6213C7.69002 13.5615 7.47786 13.4175 7.47786 13.4175L7.02986 13.3738L6.13024 12.9935L4.70103 11.5696L4.31266 12.1776L4.19287 12.93L4.62497 13.8216L5.78838 14.8815L8.05695 15.4575L9.40158 15.0613L11.086 14.3493L11.5084 13.8963V13.8964Z" fill="#F1D789"/>
<path fill-rule="evenodd" clip-rule="evenodd" d="M3.44798 8.86411L3.73599 7.992L4.07914 7.4288L5.18422 7.33653L4.85249 8.30421L3.92863 9.94827L4.3121 11.4159L3.63252 11.7556L3.42366 11.4353L3.25545 10.7007L3.24414 9.87541L3.44798 8.86411Z" fill="#F4ECB4"/>
<path fill-rule="evenodd" clip-rule="evenodd" d="M4.68742 13.8366L4.47548 13.5405C4.47548 13.5405 4.41884 13.3997 4.45126 13.2767C4.48326 13.1521 4.47868 13.144 4.46257 13.0971C4.44646 13.0501 4.31047 12.8883 4.31857 12.7491C4.32657 12.6083 4.30727 12.5614 4.41073 12.4498C4.5191 12.3414 4.48678 12.1537 4.48678 12.1537L4.62758 12.2411L4.65958 12.1925C4.65958 12.1925 4.71131 12.233 4.71131 12.2961C4.72262 12.2088 4.67569 11.8042 4.78246 11.712C4.88923 11.6198 5.07856 12.144 5.07856 12.144L4.96208 11.3835L4.66267 10.6036L4.13031 9.89163L4.09831 9.10678V9.03883C4.09831 9.03883 3.85394 9.4143 3.78599 9.71083C3.73746 9.91467 3.85394 10.1622 3.82973 10.4552C3.81021 10.7465 3.786 10.7237 3.85714 10.8392C3.92829 10.9546 4.10151 11.1919 4.03356 11.3634C3.97373 11.5107 3.76978 11.4072 3.76978 11.4072C3.76978 11.4072 3.72936 11.5268 3.67432 11.5706C3.6549 11.4994 3.63389 11.4541 3.59506 11.4106C3.59176 11.4381 3.58376 11.4753 3.58376 11.4753C3.58376 11.4753 3.54813 11.3636 3.51251 11.2228C3.46408 11.0352 3.41224 10.7876 3.36531 10.6549C3.3459 10.731 3.29736 10.9624 3.29736 10.9624L3.32488 11.3184L3.45757 11.807L3.58557 12.127L3.71016 12.5186L3.81842 12.7817L3.90578 12.9823L3.98183 13.4338L4.34908 13.8221L4.54492 13.9096L4.68721 13.8367L4.68742 13.8366Z" fill="#F3E19D"/>
<path fill-rule="evenodd" clip-rule="evenodd" d="M3.64121 8.15211C3.64121 8.15211 3.37742 8.60011 3.30147 9.05174C3.22553 9.50337 3.15747 9.98059 3.20547 10.5954C3.25401 11.2153 3.34627 11.5954 3.42073 11.8673C3.54873 12.3188 3.88025 12.9467 3.88025 12.9467L3.89156 12.9224C3.83583 12.8167 3.79136 12.7055 3.75886 12.5906C3.71513 12.4191 3.69892 12.2153 3.65849 12.123C3.62286 12.0308 3.56302 11.9515 3.5339 11.8382C3.50638 11.7298 3.5019 11.5583 3.41742 11.4305C3.38179 11.3787 3.33806 11.2428 3.32515 11.1069C3.30894 10.9029 3.33326 10.6748 3.31385 10.4872C3.27822 10.1748 3.25401 9.96289 3.28633 9.79937C3.31865 9.63585 3.48708 9.17163 3.59065 8.80267C3.6586 8.56641 3.61806 8.36737 3.74265 8.16182C3.86724 7.95798 3.9434 7.77835 3.97081 7.65377C4.00281 7.54049 3.64078 8.15211 3.64078 8.15211H3.64121Z" fill="#F2E8B0"/>
<path fill-rule="evenodd" clip-rule="evenodd" d="M4.89204 7.97247C4.89204 7.97247 4.75615 8.01301 4.6914 8.08415C4.62665 8.1521 4.59913 8.20874 4.51177 8.32361C4.42441 8.43849 4.41951 8.53236 4.34825 8.67635C4.27711 8.81715 4.1201 9.02909 4.10068 9.10514C4.08127 9.1812 4.04895 9.53714 4.00852 9.70545C3.9729 9.87377 4.04895 10.0809 4.04895 10.0809L4.14111 10.0614C4.14111 10.0614 4.14111 10.1812 4.23338 10.2621C4.32553 10.3414 4.34175 9.99345 4.34175 9.99345L4.68639 8.83006L5.20574 8.47732L5.26238 8.19252L4.89182 7.97247H4.89204Z" fill="#F5EEC0"/>
<path fill-rule="evenodd" clip-rule="evenodd" d="M5.14402 8.50005C5.14402 8.50005 4.89965 8.51616 4.77998 8.60363C4.73144 8.63915 4.71203 8.66827 4.6603 8.712C4.56483 8.79125 4.46766 8.86411 4.42084 8.968C4.369 9.07147 4.31236 9.22848 4.27353 9.52459C4.25732 9.64918 4.25732 9.76406 4.24601 9.86443C4.2298 10.0003 4.20559 10.1087 4.21849 10.1844C4.23471 10.3397 4.39492 10.4207 4.41049 10.597L4.74222 10.4288L5.05453 9.19734L5.71798 8.78133L5.34253 8.36064L5.1436 8.49931L5.14402 8.50005Z" fill="#E6DB9D"/>
<path fill-rule="evenodd" clip-rule="evenodd" d="M3.39415 16.7924C3.39554 16.7803 3.39692 16.7681 3.39831 16.7556C3.44674 16.3396 3.45495 16.0243 3.49047 15.8269C3.5422 15.547 3.57783 15.4429 3.56972 15.3381C3.55842 15.1699 3.54551 15.0469 3.56172 14.9174C3.58594 14.7459 3.75426 14.5421 3.74946 14.4013C3.74615 14.2896 3.68951 14.2169 3.64098 14.1489C3.59244 14.081 3.55362 14.0243 3.55362 14.0243C3.55362 14.0243 3.88535 13.7962 3.88215 12.877C3.88893 12.8789 3.89545 12.8816 3.90157 12.8851L4.06498 13.3494L4.17666 13.4853L4.60547 14.2847L5.15726 14.8204L5.97273 15.3689L6.4841 15.9253L6.53583 17.4092L5.86756 18.2765L5.75812 18.4747C4.88864 18.0382 4.09133 17.4708 3.39404 16.7923L3.39415 16.7924Z" fill="#E5CB7A"/>
<path fill-rule="evenodd" clip-rule="evenodd" d="M5.43555 18.212C5.43555 18.212 5.44685 18.0275 5.59896 17.9077C5.62328 17.9482 5.63939 17.9871 5.63459 18.0161C5.66211 17.9677 5.85464 17.657 6.28995 17.576C6.72526 17.4968 6.83043 17.1796 6.83043 17.1796L7.75427 16.3398L8.81092 15.3674L10.0957 14.9158L10.6961 14.7685C10.6961 14.7685 10.7075 14.8123 10.6848 14.9093C10.7964 14.9013 11.044 14.8447 11.3013 14.754C11.4048 14.7136 11.502 14.6974 11.5538 14.7508C11.6298 14.822 11.6411 14.9903 11.6459 15.0906C11.7705 15.063 11.9145 14.9434 12.0299 14.9547C12.2144 14.9741 12.3779 15.1909 12.5656 15.1909C12.8132 15.1909 12.9247 15.0388 13.098 14.919C13.2015 14.8479 13.3503 14.759 13.4345 14.699C13.6351 14.5517 15.7581 13.9028 15.7581 13.9028L16.5025 13.9514L16.6222 14.7507L16.5582 16.8403C16.5504 16.8479 16.5425 16.8558 16.5345 16.8634L13.1501 18.6309L8.45891 19.3501C7.40806 19.1784 6.39398 18.8296 5.45987 18.3185L5.43587 18.2118L5.43555 18.212Z" fill="#D8C173"/>
<path fill-rule="evenodd" clip-rule="evenodd" d="M3.67871 17.0582C3.74538 16.9188 3.80532 16.8022 3.81588 16.7605C3.8242 16.8446 3.83946 17.029 3.87018 17.2251C3.80568 17.1702 3.74186 17.1146 3.67871 17.0581V17.0582Z" fill="#F1D789"/>
<path fill-rule="evenodd" clip-rule="evenodd" d="M7.10524 19.0248L7.71196 18.856L7.7637 18.8722C7.7637 18.8722 7.79122 18.8885 7.79122 18.9434C7.86727 18.8998 7.93202 18.9078 7.97895 18.8787C8.00317 18.9305 8.02738 19.102 8.13426 19.123C8.24583 19.1473 8.36562 19.0745 8.48701 18.9823C8.60669 18.8869 8.74301 18.7671 8.84616 18.7185C8.884 18.7881 8.91752 18.86 8.94653 18.9337C9.08243 18.8253 9.31869 18.3852 9.65523 18.3932C9.7525 18.1633 9.915 17.967 10.1226 17.8285C10.435 17.6166 10.6307 17.6003 10.8751 17.6198C10.9721 17.4937 11.0917 17.3867 11.2278 17.3042C11.2683 17.3204 11.3799 17.3884 11.5191 17.3236C11.6599 17.259 11.8184 17.0081 12.0272 16.9758C12.1397 16.9603 12.2541 16.9843 12.3508 17.0437C12.3508 17.0437 12.9588 16.4401 13.3784 16.2395C13.3621 16.1909 13.3298 16.0081 13.8217 15.6035C13.8492 15.6278 13.8298 15.6958 13.8492 15.6995C13.8572 15.6995 13.9772 15.6478 14.1291 15.5312C14.3168 15.3905 14.5417 15.2432 14.6776 15.2028C14.9336 15.1267 15.2051 15.282 15.2051 15.282C15.2282 15.2658 15.254 15.2538 15.2812 15.2464C15.3458 15.2351 15.3928 15.227 15.4284 15.2144C15.4252 15.2986 15.4721 15.4426 15.4284 15.5672C15.4791 15.5956 15.5327 15.6184 15.5884 15.6351C15.561 15.6949 15.501 15.847 15.4008 15.9199C15.4848 15.9603 15.4961 16.0073 15.6159 16.0479C15.5674 16.1158 15.4879 16.2324 15.4525 16.3039C15.4169 16.38 15.289 16.6955 15.2323 16.8152C15.1725 16.9349 15.0916 17.155 15.0527 17.1992C15.0138 17.2433 14.8731 17.4305 14.7647 17.5227C14.8607 17.4871 15.2535 17.3674 15.4201 17.322C15.3705 17.3948 15.1191 17.7678 14.8773 18.1265C13.7201 18.8202 12.4282 19.2592 11.0879 19.4144C9.74763 19.5695 8.38965 19.4373 7.10449 19.0264L7.10524 19.0248Z" fill="#E0CD81"/>
<path fill-rule="evenodd" clip-rule="evenodd" d="M5.18393 8.45631C5.18393 8.45631 5.04323 8.45631 5.01571 8.47573C4.98819 8.49514 5.15651 8.53567 5.20825 8.55509C5.25998 8.5745 5.37166 8.66346 5.40078 8.73471C5.4283 8.80266 6.41208 9.19903 6.41208 9.19903L7.10786 9.16341L7.34775 8.83199L6.89144 8.43231L7.21143 7.48895L6.78754 7.5569L5.76814 8.1649L5.25678 8.36074L5.18393 8.45631Z" fill="#DFC57C"/>
<path fill-rule="evenodd" clip-rule="evenodd" d="M6.71209 8.76865C6.72215 8.78493 6.73632 8.79828 6.75317 8.80736C6.77002 8.81644 6.78896 8.82093 6.80809 8.82038C6.95209 8.82038 7.08468 8.85601 7.13972 8.92875C7.23199 9.04534 7.48767 9.4175 7.48767 9.4175L8.09929 9.63755L8.13876 8.91734L7.47049 8.45302L6.70996 8.73291V8.76854H6.71167L6.71209 8.76865Z" fill="#E5CC7C"/>
<path fill-rule="evenodd" clip-rule="evenodd" d="M6.59136 9.03563C6.59136 9.03563 6.70293 9.04374 6.84373 8.9919C6.98453 8.94006 7.21589 8.82849 7.31626 8.87222C7.45696 8.93206 7.42784 9.11979 7.58005 9.28822C7.67221 9.39179 7.84053 9.38859 7.936 9.50027C8.03146 9.61195 8.35989 9.56011 8.35989 9.56011L8.48448 10.2321L7.98453 10.873L7.82101 11.669H7.14496L6.52736 11.424L6.22314 10.688L6.37525 9.94369L6.59136 9.03563Z" fill="#D2C281"/>
<path fill-rule="evenodd" clip-rule="evenodd" d="M7.89954 9.06791C7.91631 9.07308 7.93373 9.07581 7.95128 9.07602C7.93186 9.09223 7.89133 9.12775 7.90754 9.22001C7.92376 9.31228 7.97549 9.42875 7.93186 9.4999C7.96669 9.53798 7.99266 9.58329 8.00792 9.63259C8.03544 9.71194 8.04354 9.78469 8.22306 9.7961C8.19715 9.81205 8.17327 9.83107 8.15192 9.85274C8.15192 9.85274 8.2765 9.96111 8.33965 10.0614C8.40429 10.0586 8.57581 10.0053 8.57581 10.0053L8.61144 10.0296L8.68749 9.99759C8.68749 9.99759 8.61634 9.97007 8.66808 9.79695C8.71661 9.64485 8.76034 9.65296 8.76408 9.64165C8.76781 9.63035 8.7997 9.47014 8.7997 9.40539C8.82392 9.32134 8.84333 9.06567 8.84333 9.06567L8.7916 8.50099L8.5004 8.32457L8.2636 8.09599L8.04024 8.51667L7.89314 8.66334L7.88184 9.02738L7.89954 9.06791Z" fill="#E2C270"/>
<path fill-rule="evenodd" clip-rule="evenodd" d="M8.6001 8.59553C8.6001 8.59553 8.65183 8.74273 8.67135 8.85601C8.67823 8.83398 8.68203 8.81112 8.68266 8.78806C8.68266 8.78806 8.72308 9.01142 8.73108 9.10368C8.7473 9.10038 8.76308 9.09558 8.76671 9.11168C8.77034 9.12779 8.80724 9.30752 8.79871 9.40779C8.86609 9.29663 8.95933 9.20339 9.0705 9.13601C9.13524 9.09547 9.2113 9.05185 9.29066 9.04854C9.41524 9.04534 9.5058 9.1279 9.65471 9.1279C10.0139 9.1279 10.3392 8.86411 10.5787 8.78326C10.755 8.72331 10.9071 8.67969 11.0139 8.58251C11.0657 8.53889 11.158 8.44182 11.242 8.29771C11.3537 8.10571 11.4702 7.93857 11.5868 7.91755C11.534 7.92724 11.4804 7.93104 11.4268 7.92886C11.4268 7.92886 11.4624 7.89323 11.5228 7.8447C11.5831 7.79617 11.6555 7.73633 11.7589 7.73633C11.9435 7.73633 12.0356 7.76374 12.1392 7.76374C12.2428 7.76054 12.3026 7.73633 12.3026 7.73633C12.3026 7.73633 12.4111 7.81238 12.6554 7.81238C12.8997 7.81558 13.0631 7.83659 13.191 7.84801C13.3189 7.85942 13.7476 7.81238 13.8706 7.81601C13.9508 7.8191 14.0295 7.83836 14.1021 7.87265L13.7056 6.72065L12.2814 5.47585L11.4335 6.07617L10.1292 7.38038L8.86708 7.84801L8.6033 8.14411V8.59553H8.6001Z" fill="#CCB360"/>
<path fill-rule="evenodd" clip-rule="evenodd" d="M11.4323 7.93525C11.4323 7.93525 11.4679 7.89973 11.5277 7.8512C11.5874 7.80267 11.6605 7.74272 11.7639 7.74272C11.9484 7.74272 12.0406 7.77024 12.1442 7.77024C12.2478 7.76704 12.3076 7.74272 12.3076 7.74272C12.3076 7.74272 12.4162 7.81867 12.6604 7.81867C12.9047 7.82187 13.0681 7.84288 13.196 7.85419C13.3239 7.86549 13.7526 7.81867 13.8756 7.82219C13.9557 7.8252 14.0345 7.84447 14.1069 7.87883L13.9273 7.35936L13.7187 6.96299L13.1232 6.31082C13.1232 6.31082 12.4085 5.89013 12.4031 5.88693C12.3999 5.88373 12.1555 5.81898 12.1555 5.81898L11.5083 6.21056L10.921 7.73003L10.9097 8.05003L11.2898 8.22965C11.3853 8.06965 11.4906 7.94165 11.5892 7.92544C11.5002 7.93515 11.4322 7.93515 11.4322 7.93515L11.4323 7.93525Z" fill="#D5B457"/>
<path fill-rule="evenodd" clip-rule="evenodd" d="M11.4238 8.04373C11.3672 8.04693 11.3204 8.03562 11.3073 7.9952C11.2588 7.8593 11.22 7.83989 11.1793 7.83989C11.1387 7.83989 11.0839 7.92725 11.0513 7.93525C11.0188 7.94325 10.9802 7.83498 10.9802 7.83498L10.9446 7.81877C10.9446 7.81877 10.7358 7.95466 10.5886 8.11488C10.4414 8.27509 10.2003 8.54698 10.0919 8.59541C9.98354 8.64384 9.61129 8.66016 9.48393 8.68768C9.35658 8.7152 9.21535 8.80746 9.19594 8.82848C9.17653 8.84949 9.25269 8.8721 9.26399 8.89312C9.2753 8.91253 9.1393 8.90442 9.128 8.92512C9.12 8.94133 9.16 9.03349 9.17983 9.08042C9.21455 9.06316 9.25264 9.05377 9.2914 9.05291C9.41599 9.04971 9.50665 9.13227 9.65545 9.13227C10.0147 9.13227 10.3399 8.86848 10.5794 8.78752C10.7558 8.72768 10.9079 8.68394 11.0147 8.58688C11.0664 8.54325 11.1586 8.44608 11.2428 8.30208C11.3042 8.20341 11.3642 8.11114 11.4241 8.0432L11.4238 8.04373Z" fill="#D2B257"/>
<path fill-rule="evenodd" clip-rule="evenodd" d="M6.27144 16.0519C6.27144 16.0519 6.23944 15.9321 5.9429 15.6231C5.85875 15.5357 5.80701 15.4631 5.75037 15.4111C5.60957 15.2783 5.52701 15.2428 5.42675 15.1668C5.2067 15.0033 4.96723 15.0033 4.78281 14.8027C4.59838 14.602 4.38345 14.2187 4.23412 13.8269C4.08692 13.4353 4.04639 13.3107 4.04639 13.2994C4.04639 13.2881 4.08692 13.212 4.13865 13.2234C4.19039 13.2347 4.19039 13.3349 4.2034 13.3593C4.22917 13.3989 4.25841 13.4363 4.29076 13.4708C4.36681 13.5583 4.47518 13.6628 4.53022 13.8188C4.51892 13.6861 4.47358 13.5389 4.47358 13.5389C4.47358 13.5389 4.75838 13.7185 5.00105 13.9061C5.24542 14.0939 5.34568 14.1586 5.41704 14.2783C5.4884 14.398 5.65651 14.7136 5.73704 14.8059C5.81757 14.8982 6.92103 15.246 6.92103 15.246L7.44593 15.6374L7.70652 16.2086L7.50257 16.5286L7.111 16.6128L6.47506 16.3279L6.27144 16.0518V16.0519Z" fill="#D2B159"/>
<path fill-rule="evenodd" clip-rule="evenodd" d="M4.85938 14.0842C4.85938 14.0842 4.99207 14.2961 5.31569 14.4967C5.607 14.6732 6.06811 14.8334 6.4792 14.9289C6.71536 14.9855 6.95162 15.0291 7.16357 15.0324C7.73476 15.0404 8.12793 14.8771 8.61508 14.8237C8.87886 14.7962 9.20248 14.7751 9.53901 14.6957C9.97101 14.5921 10.2267 14.4755 10.5746 14.3117C10.827 14.1952 11.0585 14.1078 11.2461 13.9962C11.5099 13.8409 11.7024 13.6677 11.9258 13.616C11.8982 13.6921 11.8691 13.8279 11.6491 13.9687C11.7656 13.9654 11.9258 13.9574 11.9258 13.9574C11.9258 13.9574 11.7705 14.0496 11.497 14.2567C11.3287 14.3847 11.1054 14.6014 10.8772 14.7454C10.7299 14.8377 10.5697 14.9054 10.4646 14.9606C10.2086 15.1014 10.1053 15.1726 9.93709 15.3446C9.99693 15.3414 10.0018 15.3446 10.0018 15.3446C10.0018 15.3446 9.78979 15.3722 9.63779 15.453C9.60579 15.453 9.55032 15.4417 9.45326 15.4692C9.3772 15.4934 9.27683 15.5486 9.17336 15.5776C9.02606 15.6213 8.97763 15.6019 8.97763 15.6019L9.00185 15.6505C9.00185 15.6505 8.80985 15.6471 8.74585 15.6537C8.75715 15.6569 8.75395 15.6618 8.75395 15.6618C8.74271 15.6636 8.73188 15.6675 8.72195 15.6731C8.69116 15.693 8.65728 15.7078 8.62169 15.7167C8.60228 15.7199 8.58606 15.7199 8.56174 15.7248C8.56985 15.7442 8.633 15.8528 8.66212 15.9168C8.6379 15.933 8.27375 16.2081 8.27375 16.2081C8.28504 16.2259 8.29427 16.2449 8.30127 16.2647C8.31257 16.3003 8.31748 16.3521 8.32879 16.3763C8.3562 16.4249 8.37241 16.433 8.37241 16.433C8.37241 16.433 8.32878 16.4411 8.25263 16.4605C8.18799 16.4767 8.10863 16.5041 7.99663 16.5203C7.96226 16.5248 7.9277 16.5275 7.89306 16.5284C7.90927 16.5641 7.98041 16.6999 7.84932 16.8569C7.71823 17.0138 7.6778 17.0366 7.63738 17.1369C7.61703 17.1215 7.59536 17.1079 7.57263 17.0963C7.52901 17.0769 7.46906 17.0479 7.44805 17.009C7.4358 17.0608 7.41957 17.1117 7.39951 17.1611C7.35909 17.2694 7.29925 17.3763 7.28794 17.4572C7.24421 17.4086 7.16336 17.3132 7.05168 17.3326C6.94 17.352 6.85104 17.5041 6.83162 17.5478C6.83162 17.5203 6.81221 17.4993 6.80741 17.5316C6.8041 17.5673 6.74267 17.9393 6.39963 18.2403C6.39643 18.1643 6.39643 17.9959 6.38832 17.941C6.35632 17.973 6.31718 18.0203 6.08411 18.1206C5.85595 18.2209 5.89211 18.3213 5.89211 18.3213C5.89211 18.3213 5.8727 18.1613 5.99569 17.9927C6.12027 17.8245 6.19632 17.7452 6.19632 17.7323C6.19431 17.7191 6.1887 17.7068 6.18011 17.6966C6.1639 17.6804 6.13158 17.661 6.13158 17.6481C6.15099 17.6401 6.34352 17.5478 6.33222 17.3568C6.32091 17.1854 6.24816 17.0963 6.19632 17.0333C6.18832 17.0252 6.27248 16.9653 6.26107 16.9459C6.25296 16.9346 6.1495 16.8585 6.13648 16.8179C6.13954 16.7937 6.14497 16.7699 6.1527 16.7468C6.164 16.7111 6.17211 16.6868 6.16891 16.6626C6.1608 16.6222 6.11707 16.5105 6.10416 16.4992C6.11547 16.5024 6.19632 16.4992 6.19632 16.4992C6.19632 16.4992 6.13168 16.3956 6.12027 16.3471C6.10886 16.2986 6.08464 16.1707 6.07174 16.1465C6.09926 16.1497 6.1672 16.1545 6.1672 16.1465C6.17051 16.1221 6.10736 16.0817 6.1352 16.0505C6.15462 16.0537 6.19184 16.0699 6.22736 16.1152C6.20795 16.0634 6.17563 15.9631 6.10758 15.9227C6.13958 15.9114 6.24838 15.8821 6.34384 15.9388C6.43931 15.9954 6.47184 16.0747 6.47184 16.0747C6.47184 16.0747 6.52848 16.1184 6.61595 16.1831C6.71621 16.2624 6.844 16.3751 7.04794 16.4549C7.09168 16.4793 7.20325 16.4793 7.28421 16.463C7.31946 16.4546 7.35325 16.441 7.38447 16.4226C7.39575 16.416 7.40769 16.4105 7.4201 16.4064C7.40271 16.3715 7.3827 16.3379 7.36026 16.306C7.38778 16.306 7.4201 16.3093 7.4201 16.3093C7.4201 16.3093 7.43951 16.2656 7.35215 16.1813C7.37157 16.1619 7.39589 16.1493 7.39589 16.1166C7.36837 16.1134 7.31983 16.073 7.30853 16.0567C7.32463 16.0454 7.34895 16.0082 7.37647 15.9969C7.35215 15.9775 7.29231 15.8965 7.26479 15.8885C7.29108 15.8788 7.31652 15.8669 7.34085 15.8529C7.34085 15.8529 7.20495 15.8173 7.16122 15.7882C7.11749 15.7562 7.05285 15.7008 7.01402 15.6846C6.97349 15.6684 6.90234 15.6604 6.87322 15.6279C6.90064 15.6361 6.94437 15.6279 6.9768 15.6279C7.00101 15.6279 7.01242 15.6311 7.02042 15.6311C7.01722 15.6198 7.01722 15.5955 7.08037 15.5875C7.11074 15.5829 7.14022 15.5737 7.16773 15.56C7.16773 15.56 7.10778 15.5568 7.03973 15.4921C6.97168 15.4273 6.91514 15.3756 6.87632 15.3675C6.83589 15.3594 6.75984 15.395 6.71291 15.3917C6.64816 15.3837 6.62064 15.3513 6.62064 15.3513C6.62064 15.3513 6.4055 15.3707 5.92817 15.0795C5.51548 14.827 5.33585 14.6037 5.33585 14.6037C5.29723 14.5897 5.2599 14.5724 5.22428 14.5519C5.06897 14.471 4.85372 14.3027 4.86023 14.0826L4.85938 14.0842Z" fill="#C2A44D"/>
<path fill-rule="evenodd" clip-rule="evenodd" d="M10.8119 4.37215C10.8493 4.38431 10.8826 4.40675 10.9079 4.4369C10.9839 4.52426 11.0325 4.68927 10.8593 4.8657C10.9273 4.88991 10.9553 4.8977 11.0146 4.88991C10.9548 4.96117 10.8189 5.11327 10.8108 5.24597C10.8027 5.35434 10.8706 5.38677 10.8706 5.38677C10.8706 5.38677 10.7671 5.50645 10.7623 5.70677C10.8112 5.65161 10.8647 5.60072 10.9223 5.55466C11.0421 5.45919 11.2071 5.35082 11.3188 5.28287C11.3172 5.31135 11.3211 5.33986 11.3301 5.36693C11.3301 5.36693 11.5387 5.19541 11.7141 5.27157C11.7933 5.30719 11.7577 5.41877 11.7577 5.41877C11.7577 5.41877 11.8662 5.37834 11.9422 5.45439C12.0183 5.53045 12.1258 5.72661 12.1809 5.80266C12.2052 5.83829 12.2683 5.90623 12.3329 6.01141C12.4213 6.15865 12.495 6.31416 12.5531 6.47573C12.5563 6.39157 12.5773 6.26058 12.8169 6.34303C13.0564 6.42719 13.3281 6.60362 13.5563 6.95103C13.7845 7.29845 13.841 7.69066 13.9559 7.83999C14.0724 7.98399 14.1921 8.22346 14.2003 8.32383C14.2084 8.42421 14.1646 8.74773 14.4041 9.62314C14.472 9.35135 14.5756 8.74773 14.5756 8.74773L14.6323 8.21535L14.697 6.5681L12.9769 5.13909L11.6323 4.1633L10.7568 4.24746L10.8118 4.37205L10.8119 4.37215Z" fill="#CAA13E"/>
<path fill-rule="evenodd" clip-rule="evenodd" d="M14.0082 6.82359C14.0082 6.82359 13.9839 6.66359 13.5794 6.39159C13.1748 6.123 12.8593 6.123 12.5681 5.89484C12.3447 5.71522 12.1118 5.30252 11.9601 5.16663C11.8128 5.03234 11.7886 4.64396 11.7886 4.64396L12.2853 4.22796L13.0241 3.16012L13.6486 2.47244L13.9479 2.88844L14.3639 3.37708L14.5953 4.35767L14.6795 5.79298L14.0075 6.8237L14.0082 6.82359Z" fill="#B59544"/>
<path fill-rule="evenodd" clip-rule="evenodd" d="M14.5084 8.544C14.5207 8.32634 14.4938 8.10824 14.4291 7.90006C14.3224 7.56832 14.0893 6.97931 13.9811 6.75872C13.9373 6.51435 13.9698 6.49494 14.0167 6.46742C14.0636 6.4399 14.2401 6.33942 14.3367 5.98689C14.4334 5.63435 14.7332 5.62283 14.7332 5.62283L14.9176 5.48694L15.1976 6.18753L15.4419 6.82027L15.5179 7.30411L15.5746 7.7167L15.4419 8.58891L14.7866 9.18112L14.5083 8.544H14.5084Z" fill="#C89D3A"/>
<path fill-rule="evenodd" clip-rule="evenodd" d="M5.36475 18.2655V18.2476C5.37836 18.2391 5.39038 18.2282 5.40027 18.2156C5.41157 18.1994 5.41979 18.1799 5.42779 18.1751C5.444 18.167 5.52005 18.1431 5.56048 18.1508C5.6009 18.1585 5.70778 18.2026 5.76442 18.1994C5.8809 18.1962 6.01679 18.1071 6.23204 18.1476C6.55566 18.2075 6.63172 18.4275 6.81945 18.5521C6.94745 18.6396 7.07993 18.6006 7.09934 18.6006H7.14296C7.15107 18.6006 7.21091 18.5327 7.24334 18.536C7.30808 18.5392 7.31448 18.5926 7.35491 18.5958C7.45037 18.6072 7.6349 18.5473 7.72717 18.5716C7.75453 18.5802 7.77941 18.5953 7.79969 18.6155C7.81997 18.6358 7.83505 18.6607 7.84365 18.688C7.86306 18.7479 7.84685 18.8239 7.79992 18.8676C7.69965 18.9598 7.60419 19.0473 7.58477 19.1236C7.60946 19.1425 7.63317 19.1626 7.65581 19.1838C6.8552 18.9798 6.0849 18.6714 5.36475 18.2665V18.2655Z" fill="#CEB052"/>
<path fill-rule="evenodd" clip-rule="evenodd" d="M13.981 15.0324C13.981 15.0324 14.2333 14.6959 14.3208 14.5292C14.4082 14.3573 14.0441 12.1813 14.0441 12.1813L14.7755 9.78496L14.756 9.00501C14.756 9.00501 14.7916 8.28491 14.8758 7.97259C14.9761 8.15221 15.2885 8.36907 15.3564 8.48395C15.3884 8.26379 15.4971 7.79947 15.481 7.30432C15.5408 7.39648 15.6848 8.32373 15.6848 8.32373L15.8288 8.94827L16.0166 9.61173L16.2253 10.3124L16.3499 10.7963L16.421 10.9127L16.481 11.1166L16.5376 11.3367L16.701 11.8529L16.797 12.2768L16.8731 13.0454C16.8896 13.1043 16.9015 13.1644 16.9087 13.2251C16.9119 13.3092 16.8974 13.3578 16.8974 13.3724C16.8974 13.387 16.9249 13.5568 16.9136 13.6847C16.8974 13.8127 16.8974 13.9129 16.797 14.0047C16.6967 14.0965 16.6336 14.6454 16.6336 14.6454L16.454 14.5258C16.454 14.5258 16.4896 14.3622 16.4055 14.2134C16.3213 14.0646 16.1579 14.0338 16.0656 14.0581C15.9735 14.0775 15.789 14.1066 15.7291 14.1584C15.6725 14.2101 15.5334 14.3703 15.4055 14.4432C15.2455 14.5392 14.9848 14.5468 14.8457 14.5791C14.7049 14.6111 14.5496 14.7071 14.3861 14.8186C14.2579 14.9016 14.1225 14.973 13.9816 15.0319L13.981 15.0324Z" fill="#CCA847"/>
<path fill-rule="evenodd" clip-rule="evenodd" d="M13.981 18.568C13.981 18.568 13.9916 18.5749 14.0122 18.5862C15.1618 18.0476 16.1919 17.2842 17.0415 16.3409C17.0323 16.0134 17.0202 15.6778 17.007 15.5534C16.9796 15.2896 16.999 15.021 16.9909 14.8657C16.9828 14.7104 16.8954 14.0776 16.855 13.9142C16.8113 13.7508 16.727 13.6699 16.7142 13.6699C16.7029 13.6732 16.6348 13.9774 16.6348 14.0539C16.6348 14.1303 16.6186 14.3144 16.6186 14.3614C16.6073 14.3581 16.6025 14.3294 16.6025 14.3176C16.5863 14.3581 16.5669 14.4293 16.5588 14.4374C16.5507 14.4455 16.5701 14.3695 16.5588 14.3533C16.5475 14.3371 16.5268 14.3452 16.5313 14.3047C16.5332 14.2808 16.5369 14.257 16.5426 14.2336C16.5426 14.2336 16.494 14.3047 16.4585 14.486C16.4229 14.6656 16.4229 14.6705 16.41 14.6866C16.3987 14.7061 16.3339 14.7708 16.3306 14.7951C16.3274 14.8387 16.3906 14.8824 16.3954 14.9067C16.3986 14.9472 16.3387 15.1348 16.3193 15.2267C16.2999 15.3185 16.308 15.4984 16.2873 15.5907C16.2711 15.6749 16.2553 15.7234 16.1999 15.7589C16.2404 15.767 16.2792 15.7783 16.2792 15.7783C16.2792 15.7783 16.3358 16.0178 16.1918 16.2218C16.1401 16.2929 16.1272 16.3253 16.0722 16.3901C15.9637 16.5098 15.8795 16.6461 15.8714 16.7347C15.8658 16.7086 15.862 16.682 15.8601 16.6554C15.8601 16.6554 15.6919 16.8512 15.6206 16.9629C15.5285 17.1069 15.4006 17.0988 15.3646 17.1344C15.3287 17.17 15.3209 17.2347 15.3326 17.2865C15.3006 17.2945 15.2405 17.3059 15.1999 17.4305C15.1805 17.4951 15.132 17.5585 15.0559 17.602C14.9799 17.6455 14.8876 17.6587 14.8407 17.67C14.8811 17.6813 14.8973 17.6813 14.9167 17.6942C14.8925 17.7346 14.7808 17.7978 14.6563 17.8787C14.5317 17.9548 14.4717 18.0663 14.441 18.1392C14.409 18.2071 14.3618 18.2509 14.2857 18.259C14.3177 18.2784 14.3651 18.3236 14.3893 18.3382C14.3536 18.3463 14.2933 18.3463 14.1854 18.4386C14.0722 18.5325 14.0333 18.56 13.9815 18.5681L13.981 18.568Z" fill="#C39D3C"/>
<path fill-rule="evenodd" clip-rule="evenodd" d="M11.7295 19.3179C11.7915 19.2744 11.8586 19.2389 11.9293 19.212C12.1817 19.1117 12.4487 19.0923 12.5539 19.06C12.6542 19.028 12.7335 18.9838 12.8581 18.9596C12.8548 18.988 12.852 19.0146 12.849 19.0398C12.4817 19.1553 12.1077 19.2481 11.729 19.3179H11.7295Z" fill="#D2BA6B"/>
<path fill-rule="evenodd" clip-rule="evenodd" d="M16.3837 12.6797C16.3837 12.6797 16.332 12.9596 16.2397 13.136C16.1475 13.3124 16.0477 13.5567 16.0477 13.5567C16.0483 13.5016 16.0548 13.4468 16.0671 13.3932C15.9507 13.4611 15.6675 13.6246 15.5871 13.6974C15.5111 13.7653 15.3832 13.8851 15.3509 13.9418C15.4269 13.7185 15.5062 13.5179 15.5192 13.4256C15.4027 13.5098 14.8589 13.958 14.5758 14.2541L13.6939 14.9677C13.5921 15.0226 13.4873 15.0716 13.38 15.1147C13.228 15.1793 13.0484 15.2343 12.9157 15.2862C12.9513 15.1907 13.0078 15.1064 13.0872 15.0256C13.1713 14.9463 13.4237 14.6728 13.4625 14.5456C13.4982 14.4129 13.5063 14.3336 13.4593 14.222C13.4156 14.2333 13.3153 14.2382 13.2474 14.2576C13.1795 14.277 13.1066 14.3498 13.1066 14.3498C13.1066 14.3498 13.1583 14.0536 13.27 13.7738C13.1859 13.777 13.0419 13.8012 13.0419 13.8012C13.0419 13.8012 13.2425 13.4646 13.5859 13.2301C13.4807 13.2525 13.3778 13.2844 13.2784 13.3254C13.0778 13.4096 12.8577 13.5342 12.6943 13.6021C12.7865 13.4741 13.4337 12.5504 13.8189 11.6895C14.2029 10.8303 14.3464 10.6102 14.4305 10.1491C14.4742 9.92095 14.4625 9.58378 14.4742 9.28181C14.4855 8.98239 14.5227 8.71381 14.4985 8.53418C14.5988 8.65877 14.9742 9.00991 14.9871 9.79477C14.9984 10.5795 14.628 11.6395 14.2347 12.2106C14.3307 12.2381 14.5795 12.2705 14.835 11.8266C15.0906 11.3826 15.0875 11.2587 15.1798 11.0741C15.1911 11.1664 15.1878 11.1987 15.1878 11.1987C15.1878 11.1987 15.56 10.7473 15.7364 10.1793C15.772 10.4237 15.8772 10.6389 15.712 11.0871C15.5648 11.4916 15.3723 11.5904 15.3723 11.5904C15.3723 11.5904 15.4678 11.5742 15.6085 11.49C15.6328 11.5499 15.628 11.618 15.6684 11.6421C15.7088 11.6662 15.7639 11.7069 15.772 11.7457C15.8156 11.681 15.8836 11.5984 15.9047 11.537C15.8885 11.665 15.8772 12.2246 15.9367 12.5094C16.0614 12.4981 16.1892 12.49 16.2765 12.2651C16.2167 12.4852 16.2167 12.6178 16.2571 12.8055C16.3235 12.7603 16.3833 12.6794 16.3833 12.6794L16.3837 12.6797Z" fill="#C0993A"/>
<path fill-rule="evenodd" clip-rule="evenodd" d="M12.1801 3.76053C12.1801 3.76053 12.0555 3.81227 11.8436 3.81227C11.6591 3.81227 11.7109 3.74112 11.4229 3.74112C10.9795 3.74112 9.43093 3.99712 9.15903 3.99349C8.9826 3.99029 9.75445 4.06955 9.75445 4.06955L11.7271 4.09707L12.1235 4.06507L12.2708 3.76533L12.1801 3.76053Z" fill="#A88F33"/>
<path fill-rule="evenodd" clip-rule="evenodd" d="M7.06446 7.61654C7.06446 7.61654 6.81198 7.80907 6.70521 7.95638C6.59844 8.10368 6.5418 8.20064 6.42041 8.32043C6.4489 8.32152 6.47737 8.31769 6.50457 8.30912C6.50457 8.30912 6.50457 8.34112 6.48516 8.34955C6.50193 8.34767 6.51892 8.34957 6.53486 8.35511C6.55081 8.36065 6.56531 8.36968 6.57732 8.38155C6.54169 8.40096 6.44462 8.49814 6.52068 8.61302C6.57732 8.70038 6.6971 8.70838 6.6971 8.70838C6.6971 8.70838 6.66958 8.78774 6.78446 8.77963C7.03204 8.76832 7.30873 8.65984 7.43652 8.68736C7.56452 8.71936 7.63726 8.7311 7.72782 8.88811C7.82382 9.04342 7.90745 9.06774 7.90745 9.06774C7.90745 9.06774 7.96409 8.92363 7.95118 8.70848C7.99762 8.59251 8.02337 8.46929 8.02724 8.34443L7.94308 7.7247L7.57582 7.26027L7.10009 7.52406L7.06446 7.61622V7.61654Z" fill="#E3C571"/>
<path fill-rule="evenodd" clip-rule="evenodd" d="M7.5166 7.52427C7.5166 7.52427 7.55223 7.60843 7.70113 7.61643C7.68492 7.65206 7.68492 7.65696 7.68983 7.68438C7.69303 7.7119 7.69783 7.75232 7.69783 7.75232C7.71422 7.74439 7.72904 7.73355 7.74156 7.72032C7.74967 7.75595 7.73345 7.81248 7.74156 7.85302C7.74656 7.87767 7.7547 7.90158 7.76577 7.92416C7.76814 7.91863 7.77084 7.91325 7.77388 7.90806C7.77708 7.89995 7.80588 7.99542 7.88556 8.06806C7.88549 8.05689 7.88824 8.04588 7.89356 8.03606C7.89478 8.05635 7.90149 8.07592 7.91297 8.0927C7.90701 8.08985 7.90157 8.08603 7.89687 8.08139C7.89687 8.08139 7.90487 8.33739 7.9486 8.46976C7.95591 8.46121 7.96241 8.452 7.96801 8.44224C7.96801 8.43424 7.96481 8.5135 7.95671 8.57024C7.9454 8.62688 7.95351 8.70614 7.95351 8.70614C7.98268 8.68317 8.01474 8.66413 8.04887 8.6495C8.0974 8.62998 8.17687 8.57014 8.22529 8.43744C8.25339 8.36229 8.27505 8.2849 8.29004 8.20608C8.30569 8.2362 8.31649 8.2686 8.32204 8.30208C8.32535 8.34251 8.4014 8.3215 8.4014 8.3215L8.41761 8.14507L8.51361 7.74539L8.60097 7.49782L9.02167 6.84256L9.78177 6.25718L10.4452 6.40928L11.005 5.64875L10.0407 5.06944L9.12801 5.16491L8.29975 6.31211L7.63639 7.35264L7.5166 7.52416V7.52427Z" fill="#D8B65B"/>
<path fill-rule="evenodd" clip-rule="evenodd" d="M12.2963 5.86409C12.2963 5.86409 12.2396 5.8754 12.0762 5.96009C11.9128 6.04479 11.7995 6.07167 11.7364 6.19626C11.6732 6.32084 11.6684 6.41962 11.6684 6.41962C11.6684 6.41962 11.7801 6.37108 11.8449 6.35487C11.9128 6.33876 11.9889 6.34356 11.9808 6.37108C11.973 6.38995 11.9622 6.40743 11.9488 6.42282C11.9488 6.42282 12.0768 6.41962 12.0733 6.48276C12.0699 6.54591 12.0491 6.61546 12.0249 6.64618C12.0006 6.67818 11.9003 6.72554 11.889 6.76277C11.8615 6.83882 11.9003 6.84202 11.8857 6.90346C11.8744 6.96341 11.8211 7.07989 11.6463 7.28373C11.4666 7.48768 11.3902 7.63168 11.3902 7.63168C11.3902 7.63168 11.3029 7.46827 11.2576 7.32747C11.2256 7.34357 11.0537 7.43904 11.0537 7.43904L10.6556 6.05236L10.6636 5.96009C10.6636 5.96009 10.6993 5.91647 10.7074 5.83551C10.6475 5.81609 10.6394 5.79988 10.5601 5.72393C10.4807 5.64798 10.4161 5.55561 10.2835 5.49246C10.2641 5.45684 10.2397 5.40841 10.1427 5.38889C10.0456 5.36937 9.98736 5.35337 9.98736 5.35337C9.98736 5.35337 10.0391 5.33385 10.0634 5.29342C10.0035 5.30153 9.95504 5.32094 9.82394 5.31774C9.69125 5.31443 9.67664 5.30963 9.60389 5.32094C9.53114 5.33225 9.44389 5.36467 9.41135 5.25299C9.37573 5.22547 9.29967 5.24979 9.23493 5.34515C9.17018 5.44052 9.14757 5.51668 9.02298 5.5539C9.01422 5.60882 8.99499 5.66155 8.96634 5.70921C8.93071 5.76916 8.87407 5.829 8.79802 5.91796C8.67823 6.05876 8.69764 6.29012 8.50671 6.46655C8.31417 6.64287 8.53871 5.9778 8.53871 5.9778L8.84612 5.24179L9.72154 4.38579L11.0808 4.29362L11.2135 4.99763L11.877 5.22579L12.2961 5.86495L12.2963 5.86409Z" fill="#D3AE4D"/>
<path fill-rule="evenodd" clip-rule="evenodd" d="M12.5117 6.01936L11.9405 5.1958L11.5408 4.88829C11.5408 4.88829 11.256 4.36413 11.2366 4.34792C11.2204 4.33661 10.9518 4.30749 10.7803 4.29619L10.8123 4.37544C10.8497 4.3876 10.883 4.41004 10.9083 4.44019C10.9843 4.52755 11.0329 4.69256 10.8598 4.86898C10.9277 4.89319 10.9558 4.90098 11.0151 4.89319C10.9552 4.96445 10.8193 5.11655 10.8112 5.24924C10.8031 5.35761 10.8711 5.38993 10.8711 5.38993C10.8711 5.38993 10.7675 5.50972 10.7627 5.70993C10.8116 5.65477 10.8651 5.60389 10.9227 5.55782C11.0425 5.46183 11.2075 5.35388 11.3192 5.28593C11.3176 5.31445 11.3215 5.34299 11.3305 5.37009C11.3305 5.37009 11.5391 5.19858 11.7145 5.27463C11.7937 5.31025 11.7581 5.42193 11.7581 5.42193C11.7581 5.42193 11.8666 5.38151 11.9426 5.45756C12.0187 5.53361 12.127 5.72934 12.1821 5.8055C12.2063 5.84113 12.2694 5.90907 12.3341 6.01414C12.4224 6.16141 12.4961 6.31695 12.5542 6.47856C12.5574 6.41381 12.5704 6.32325 12.6822 6.32325L12.5123 6.01904L12.5117 6.01936Z" fill="#CAA13E"/>
<path fill-rule="evenodd" clip-rule="evenodd" d="M3.94814 8.35925C3.94814 8.35925 3.90772 8.25888 3.94814 8.06314C3.98857 7.86741 4.05172 7.77514 4.07273 7.48714C4.09375 7.19914 4.28148 6.83989 4.28148 6.83989L4.80085 6.60373L5.16822 6.704L5.27659 7.19594L4.81216 7.45194C4.81216 7.45194 4.78794 7.56032 4.65685 7.64768C4.52575 7.73504 4.34452 7.80298 4.3009 7.89205C4.27482 7.94659 4.25578 8.00422 4.24426 8.06357C4.24426 8.06357 4.11156 8.03605 4.03231 8.12341C3.94814 8.21248 3.95134 8.29173 3.94814 8.35968V8.35925Z" fill="#F4EFC8"/>
<path fill-rule="evenodd" clip-rule="evenodd" d="M4.9966 8.22816C4.9966 8.22816 4.95287 8.25568 4.92055 8.32416C4.88855 8.27242 4.81207 7.96491 4.80887 7.68821C4.80567 7.41152 4.78914 7.34294 4.85314 7.24758C4.91714 7.15222 5.16812 7.05174 5.1325 6.88001C5.09687 6.7166 4.94796 6.64865 4.76514 6.69558C4.63714 6.72758 4.54188 6.99979 4.40919 7.13569C4.30882 7.23926 4.18913 7.22305 4.15681 7.27968C4.11308 7.35574 4.15351 7.43179 4.1406 7.48032C4.1373 7.49654 4.09687 7.5839 4.02401 7.68907C3.87681 7.90101 3.62764 8.20042 3.59521 8.46901C3.60652 8.3169 3.59852 8.3137 3.63895 8.14538L3.61463 8.10496L3.77463 7.5807L3.8782 7.1487L4.10967 6.42529L4.51735 5.68589L4.91383 5.24248L5.32642 5.27L5.37495 5.88972L5.61122 7.05323L6.10796 7.66486L5.3118 8.20064L4.99628 8.22816H4.9966Z" fill="#EBCC73"/>
<path fill-rule="evenodd" clip-rule="evenodd" d="M5.24404 8.44803C5.24404 8.44803 5.17609 8.46424 5.15177 8.45134C5.12745 8.43843 5.10334 8.42382 5.11134 8.4076C5.11934 8.39139 5.16308 8.36398 5.16308 8.35096C5.16397 8.3392 5.16026 8.32756 5.15271 8.31849C5.14516 8.30943 5.13438 8.30367 5.12265 8.30243C5.08542 8.29763 5.07412 8.32184 5.07412 8.32184C5.07412 8.32184 5.03849 8.29443 5.00948 8.28984C5.02664 8.28774 5.04392 8.28663 5.06121 8.28653C5.01649 8.26628 4.96906 8.25266 4.92041 8.2461C4.96084 8.22189 5.0402 8.15063 5.09193 8.15063C5.14366 8.15063 5.17609 8.14263 5.16798 8.11511C5.15988 8.08759 5.11945 8.04717 5.07582 8.03095C5.09193 8.01154 5.10334 7.98242 5.06452 7.90295C5.02398 7.82369 5.0402 7.77025 5.05321 7.75094C5.06452 7.72662 5.10494 7.68299 5.12436 7.65547C5.14377 7.62795 5.15998 7.59072 5.1923 7.57131C5.20852 7.56 5.26025 7.53931 5.31209 7.51958C5.36873 7.50016 5.41566 7.47584 5.44798 7.50016C5.48361 7.52438 5.4674 7.5568 5.4674 7.5568C5.4674 7.5568 5.57908 7.51627 5.67934 7.56811C5.77972 7.61654 6.02409 7.64737 6.02409 7.64737L6.11166 7.8238L5.53236 8.32056L5.29289 8.44035L5.24436 8.44835L5.24404 8.44803Z" fill="#E5C66B"/>
<path fill-rule="evenodd" clip-rule="evenodd" d="M6.04838 7.63594C6.04838 7.63594 5.86876 7.75573 5.82833 7.79935C5.85254 7.80266 5.89297 7.81887 5.87676 7.84309C5.85734 7.8673 5.74086 7.95146 5.67612 8.03082C5.60817 8.11007 5.54342 8.21045 5.52081 8.25898C5.4966 8.30261 5.31206 8.4305 5.24902 8.44661C5.38172 8.44661 5.6487 8.28319 5.74897 8.28319C5.74577 8.33173 5.77649 8.38677 5.83313 8.39157C5.88977 8.39637 6.05318 8.42719 6.27324 8.2913C6.49329 8.15861 6.42054 8.05983 6.5127 7.99519C6.68913 7.87861 6.76028 7.77503 6.85734 7.71039C6.95441 7.64575 7.00465 7.63103 7.00465 7.63103C7.00465 7.63103 7.00785 7.5825 7.03665 7.58741C7.04453 7.58831 7.05202 7.59135 7.0583 7.5962C7.06458 7.60105 7.06941 7.60753 7.07228 7.61493C7.07228 7.61493 7.2406 7.49514 7.45628 7.46282C7.45124 7.46057 7.44722 7.45655 7.44497 7.45151C7.44497 7.45151 7.46108 7.44341 7.46438 7.4353C7.46438 7.4353 7.47569 7.41909 7.4838 7.42719C7.4919 7.4353 7.50321 7.49514 7.51942 7.51946C7.55505 7.50325 7.623 7.35114 7.623 7.35114L7.78652 6.88351V6.45631L7.65852 6.48063L6.69852 6.88831L6.1159 7.49194L6.04796 7.63594H6.04838Z" fill="#E6BD62"/>
<path fill-rule="evenodd" clip-rule="evenodd" d="M8.81217 5.54051C8.8641 5.52791 8.91388 5.50771 8.9599 5.48057C8.94049 5.53241 8.94049 5.58905 8.85633 5.71204C8.77217 5.83502 8.76897 5.85284 8.70102 5.98063C8.63308 6.11332 8.62497 6.30426 8.56022 6.38831C8.58924 6.37421 8.62037 6.36495 8.65238 6.3609C8.65238 6.3609 8.58774 6.41754 8.56022 6.47738C8.5327 6.53722 8.48417 6.66181 8.36449 6.73797C8.24481 6.81413 8.0926 6.86256 7.92918 7.04219C7.76566 7.21851 7.59745 7.44187 7.51318 7.52219C7.55692 7.44614 7.61676 7.29403 7.63297 7.19376C7.64918 7.09349 7.62966 6.9736 7.65718 6.84101C7.6847 6.70842 7.6847 6.61285 7.81718 6.38138C7.94966 6.14991 8.17644 5.34574 8.17644 5.34574L8.66508 5.19043L8.81238 5.53998L8.81217 5.54051Z" fill="#B6933F"/>
<path fill-rule="evenodd" clip-rule="evenodd" d="M8.4594 5.24437C8.4594 5.24437 8.31221 5.45631 8.27178 5.64405C8.23135 5.83178 8.26847 5.81557 8.24426 5.90783C8.22978 5.96409 8.22978 6.0231 8.24426 6.07935C8.29524 5.99723 8.36504 5.92841 8.44788 5.87861C8.58708 5.79455 8.70036 5.73461 8.76788 5.66346C8.83583 5.58741 8.89247 5.46282 9.03967 5.36735C8.97983 5.35925 8.89567 5.33173 8.87967 5.33535C8.93961 5.26741 9.11913 5.16383 9.30036 5.03925C9.47998 4.91125 9.46868 4.85962 9.75998 4.73183C9.66451 4.74805 9.61918 4.72373 9.53982 4.73183C9.57182 4.66389 9.68382 4.63146 9.79582 4.51989C9.90782 4.40831 9.72467 4.24319 9.72467 4.24319L8.87135 4.75935L8.45877 5.24479L8.4594 5.24437Z" fill="#C49937"/>
<path fill-rule="evenodd" clip-rule="evenodd" d="M6.14404 4.85921L6.16346 4.70391L6.40783 4.31233L6.66351 3.62465V2.68449L6.6441 2.14081L6.68452 1.78476L6.71524 1.67159L6.74767 1.62785L6.95631 1.73623L7.24442 2.1278L7.27194 2.88353L6.99194 4.07607L6.19258 4.94828L6.14404 4.85921Z" fill="#DFC068"/>
<path fill-rule="evenodd" clip-rule="evenodd" d="M6.78006 1.58409C6.78006 1.58409 6.65207 1.5874 6.62476 2.11977C6.59745 2.65214 6.58423 2.93204 6.56481 3.19582C6.5454 3.45961 6.50017 3.61972 6.47745 3.77513C6.45473 3.93054 6.44183 4.14238 6.36908 4.27188C6.33708 4.33172 6.26871 4.51945 6.1085 4.66025C5.92887 4.81556 5.6605 4.92404 5.61986 4.93214C5.54861 4.94825 5.18776 4.98388 5.04056 5.06484C4.98883 5.09236 4.89976 5.12468 4.8011 5.21694C4.60526 5.39326 4.34478 5.70878 4.15705 6.08905C3.86905 6.65705 3.58105 8.26057 3.58105 8.26057L3.6458 8.1522C3.6458 8.1522 3.65391 8.0082 3.79791 7.75572C3.9387 7.50334 3.89828 7.22014 4.09401 6.7363C4.17006 6.55188 4.26553 6.31241 4.38201 6.10846C4.56654 5.77673 4.78979 5.49193 5.01475 5.33662C5.382 5.08425 5.78658 5.02921 5.78658 5.02921L6.22188 4.74121C6.22188 4.74121 6.29794 4.59401 6.39831 4.42569C6.539 4.18953 6.7183 3.92574 6.75745 3.54228C6.8174 2.97428 6.67329 2.60212 6.6814 2.26558C6.68951 1.92905 6.69271 1.68148 6.76076 1.62153C6.82881 1.56158 6.78017 1.5843 6.78017 1.5843L6.78006 1.58409Z" fill="#A88F33"/>
<path fill-rule="evenodd" clip-rule="evenodd" d="M6.78 4.12458C6.78 4.12458 6.972 3.65205 7.0599 3.23295C7.07611 3.14879 7.10843 3.06474 7.11654 2.99679C7.15697 2.60031 7.16828 2.4369 7.11654 2.22005C7.07611 2.06005 6.9208 1.91583 6.83984 1.80405C6.76058 1.68746 6.72336 1.64405 6.73957 1.61951C6.75578 1.59498 6.81883 1.55487 6.88027 1.55967C6.94558 1.56158 7.00982 1.57674 7.06909 1.60425C7.12836 1.63175 7.18141 1.67102 7.22502 1.71967C7.34961 1.86367 7.44828 2.35242 7.44828 2.35242L7.55207 2.99733L7.81587 3.80959L6.78021 4.12522L6.78 4.12458Z" fill="#C99E3D"/>
<path fill-rule="evenodd" clip-rule="evenodd" d="M8.58408 3.63275C8.58408 3.63275 8.54845 3.64886 8.48381 3.63275C8.48657 3.65917 8.48198 3.68583 8.47056 3.70981C8.45914 3.73378 8.44132 3.75414 8.41907 3.76864C8.35112 3.74112 7.71507 3.79616 7.71507 3.79616C7.71507 3.79616 7.41896 3.74432 7.32669 3.35275C7.26205 3.09216 7.37523 2.73302 7.338 2.49675C7.28136 2.1488 7.20211 2.08075 7.194 1.97248C7.18589 1.86422 7.17779 1.83659 7.17779 1.76864C7.14216 1.76054 7.12115 1.74923 7.08563 1.74923C7.07752 1.71723 7.09363 1.68928 7.05811 1.63264C7.07752 1.64075 7.21021 1.65696 7.36552 1.80416C7.49352 1.92395 7.49352 1.96758 7.51283 1.9919C7.53704 2.01611 7.73288 2.1839 7.81704 2.35115C7.9012 2.5184 8.06461 3.05174 8.10184 3.1391C8.11315 3.17472 8.13747 3.21035 8.19784 3.2912C8.29171 3.40779 8.4292 3.60054 8.58451 3.63254L8.58408 3.63275Z" fill="#B58634"/>
<path fill-rule="evenodd" clip-rule="evenodd" d="M7.53613 2C7.63416 2.15835 7.72222 2.32265 7.79981 2.49195C7.89528 2.70709 7.95192 2.88352 8.07171 3.02752C8.00696 2.83989 7.89208 2.47093 7.82413 2.33984C7.74808 2.20117 7.59277 2.05184 7.53613 2.00011V2Z" fill="#A88F33"/>
<path fill-rule="evenodd" clip-rule="evenodd" d="M6.4357 4.66026C6.4357 4.66026 6.27229 4.70069 5.96807 4.8609C5.8677 4.91264 5.77234 4.95626 5.68007 4.9968C5.44039 5.10517 5.18332 5.20533 4.97937 5.26058C4.99558 5.28 5.00358 5.288 5.00358 5.288C5.00358 5.288 5.00358 5.36736 5.04732 5.41258C5.0231 5.4369 4.69937 5.65696 4.79494 6.39317C4.85958 6.36896 4.93564 6.33653 4.94694 6.33653C4.96646 6.33984 4.97126 6.39317 4.99548 6.39317C5.01969 6.39317 5.09905 6.36117 5.18321 6.25237C5.18001 6.2961 5.13148 6.73621 5.39196 7.03232C5.44049 6.97568 5.56348 6.78794 5.56348 6.78794L5.56668 6.7281C5.56668 6.7281 5.57799 6.51936 5.64604 6.32842C5.7141 6.13749 5.84668 5.99669 5.84668 5.99669L6.53906 5.008L6.43549 4.66016L6.4357 4.66026Z" fill="#E6C367"/>
<path fill-rule="evenodd" clip-rule="evenodd" d="M5.78755 6.11199C5.75585 6.13439 5.72092 6.15184 5.68397 6.16373C5.67267 6.1233 5.65645 5.9841 5.75192 5.84821C5.8636 5.68469 6.10787 5.47274 6.17581 5.30421C6.21955 5.19573 6.20013 4.92394 6.58851 4.57599C6.97688 4.22805 7.12888 4.10837 7.12888 4.10837L7.75672 3.79285L8.52856 4.09706L8.14509 5.59999L7.84739 6.30399L6.66339 6.08074L5.78744 6.11199H5.78755Z" fill="#DCBA5A"/>
<path fill-rule="evenodd" clip-rule="evenodd" d="M6.24023 5.70394L6.38754 5.51951V5.38842C6.38754 5.38842 6.55096 5.34468 6.72728 5.16505C6.9036 4.98542 7.14798 4.64078 7.36323 4.66179C7.57849 4.68611 7.5995 5.12943 7.60761 5.25412C7.61572 5.37882 7.64324 5.66181 7.68686 5.81402C7.7354 5.96613 7.16259 6.54214 7.16259 6.54214L6.77357 6.83825L6.24023 5.70394Z" fill="#E9CE77"/>
<path fill-rule="evenodd" clip-rule="evenodd" d="M6.69531 7.23946C6.69531 7.23946 6.8151 7.05173 6.72731 7.0113C6.77905 6.89482 6.87452 6.77183 6.87452 6.77183C6.87452 6.77183 6.94246 6.60362 7.16252 6.39647C7.38258 6.18933 7.51858 6.05173 7.55421 5.91263C7.57617 5.82198 7.58812 5.7292 7.58984 5.63594C7.61363 5.65538 7.63908 5.67269 7.66589 5.68767C7.70152 5.70389 7.86974 5.84298 7.84552 6.12298C7.82131 6.40298 7.71752 6.51946 7.71752 6.51946C7.71752 6.51946 7.61725 6.61973 7.5461 6.67157C7.46994 6.7233 7.44253 6.78314 7.31463 6.78805C7.32778 6.7776 7.34255 6.76938 7.35837 6.76373C7.35837 6.76373 7.22567 6.74762 7.15442 6.81226C7.08316 6.8769 6.93169 7.07605 6.85564 7.13599C6.77958 7.18453 6.69563 7.23957 6.69563 7.23957L6.69531 7.23946Z" fill="#CDAE50"/>
<path fill-rule="evenodd" clip-rule="evenodd" d="M12.076 4.09215C11.8848 4.02248 11.6839 3.98318 11.4805 3.97567C11.1407 3.96437 10.644 3.98378 10.1569 3.98698C9.63268 3.99018 9.15695 3.80735 8.4968 3.77503C8.38843 3.71029 8.1128 3.42709 7.25244 4.02741C7.30417 4.02421 7.87707 3.89471 8.076 4.14399C8.27664 4.39157 8.22 4.81226 8.19259 4.91253C8.14075 5.13589 7.97243 5.46111 7.90459 5.68927C7.83675 5.91743 7.85275 6.03733 7.80422 6.19733C7.75569 6.35733 7.64892 6.43679 7.71196 6.62122C7.79611 6.56949 7.83995 6.56949 7.98054 6.25397C8.12112 5.93845 8.09222 5.71349 8.32528 5.4465C8.55344 5.17791 8.93327 4.81055 9.0777 4.71829C9.22212 4.62602 10.3689 4.03061 11.5696 4.59861C11.8592 4.56789 12.0761 4.09205 12.0761 4.09205L12.076 4.09215Z" fill="#D2A83E"/>
<path fill-rule="evenodd" clip-rule="evenodd" d="M7.73628 3.87201C7.73509 3.85985 7.7324 3.84788 7.72828 3.83638C7.71705 3.81271 7.7023 3.79088 7.68454 3.77163C7.68454 3.77163 7.39974 3.7199 7.25575 3.736C7.00327 3.76352 6.77511 4.07585 6.66834 4.23606C6.56157 4.39628 6.42888 4.64375 6.28488 4.77164C6.28645 4.75918 6.28358 4.74657 6.27677 4.73602C6.27677 4.73602 6.28488 4.74732 6.26877 4.76354C6.25266 4.77975 6.25256 4.78775 6.26066 4.79554L6.28498 4.81975C6.29298 4.81975 6.51634 4.71938 6.82055 4.43575C7.14417 4.13964 7.39175 3.98774 7.52124 3.93569C7.59029 3.90634 7.66248 3.88497 7.73638 3.87201H7.73628Z" fill="#C29637"/>
<path fill-rule="evenodd" clip-rule="evenodd" d="M13.2609 2.65536C13.2609 2.65536 13.2091 2.72 13.1444 2.79126C13.0004 2.94336 12.8126 3.11478 12.6524 3.2912C12.5004 3.45952 12.3289 3.59062 12.1363 3.81067C11.9436 4.03072 11.7203 4.27499 11.6637 4.34624C11.612 4.4175 11.5716 4.53398 11.5716 4.59382C11.544 4.5744 11.5117 4.55339 11.5117 4.55339C11.5253 4.5788 11.5416 4.60268 11.5603 4.62464C11.6007 4.68128 11.6637 4.75265 11.6961 4.79616C11.7359 4.85157 11.7645 4.91422 11.7802 4.98059C11.7996 4.98379 11.9242 5.00811 12.0796 4.75243C12.235 4.49675 12.4388 4.21686 12.4388 4.21686L12.7624 3.73622L12.9663 3.32854L13.2223 2.87222L13.2613 2.65536H13.2609Z" fill="#AC8132"/>
<path fill-rule="evenodd" clip-rule="evenodd" d="M13.5923 2.32855C13.5923 2.32855 13.3965 2.48856 13.3205 2.58456C13.2444 2.68056 13.0645 2.93251 13.0645 2.93251L13.1292 2.92441L13.4577 2.6332L13.5857 2.40503L13.5922 2.32898L13.5923 2.32855Z" fill="#A88F33"/>
<path fill-rule="evenodd" clip-rule="evenodd" d="M13.5321 15.1877C13.5321 15.1877 13.5289 15.055 13.6034 14.9758C13.6794 14.8964 13.8719 14.78 14.0597 14.343C14.2474 13.9061 14.2683 13.8075 14.2683 13.8075C14.2683 13.8075 13.9318 14.0955 13.7243 14.1634C13.7729 14.063 13.8004 13.9919 13.8247 13.9401C13.7972 13.9158 13.6807 13.8883 13.6694 13.8754C13.734 13.8107 13.7697 13.6521 13.9007 13.5469C14.0691 13.4189 14.3765 13.1989 14.6154 13.0029C14.8543 12.8068 15.3241 12.3508 15.3841 12.2181C15.4197 12.2699 15.4277 12.3022 15.4277 12.3022C15.4277 12.3022 15.1915 12.6097 15.0685 12.8054C14.9601 12.9738 14.9682 13.0692 14.9682 13.0692L15.1915 12.9732C15.1915 12.9732 15.2562 13.2127 14.9634 13.5769C15.0914 13.5283 15.143 13.5574 15.2157 13.5169C15.0959 13.5931 14.9309 13.6966 14.7756 13.9813C14.6235 14.2661 14.4164 14.5979 14.0669 14.8049C13.7271 15.0234 13.5312 15.1868 13.5312 15.1868L13.5321 15.1877Z" fill="#A67A2E"/>
<path fill-rule="evenodd" clip-rule="evenodd" d="M12.6554 4.26058C12.6554 4.26058 12.5227 4.53717 12.5032 4.75242C12.5 4.80426 12.487 4.84469 12.487 4.90453C12.4838 5.09706 12.4983 5.31231 12.455 5.41258C12.4388 5.37215 12.4307 5.34463 12.4145 5.32853C12.3903 5.39647 12.3465 5.60842 12.3109 5.68767C12.2948 5.63594 12.2592 5.45631 12.2625 5.24437C12.2658 5.03242 12.2705 4.99189 12.2705 4.94826C12.2625 5.0129 12.2187 5.10037 12.2025 5.1521C12.1783 5.10847 12.1508 5.05183 12.1184 5.0049C12.0989 5.0369 12.0747 5.08415 12.0537 5.10847C12.0504 5.08906 12.0424 5.03722 12.0375 4.96447C12.0343 4.88031 12.0294 4.77194 12.0343 4.74922C12.0423 4.70559 12.1104 4.53407 12.2544 4.37706C12.4259 4.18933 12.6023 3.82858 12.6541 3.7169C12.7058 3.60522 12.9259 3.1409 12.9259 3.1409H13.0942L12.8498 3.69749C12.8498 3.69749 12.7026 4.0017 12.6266 4.11349C12.5505 4.22527 12.3903 4.54559 12.319 4.67018C12.3708 4.60223 12.4145 4.56661 12.4663 4.50186C12.5165 4.45653 12.6556 4.26079 12.6556 4.26079L12.6554 4.26058Z" fill="#8C6228"/>
<path fill-rule="evenodd" clip-rule="evenodd" d="M13.5954 2.30742C13.5679 2.39204 13.5245 2.47061 13.4674 2.53889C13.367 2.65867 13.1517 2.81878 13.0467 2.94657C12.9507 3.07115 12.7586 3.41099 12.8459 3.81387C12.8779 3.72651 12.9382 3.55339 13.0984 3.35755C13.2586 3.16171 13.4302 2.93686 13.5144 2.76214C13.5985 2.58571 13.6098 2.44662 13.6098 2.44662L13.6418 2.40619L13.6224 2.31393L13.5949 2.30742H13.5954Z" fill="#CBA94C"/>
<path fill-rule="evenodd" clip-rule="evenodd" d="M16.8725 13.0405C16.8725 13.0405 16.8078 12.8641 16.7883 12.7039C16.7689 12.5437 16.8203 12.5119 16.7608 12.3286C16.7252 12.2169 16.6606 12.2326 16.6443 12.2169C16.6281 12.2012 16.6168 12.0325 16.62 11.9402C16.6232 11.8479 16.6168 11.7282 16.6006 11.6764C16.5764 11.657 16.5602 11.6408 16.5246 11.5211C16.4841 11.4013 16.4647 11.3415 16.4453 11.306C16.4259 11.2704 16.3691 11.238 16.3691 11.2024C16.3691 11.1311 16.4339 11.094 16.4339 11.0744C16.4307 11.034 16.3822 11.0664 16.3691 11.055C16.353 11.0356 16.4097 10.9191 16.3887 10.9029C16.3806 10.8949 16.3239 10.9628 16.3093 10.9434C16.2931 10.9239 16.2737 10.7313 16.2446 10.6036C16.2171 10.479 16.1879 10.3884 16.1847 10.3512C16.1815 10.3156 15.9614 9.68771 15.908 9.53561C15.865 9.40708 15.8289 9.27637 15.7996 9.14403C15.7834 9.06798 15.7721 8.91257 15.764 8.92878C15.7559 8.94499 15.7608 9.02425 15.7478 9.02105C15.7365 9.01774 15.6961 8.74115 15.6832 8.69742C15.6719 8.65369 15.6038 8.50542 15.5872 8.39811C15.5709 8.28963 15.5354 8.00643 15.5111 7.8139C15.4868 7.62137 15.4755 7.54211 15.4755 7.4939C15.4795 7.37598 15.473 7.25793 15.4561 7.14115C15.4241 6.93721 15.3601 6.68963 15.304 6.54574C15.1956 6.27385 14.9075 5.57806 14.856 5.40494C14.856 5.36121 14.9126 5.38553 14.9126 5.38553C14.9126 5.38553 15.0533 5.73827 15.1569 6.01006C15.2572 6.28195 15.3527 6.52142 15.377 6.54574C15.3964 6.56995 15.5485 6.83694 15.6165 7.27385C15.6844 7.71075 15.7087 8.11363 15.7492 8.38222C15.7686 8.51022 15.7848 8.64601 15.8252 8.7819C15.8689 8.92921 15.9368 9.08131 16.0259 9.31427C16.1019 9.51011 16.1586 9.67353 16.1893 9.81433C16.2249 9.99395 16.2249 10.1298 16.2459 10.2189C16.2655 10.295 16.2945 10.447 16.3625 10.6669C16.4306 10.8869 16.5307 11.1702 16.5987 11.3465C16.7315 11.6992 16.7907 11.9937 16.8107 12.1508C16.8285 12.3126 16.8884 12.8725 16.8722 13.0407L16.8725 13.0405Z" fill="#A88F33"/>
<path fill-rule="evenodd" clip-rule="evenodd" d="M13.6034 2.288L13.5953 2.30742C13.5953 2.30742 13.6195 2.31552 13.6147 2.34795C13.615 2.39232 13.6123 2.43665 13.6066 2.48064C13.5986 2.53728 13.5823 2.58091 13.5791 2.61654C13.5791 2.69259 13.5905 2.77995 13.4832 2.99681C13.4512 3.05665 13.4314 3.10838 13.4152 3.14401C13.3748 3.23137 13.3667 3.24438 13.3311 3.28481C13.3877 3.25281 13.5916 3.12481 13.6951 3.14401C13.6239 3.18444 13.5155 3.2638 13.4475 3.36737C13.4637 3.37057 13.5317 3.38358 13.6395 3.36737C13.8191 3.33985 14.0198 3.2751 14.1961 3.28801C14.3887 3.29932 14.3127 3.05665 14.3127 3.05665L14.0904 2.56801L13.6697 2.272L13.6034 2.28811V2.288Z" fill="#BE9C44"/>
<path fill-rule="evenodd" clip-rule="evenodd" d="M14.7004 5.94826C14.7004 5.94826 14.5127 5.76052 14.4367 5.11626C14.3606 4.469 14.3768 3.51626 14.3768 3.51626L14.2247 3.1441C14.2247 3.1441 14.1927 2.89652 14.113 2.80436C14.0334 2.7122 13.8769 2.55679 13.8056 2.48074C13.7344 2.40468 13.6535 2.30111 13.605 2.2849C13.6292 2.24447 13.7377 2.01631 14.1535 2.01311C14.5692 2.00991 14.6975 2.24127 14.7409 2.32543C14.7843 2.40959 14.9803 2.77343 15.0531 3.46676C15.121 4.15924 15.1243 4.21108 15.113 4.45055C15.1049 4.58324 15.0612 4.89066 14.985 5.21908C14.9155 5.49748 14.8394 5.8082 14.7002 5.9489L14.7004 5.94826Z" fill="#A17C34"/>
<path fill-rule="evenodd" clip-rule="evenodd" d="M14.1115 6.50005C14.1741 6.50457 14.2366 6.49047 14.2911 6.45952C14.351 6.45632 14.5678 6.48384 14.7344 6.2719C14.7457 6.32032 14.7749 6.45152 14.6988 6.568C14.7393 6.52747 14.7992 6.51136 14.8073 6.50005C14.8105 6.55989 14.8671 6.74432 14.6276 7.19253C14.6923 7.12138 14.7683 7.12458 14.8363 7.11647C14.8396 7.20063 14.8848 7.48372 14.7651 7.63594C14.6859 7.73951 14.5564 7.70708 14.5564 7.70708C14.5583 7.68447 14.5583 7.66174 14.5564 7.63914C14.5532 7.5954 14.537 7.55178 14.5484 7.52266C14.4858 7.49408 14.4288 7.4546 14.3801 7.40607C14.2393 7.27338 14.0565 7.04693 14.0436 6.87861C14.0274 6.69088 14.1957 6.65045 14.1957 6.65045C14.1816 6.63784 14.1696 6.62308 14.1601 6.60672C14.1519 6.57931 14.1438 6.53557 14.1115 6.50005Z" fill="#8C6228"/>
<path fill-rule="evenodd" clip-rule="evenodd" d="M12.8637 4.46442C12.8637 4.46442 12.8556 4.45311 12.812 4.50485C12.8201 4.45311 12.8282 4.40447 12.8314 4.35754C12.8521 4.31409 12.8788 4.27379 12.9108 4.23786C12.8865 4.28629 12.8703 4.33002 12.8703 4.33002C12.8703 4.33002 12.9302 4.21834 13.0176 4.15039C13.0774 4.10186 13.1535 4.07925 13.1858 4.03391C13.2214 3.98538 13.2133 3.97727 13.2214 3.96917C13.2214 3.96917 13.3008 3.91743 13.4222 3.76522C13.4383 3.74581 13.4626 3.72479 13.4788 3.70538C13.5062 3.69407 13.571 3.66495 13.647 3.62602C13.7264 3.58239 13.8154 3.52255 13.8704 3.49802C13.9788 3.44949 14.0938 3.45439 14.1471 3.37823C14.1875 3.36693 14.2311 3.24554 14.2231 3.14207C14.283 3.16629 14.5904 3.35722 14.6957 3.77471C14.7718 4.07082 14.6358 4.52714 14.5791 4.7473C14.5225 4.96746 14.5145 5.13077 14.4351 5.23103C14.3347 5.36383 14.0112 5.55103 13.9318 5.64373C13.8639 5.71978 13.66 5.91232 13.668 6.05141C13.6761 6.15498 13.8039 6.21141 13.8316 6.23103C13.8592 6.25066 13.859 6.27477 13.9108 6.26303C13.9627 6.2513 13.982 6.22741 14.0031 6.22741C14.0273 6.23061 14.0273 6.23552 14.0386 6.23552C14.0468 6.23527 14.055 6.23416 14.0629 6.23221C14.0629 6.23221 14.0548 6.37952 13.7102 6.42421C13.6859 6.42752 13.6616 6.43551 13.6308 6.44042C13.6713 6.42101 13.6956 6.42101 13.7393 6.36117C13.6908 6.35306 13.5516 6.34496 13.5159 6.33365C13.5272 6.31424 13.5645 6.2624 13.5952 6.23818C13.6227 6.21397 13.592 6.20618 13.5678 6.21877C13.5261 6.24713 13.4861 6.2779 13.448 6.31093C13.4076 6.34656 13.3719 6.39509 13.3072 6.43893C13.2878 6.37418 13.291 6.2512 13.3671 6.16224C13.3476 6.16544 13.3104 6.22208 13.2749 6.21077C13.2684 6.15175 13.2723 6.09206 13.2862 6.03434C13.3056 5.96149 13.4108 5.8337 13.4108 5.8337L13.9188 4.92586L14.0272 4.23818L12.8637 4.46421V4.46442Z" fill="#92723A"/>
<path fill-rule="evenodd" clip-rule="evenodd" d="M12.8365 4.50325C12.8365 4.50325 12.8089 4.52266 12.864 4.55989C12.8559 4.5712 12.8365 4.61162 12.8121 4.63914C12.7847 4.67114 12.7555 4.69098 12.7442 4.7185C12.72 4.77514 12.7006 4.81397 12.7006 4.83829C12.7006 4.86261 12.6925 5.01792 12.6245 5.11818C12.6002 5.15381 12.5727 5.21365 12.5532 5.25408C12.5128 5.32522 12.4772 5.38208 12.4691 5.41408C12.453 5.47072 12.4417 5.62602 12.4417 5.62602C12.4417 5.62602 12.4773 5.58229 12.4902 5.56618C12.4707 5.60661 12.4497 5.65024 12.4189 5.68266C12.4384 5.66645 12.495 5.62602 12.5905 5.54186C12.7232 5.43029 12.9303 5.24256 13.1828 5.09386C13.1067 5.12138 13.042 5.12138 12.9903 5.12949C13.0307 5.08906 13.3948 4.66186 13.5857 4.62144C13.5973 4.60674 13.6031 4.58828 13.602 4.5696L13.4384 4.55349L13.1067 4.62464L13.0582 4.36864L12.8365 4.50293V4.50325Z" fill="#B18E3E"/>
<path fill-rule="evenodd" clip-rule="evenodd" d="M13.3641 5.95957C13.3641 5.95957 13.3204 6.0032 13.2799 6.11168C13.2488 6.07918 13.2221 6.0427 13.2006 6.0032C13.1407 5.90293 13.0486 5.77504 12.8333 5.84789C12.8301 5.77994 12.8252 5.74432 12.8333 5.69578C12.869 5.68778 12.9773 5.60042 13.0857 5.47253C13.1619 5.38517 13.233 5.2848 13.2815 5.15701C13.3135 5.13269 13.3689 5.09226 13.4415 5.04533C13.5451 4.97418 13.6697 4.87701 13.6891 4.76864C13.6406 4.78805 13.537 4.83658 13.3816 4.82858C13.4415 4.80106 13.5337 4.77194 13.5224 4.65216C13.5467 4.63594 13.5661 4.62464 13.5661 4.62464C13.5479 4.61855 13.5287 4.61581 13.5095 4.61653C13.5062 4.60522 13.5014 4.58912 13.4739 4.59712C13.4463 4.60512 13.4419 4.60522 13.4382 4.61653C13.4269 4.61984 13.3897 4.61653 13.3622 4.63605C13.3347 4.65557 13.2586 4.7201 13.2295 4.73141C13.2408 4.712 13.2569 4.68298 13.2569 4.68298C13.2569 4.68298 13.1776 4.69098 13.121 4.71498C13.0174 4.75061 12.8978 4.81536 12.7764 4.8784C12.7877 4.85898 12.7926 4.8464 12.8006 4.84277C12.8086 4.83914 12.8281 4.83477 12.8281 4.83146C12.8281 4.82816 12.8201 4.79946 12.8249 4.78784C12.8612 4.71096 12.904 4.63733 12.9529 4.56778C13.0095 4.49162 13.0208 4.38325 13.0208 4.38325L13.2684 4.25866L13.9642 4.09866L14.4157 4.12618L14.3591 4.4385L14.0924 4.98378L13.8643 5.48053L13.6037 5.78485L13.3642 5.95957H13.3641Z" fill="#543E26"/>
<path fill-rule="evenodd" clip-rule="evenodd" d="M14.4916 4.608C14.4916 4.608 14.2197 4.94453 14.1437 4.99637C14.1922 4.8928 14.4916 4.27626 14.6 4.10474C14.5757 4.08533 14.5433 4.08533 14.6194 3.78474C14.5547 3.93674 14.532 4.0161 14.4787 4.05653C14.4254 4.09696 14.4187 4.08405 14.3827 4.08405C14.3895 4.07174 14.3923 4.0576 14.3907 4.04362C14.3907 4.04362 14.1625 4.0161 14.0067 4.0161C13.8509 4.0161 13.5424 4.10026 13.3708 4.16821C13.2349 4.22485 13.1588 4.22485 13.1103 4.26037C13.0618 4.3008 13.0343 4.34453 13.0099 4.35584C12.9905 4.36714 12.8984 4.39626 12.8772 4.42698C12.8578 4.45898 12.8255 4.49493 12.8255 4.50304C12.8255 4.51114 12.8174 4.52256 12.8417 4.51434C12.8497 4.51114 12.9097 4.47872 12.9776 4.43829C13.0698 4.38656 13.1815 4.32672 13.2624 4.29109C13.4938 4.19882 13.5666 4.21504 13.6701 4.19562C13.7784 4.17621 13.9339 4.13088 14.0373 4.13088C14.1409 4.12768 14.3367 4.13088 14.382 4.13898C14.3626 4.1552 14.3464 4.17461 14.3545 4.24256C14.3545 4.26197 14.3383 4.28298 14.3225 4.32992C14.2741 4.46261 14.1818 4.68266 14.1305 4.79434C14.0594 4.94634 13.9785 5.07424 13.9385 5.15349C13.8985 5.23274 13.8105 5.44149 13.7234 5.55317C13.6363 5.66485 13.5907 5.7328 13.5634 5.75712C13.5361 5.78144 13.3401 5.92533 13.3547 5.97717C13.3903 5.96586 13.6152 5.88117 13.7786 5.69728C13.9419 5.51338 13.9744 5.40117 14.1022 5.3008C14.2299 5.20042 14.3303 5.03221 14.3902 4.89312C14.4403 4.76362 14.429 4.7232 14.492 4.60832L14.4916 4.608Z" fill="#806031"/>
<path fill-rule="evenodd" clip-rule="evenodd" d="M8.63317 7.11979C8.63317 7.11979 8.59755 7.26699 8.51659 7.33984C8.43734 7.41109 8.29655 7.47253 8.28044 7.59232C8.26103 7.712 8.42124 7.77195 8.42124 7.77195C8.42124 7.77195 8.33377 7.91595 8.33377 8.02432C8.33377 8.136 8.33057 8.15701 8.34188 8.26379C8.32905 8.27204 8.31813 8.28296 8.30988 8.29579C8.30988 8.29579 8.31788 8.39936 8.39724 8.464C8.47659 8.52864 8.54443 8.56757 8.58486 8.55136C8.59103 8.56455 8.59644 8.57809 8.60107 8.59189C8.60107 8.59189 8.66101 8.43979 8.70144 8.30709C8.74186 8.1712 8.77749 8.19051 8.79359 8.00768C8.8097 7.82485 8.98559 7.51093 8.98559 7.51093L9.10558 7.24267L8.90986 7.09056L8.63317 7.11968V7.11979Z" fill="#B6903C"/>
<path fill-rule="evenodd" clip-rule="evenodd" d="M8.99649 7.38347C8.95612 7.4249 8.91886 7.46925 8.88501 7.51616C8.83328 7.58742 8.79285 7.65206 8.7168 7.67968C8.64074 7.70731 8.59221 7.7071 8.59701 7.78326C8.60181 7.85942 8.67306 7.89163 8.71349 7.93046C8.75722 7.97088 8.79285 8.03883 8.77344 8.11499C8.79765 8.10368 8.84139 8.09067 8.88181 8.00331C8.92224 7.91595 9.20502 7.38358 9.20502 7.38358H8.99649V7.38347Z" fill="#685026"/>
<path fill-rule="evenodd" clip-rule="evenodd" d="M10.112 6.1553C10.112 6.1553 10.1362 6.09066 10.112 6.04373C10.0877 5.9952 9.94051 5.97899 9.86766 5.92395C9.7916 5.86731 9.69934 5.82795 9.62328 5.8528C9.63459 5.82528 9.67992 5.76533 9.6427 5.75243C9.60707 5.74112 9.47449 5.80096 9.43886 5.82848C9.40323 5.856 9.32227 5.88832 9.30617 5.90784C9.29006 5.92736 9.26243 5.96448 9.24622 5.94827C9.23001 5.93696 9.22201 5.90784 9.19449 5.92395C9.16697 5.94005 9.03449 6.04853 9.01006 6.11168C8.98564 6.17482 8.9307 6.31562 8.76569 6.47573C8.60068 6.63583 8.52943 6.73951 8.57796 6.79935C8.62649 6.85919 8.64921 6.81556 8.65732 6.8673C8.66356 6.91808 8.66081 6.96957 8.64921 7.0194C8.6298 7.10356 8.59748 7.18281 8.64111 7.19903C8.75278 7.23465 8.86126 7.16703 8.88548 7.18772C8.93401 7.23135 8.85796 7.38836 8.97284 7.41908C9.08942 7.45108 9.2043 7.39156 9.2043 7.39156L9.62819 7.1634L10.036 6.94826L10.2446 6.53557L10.1327 6.19093L10.1114 6.1553H10.112Z" fill="#D4B968"/>
<path fill-rule="evenodd" clip-rule="evenodd" d="M9.71242 7.1408C9.71242 7.1408 9.64117 7.03242 9.72863 6.93685C9.8161 6.84128 9.94057 6.80096 9.9891 6.74112C9.97986 6.72972 9.96747 6.7213 9.95348 6.71691C9.98569 6.65926 10.0348 6.6129 10.0943 6.58411C10.0701 6.55989 10.0376 6.54048 10.0021 6.54048C9.92276 6.54048 9.87412 6.58901 9.80138 6.58901C9.73023 6.58901 9.72212 6.55339 9.72212 6.55339C9.72212 6.55339 9.84191 6.54208 9.83049 6.48864C9.81919 6.432 9.7985 6.432 9.7985 6.432C9.7985 6.432 10.0298 6.336 10.0703 6.2848C10.1107 6.2336 10.1059 6.17312 10.114 6.14891C10.1414 6.14891 10.3016 6.06475 10.3664 6.10038C10.4311 6.136 10.3858 6.23307 10.3858 6.23307C10.3858 6.23307 10.5817 6.08577 10.6816 5.94134C10.7689 5.94945 10.8096 5.8815 10.8736 5.8815C10.9529 5.8815 11.0775 5.98987 11.1017 6.22123C11.1179 6.35392 11.1421 6.42998 11.1179 6.66464C11.1066 6.79733 11.1098 7.08064 11.1499 7.22122C11.1773 7.3329 11.2421 7.3216 11.2421 7.3216C11.2321 7.35563 11.2125 7.386 11.1854 7.40896C11.1417 7.44938 11.1369 7.55626 11.1417 7.59669C11.1482 7.62624 11.1563 7.65541 11.166 7.68405C11.166 7.68405 11.1143 7.74389 11.1013 7.78442C11.09 7.82484 11.0366 7.85236 10.9977 7.85236C10.9588 7.85236 10.9783 7.84906 10.9266 7.85236C10.8748 7.85567 10.8586 7.86367 10.8262 7.85236C10.7938 7.84106 10.7696 7.82804 10.7826 7.72437C10.7939 7.62079 10.3829 7.37973 10.3829 7.37973L9.71092 7.14026L9.71242 7.1408Z" fill="#CCA849"/>
<path fill-rule="evenodd" clip-rule="evenodd" d="M8.94047 8.16341C8.94047 8.16341 9.08767 8.35925 9.69288 8.35925C9.98088 8.35925 10.0812 8.33174 10.1409 8.31552C10.2056 8.29931 10.4483 8.20395 10.6926 7.91584C10.9127 7.65536 10.8642 7.54859 10.8642 7.54859L10.7362 7.52917L10.3202 7.58581L9.08927 8.11008L8.93994 8.16341H8.94047Z" fill="#585136"/>
<path fill-rule="evenodd" clip-rule="evenodd" d="M9.39197 8.2119C9.39197 8.2119 8.86768 8.32848 8.86768 7.99676C8.86768 7.67315 9.19132 7.33332 9.27228 7.27349C9.35645 7.21354 9.5571 7.14549 9.5571 7.14549H10.041L10.1331 7.38986L10.0927 7.9173L9.39197 8.21179V8.2119Z" fill="#252211"/>
<path fill-rule="evenodd" clip-rule="evenodd" d="M9.87549 7.24438C9.87549 7.24438 9.77522 7.15211 9.54706 7.27638C9.3189 7.40065 9.13436 7.66038 9.12305 7.89623C9.11175 8.10487 9.29458 8.26029 9.57938 8.2684C9.79133 8.2764 9.91922 8.25218 9.98397 8.2364C9.96775 8.21698 9.88359 8.11181 9.88359 8.11181L9.87559 7.24448L9.87549 7.24438Z" fill="#C3B378"/>
<path fill-rule="evenodd" clip-rule="evenodd" d="M9.77694 7.29601C9.77694 7.29601 9.75273 7.27659 9.68094 7.31542C9.6211 7.34742 9.53374 7.432 9.4658 7.49184C9.42206 7.52746 9.39454 7.54357 9.3698 7.57109C9.26943 7.69087 9.18527 7.8867 9.23391 7.98376C9.28255 8.08082 9.44265 8.1925 9.85043 8.11645L9.77577 7.29611L9.77694 7.29601Z" fill="#E6D89C"/>
<path fill-rule="evenodd" clip-rule="evenodd" d="M9.64365 7.49676C9.64365 7.49676 9.57891 7.59713 9.57891 7.75735C9.57891 7.92077 9.67117 8.18125 10.011 8.20067C10.2715 8.21688 10.4462 7.8253 10.6355 7.67319C10.7795 7.55671 10.8669 7.5534 10.8669 7.5534C10.8669 7.5534 10.7197 7.3934 10.3265 7.18614C9.93815 6.97739 9.50286 6.94987 9.2666 7.2703C9.37828 7.26219 9.73912 7.16993 9.73912 7.16993L9.91554 7.22657L9.64365 7.49687V7.49676Z" fill="#252211"/>
<path fill-rule="evenodd" clip-rule="evenodd" d="M10.1523 7.70868C10.141 7.68447 10.1329 7.65204 10.1798 7.64404C10.2268 7.63604 10.2478 7.64074 10.264 7.67604C10.2802 7.71135 10.296 7.74079 10.272 7.7554C10.2478 7.76831 10.1846 7.7554 10.1522 7.70847L10.1523 7.70868ZM10.0763 7.48053C10.0763 7.48053 10.0601 7.49183 10.0682 7.46922C10.0714 7.44181 10.0925 7.39317 10.1442 7.40458C10.1959 7.416 10.1847 7.47253 10.1762 7.48874C10.1677 7.50495 10.1245 7.53237 10.0921 7.52074C10.088 7.51969 10.0842 7.51768 10.081 7.51489C10.0778 7.51209 10.0753 7.50858 10.0737 7.50464C10.0721 7.5007 10.0715 7.49645 10.0719 7.49222C10.0723 7.48799 10.0736 7.48391 10.0759 7.48031L10.0763 7.48053Z" fill="#6F674D"/>
<path fill-rule="evenodd" clip-rule="evenodd" d="M5.6958 7.58401C5.6958 7.58401 5.8238 7.68001 5.97249 7.67627C6.11969 7.67297 6.30903 7.52097 6.39639 7.42379C6.44812 7.36715 6.49239 7.30731 6.54039 7.26038C6.58092 7.21995 6.60833 7.20054 6.62775 7.17302C6.65527 7.14102 6.68439 7.08086 6.699 7.06134C6.66337 7.08886 6.61164 7.1375 6.5582 7.16982C6.50647 7.20182 6.39479 7.26198 6.34945 7.27819C6.30583 7.29441 5.85271 7.53419 5.85271 7.53419L5.6958 7.58401Z" fill="#AC924C"/>
<path fill-rule="evenodd" clip-rule="evenodd" d="M5.8916 6.38838C5.8916 6.38838 5.96275 6.33985 6.10035 6.30902C6.23304 6.27702 6.50003 6.25238 6.50003 6.25238L6.72008 6.34838L6.80744 6.68011L6.64744 7.02486L6.4436 7.15286L6.21213 6.7807L5.89213 6.38902L5.8916 6.38838Z" fill="#9F8E57"/>
<path fill-rule="evenodd" clip-rule="evenodd" d="M5.6035 6.68449L5.52734 6.74135C5.52734 6.74135 5.54686 6.70572 5.56297 6.59735C5.57908 6.48897 5.66334 6.22518 5.78633 6.07307C5.90932 5.92096 5.90612 5.92906 5.90612 5.92906C5.8948 5.927 5.88317 5.92736 5.87201 5.93014C5.86084 5.93292 5.8504 5.93804 5.84137 5.94517C5.85759 5.90933 5.96116 5.78133 6.06473 5.71733C6.16831 5.65333 6.20873 5.63317 6.31711 5.68533C6.42548 5.73749 6.453 5.76458 6.53236 5.76138C6.61172 5.75818 6.67956 5.67402 6.67956 5.67402C6.67956 5.67402 6.69578 5.72575 6.63594 5.84554C6.5761 5.96533 6.33983 6.2096 6.33983 6.2096L5.84788 6.54614L5.6035 6.68481V6.68449Z" fill="#EAC970"/>
<path fill-rule="evenodd" clip-rule="evenodd" d="M5.96771 6.34794C5.96771 6.34794 6.32377 6.39648 6.43214 6.29621C6.43534 6.30752 6.44835 6.30752 6.44835 6.31562C6.44748 6.32173 6.44463 6.32739 6.44025 6.33173C6.45203 6.32985 6.46394 6.32878 6.47587 6.32853C6.49012 6.33277 6.50478 6.33549 6.51961 6.33663C6.53154 6.33638 6.54345 6.33527 6.55523 6.33333C6.55411 6.34137 6.55137 6.34911 6.5472 6.35607C6.54302 6.36303 6.53748 6.36908 6.53091 6.37386C6.54713 6.37386 6.56291 6.37706 6.56291 6.38997C6.56291 6.40287 6.56611 6.44181 6.5467 6.44991C6.53062 6.45436 6.5135 6.4532 6.49817 6.44661C6.49945 6.47724 6.50777 6.50717 6.52249 6.53407C6.55449 6.59391 6.62275 6.66207 6.71449 6.64245C6.71449 6.64245 6.76291 6.75893 6.55907 7.01781C6.53166 7.05343 6.50243 7.10197 6.46691 7.14239C6.45288 7.17299 6.44215 7.20499 6.43491 7.23786C6.43491 7.23786 6.77966 7.10517 6.87833 6.80255C6.9787 6.49834 6.99811 6.19903 6.9787 5.91914C6.97539 5.83978 6.96249 5.78325 6.94307 5.74272C6.89454 5.64234 6.75854 5.65855 6.70361 5.71519C6.62425 5.79455 6.49155 5.99189 6.30713 6.12778C6.11939 6.26367 6.11139 6.28778 5.96729 6.34794H5.96771Z" fill="#D7BC6B"/>
<path fill-rule="evenodd" clip-rule="evenodd" d="M5.54037 6.78485C5.54037 6.78485 5.47243 6.82528 5.4368 6.97685C5.40117 7.13216 5.4688 7.32149 5.50795 7.38133C5.54709 7.44117 5.63595 7.60469 5.82027 7.6128C5.8659 7.61256 5.91101 7.6032 5.95297 7.58528C6.01731 7.55578 6.07767 7.51825 6.1326 7.4736C6.21196 7.41376 6.2766 7.36203 6.26849 7.35712C6.24908 7.34901 5.77985 6.96064 5.77985 6.96064L5.60342 6.76373L5.54027 6.78507L5.54037 6.78485Z" fill="#585136"/>
<path fill-rule="evenodd" clip-rule="evenodd" d="M5.98383 7.4288C5.98383 7.4288 6.0793 7.4208 6.13595 7.38517C6.19259 7.34954 5.8042 6.96448 5.8042 6.96448L5.83172 7.38048L5.98383 7.4288Z" fill="#453A25"/>
<path fill-rule="evenodd" clip-rule="evenodd" d="M5.57162 6.75563C5.57162 6.75563 5.52309 6.84789 5.52309 6.87221C5.51498 6.95147 5.5393 7.20064 5.55871 7.27989C5.57813 7.36405 5.6833 7.49184 5.8193 7.49184C5.90335 7.49184 6.01993 7.44011 6.01993 7.4272C6.01993 7.41099 5.90015 7.3952 5.86783 7.33493C5.84842 7.30293 5.84031 7.22336 5.83583 7.14293C5.83263 7.0912 5.83263 7.03456 5.85204 7.01493C5.89577 6.9664 5.90377 6.8272 5.90377 6.8272L6.05908 6.53867H5.85481L5.61045 6.69077L5.57162 6.75563Z" fill="#84754B"/>
<path fill-rule="evenodd" clip-rule="evenodd" d="M5.51074 6.84468C5.51074 6.84468 5.67074 6.63274 5.81495 6.5841C5.95916 6.53546 6.02369 6.56469 6.02369 6.56469L5.93953 6.77994L5.81975 6.91263L5.82785 6.98057C5.82785 6.98057 5.80833 7.1602 5.92812 7.28478C6.0479 7.40937 6.13686 7.40457 6.1887 7.40457C6.24053 7.40457 6.38933 7.36084 6.46538 7.18121C6.53333 7.013 6.58996 6.79722 6.45407 6.5809C6.32128 6.36565 6.08673 6.35733 6.04139 6.35733C5.99606 6.35733 5.64013 6.37514 5.51074 6.84436V6.84468Z" fill="#252211"/>
<path fill-rule="evenodd" clip-rule="evenodd" d="M9.6197 7.56468C9.55986 7.53716 9.6165 7.36895 9.67634 7.31711C9.73619 7.26527 9.81224 7.20554 9.94504 7.19733C9.99347 7.19413 10.0404 7.22485 10.0324 7.25727C10.0211 7.31711 9.93694 7.40127 9.86088 7.46111C9.75571 7.54367 9.68765 7.5954 9.6197 7.56468Z" fill="#F7F7E7"/>
<path fill-rule="evenodd" clip-rule="evenodd" d="M6.38337 6.64725C6.4271 6.64405 6.48375 6.67925 6.49506 6.72661C6.50636 6.77835 6.46753 6.88193 6.38337 6.88193C6.31541 6.88193 6.27979 6.79776 6.27979 6.77355C6.28055 6.75364 6.28611 6.73421 6.296 6.71691C6.2992 6.712 6.30731 6.65536 6.38337 6.64725Z" fill="#F8F6DE"/>
<path fill-rule="evenodd" clip-rule="evenodd" d="M5.7529 6.68448C5.7529 6.68448 5.64122 6.73621 5.58949 6.84447C5.55252 6.92441 5.54134 7.01387 5.55749 7.10046C5.5656 7.14088 5.60602 7.24114 5.63354 7.27677C5.66106 7.31239 5.69829 7.33671 5.72581 7.33341C5.75333 7.3301 5.80986 7.25736 5.80986 7.21373C5.80986 7.17011 5.81317 6.98558 5.8665 6.88521C5.91344 6.78495 5.75322 6.68459 5.75322 6.68459L5.7529 6.68448Z" fill="#D4C38B"/>
<path fill-rule="evenodd" clip-rule="evenodd" d="M5.7691 6.67636C5.74969 6.68766 5.71737 6.70388 5.72537 6.72489C5.73348 6.7443 5.80142 6.75689 5.82574 6.80424C5.85326 6.85277 5.85326 6.9045 5.84516 6.92882C5.86629 6.91878 5.88547 6.90506 5.9018 6.88829C5.93742 6.84787 5.98105 6.79294 6.01828 6.79294C6.0426 6.79294 6.06681 6.80424 6.08953 6.80424C6.12516 6.80424 6.16068 6.79294 6.16559 6.75571C6.17359 6.70718 6.09764 6.66345 6.05391 6.67156C6.06201 6.63956 6.07332 6.59231 6.03769 6.55989C6.00206 6.52746 5.89049 6.5842 5.86617 6.60042C5.84185 6.61663 5.7691 6.67646 5.7691 6.67646V6.67636Z" fill="#E2D59D"/>
<path fill-rule="evenodd" clip-rule="evenodd" d="M8.33949 10.0761L8.57896 10.0053L8.6469 10.0539C8.6469 10.0539 8.69533 10.1574 8.77149 10.1704C8.74717 10.2221 8.68402 10.2664 8.68733 10.303C8.69064 10.3397 8.72296 10.3678 8.72296 10.3678C8.72296 10.3678 8.5077 10.7237 8.9317 11.0825C8.83133 11.1229 8.70354 11.1785 8.6356 11.2105C8.68402 11.2218 8.7876 11.2425 8.83133 11.2817C8.87506 11.321 8.87506 11.3334 8.91549 11.3578C8.95592 11.3821 8.98013 11.4144 8.97213 11.4289C8.94461 11.4127 8.85234 11.3643 8.83624 11.4095C8.82013 11.4547 8.43656 11.437 8.43656 11.437L7.7893 11.5616C7.7893 11.5616 7.81352 11.4969 7.74557 11.437C7.66632 11.3659 7.56925 11.4402 7.46568 11.361C7.32978 11.2574 7.32488 11.1376 7.28125 11.0924C7.32488 11.0649 7.41394 11.0244 7.62589 10.9964C7.61778 10.9802 7.59026 10.9316 7.60648 10.888C7.62589 10.8314 7.70674 10.7957 7.68253 10.728C7.71816 10.7199 7.73426 10.7199 7.82333 10.6082C7.90749 10.4965 7.95922 10.4723 8.02397 10.4642C8.08872 10.4561 8.12754 10.4642 8.24733 10.3525C8.33138 10.2733 8.30397 10.2053 8.30397 10.2053C8.30397 10.2053 8.3589 10.1875 8.3396 10.0758L8.33949 10.0761Z" fill="#CBAC5A"/>
<path fill-rule="evenodd" clip-rule="evenodd" d="M7.6327 10.1121C7.6359 10.0958 7.64891 10.0877 7.73627 10.0958C7.82363 10.104 8.37703 10.0441 8.52754 10.036C8.67964 10.0247 9.21522 10.0327 9.47581 10.0877C9.7364 10.1428 10.0001 10.2075 10.1279 10.2398C10.2559 10.2755 10.2962 10.2882 10.2913 10.3045C10.2881 10.3207 10.2593 10.3365 10.2428 10.332C10.2266 10.3288 9.80264 10.1993 9.67166 10.172C9.54067 10.1447 9.08744 10.0716 8.83965 10.076C8.60828 10.0793 8.51602 10.0728 8.32028 10.0954C8.12444 10.1197 7.80081 10.1521 7.70374 10.1391C7.60774 10.1278 7.62758 10.1278 7.63249 10.1116L7.6327 10.1121Z" fill="#D6BC6F"/>
<path fill-rule="evenodd" clip-rule="evenodd" d="M8.9355 11.3803C8.9355 11.3803 9.26724 11.5599 9.38702 11.7799C9.47438 11.9434 9.33529 12.0243 9.33529 12.0243C9.33529 12.0243 9.52302 12.0243 9.4987 12.1279C9.4874 12.1925 9.17507 12.3672 8.96633 12.4595C8.75438 12.5518 8.76249 12.547 8.65891 12.5631C8.55854 12.5793 8.28344 12.5311 8.2268 12.6116C8.17016 12.6921 8.1948 12.7751 8.21059 12.788C8.2268 12.7993 8.3579 12.8156 8.3579 12.8156C8.3579 12.8156 8.33038 12.8916 8.05859 12.8997C7.7868 12.9078 7.71875 12.9271 7.70253 12.9564C7.68632 12.9838 7.75427 12.9677 7.87896 12.9884C8.00355 13.0078 8.17827 13.0203 8.17827 13.0203C8.17827 13.0203 8.12163 13.0689 7.97443 13.1077C7.80611 13.1513 7.54232 13.1919 7.46306 13.2404C7.50349 13.2679 7.56344 13.3083 7.59106 13.3115C7.52312 13.3278 7.42754 13.3634 7.41144 13.3763C7.43565 13.3925 7.46808 13.4119 7.46808 13.4119C7.46808 13.4119 7.33208 13.5753 7.25282 13.6159C7.17357 13.6564 6.71725 13.8682 6.56023 13.8278C6.16866 13.7242 6.12012 13.2954 6.02465 13.2631C5.88065 13.2146 5.81271 13.3115 5.68481 13.2436C5.74145 13.2032 5.77228 13.179 5.83212 13.1514C5.76737 13.1194 5.43244 12.9071 5.43244 12.9071C5.39741 12.8307 5.35854 12.7562 5.31596 12.6838C5.25121 12.5721 5.15596 12.4232 5.08449 12.2921C4.92918 12.0042 4.92107 11.8715 4.78027 11.7081C4.80459 11.6761 4.88865 11.6805 4.88865 11.6805L6.06839 12.0689L8.16024 12.1295L8.70425 11.3529L8.93561 11.3804L8.9355 11.3803Z" fill="#DFC677"/>
<path fill-rule="evenodd" clip-rule="evenodd" d="M5.83691 12.5647C5.84954 12.5787 5.86425 12.5908 5.88054 12.6003C5.92107 12.6278 5.98091 12.6603 6.02134 12.7087C6.03755 12.6845 6.07798 12.6408 6.14934 12.7087C6.2207 12.7766 6.30934 12.7282 6.36449 12.7443C6.42113 12.7638 6.42433 12.7718 6.42433 12.7718C6.42433 12.7718 6.45633 12.7443 6.5279 12.7152C6.57163 12.699 6.62337 12.6877 6.68001 12.6716C6.73174 12.6603 6.78838 12.6441 6.82731 12.6441C6.86294 12.6683 6.99073 12.8041 7.50369 12.6036C7.98753 12.4159 8.0991 12.3949 8.18006 12.4239C8.18817 12.4045 8.19627 12.3673 8.32086 12.3722C8.32086 12.3204 8.21729 12.144 8.21729 12.144L7.64609 11.9483H7.33366L6.39681 12.1198L5.87766 12.416L5.83723 12.5653L5.83691 12.5647Z" fill="#C4A859"/>
<path fill-rule="evenodd" clip-rule="evenodd" d="M5.52393 12.2363C5.52393 12.2363 5.53523 12.3236 5.66473 12.4159C5.79273 12.508 5.83294 12.5631 5.83294 12.5631C5.83294 12.5631 5.85726 12.5311 5.87667 12.4984C5.89609 12.4628 5.9123 12.4224 5.94462 12.4111C6.00937 12.3836 6.15657 12.4353 6.18899 12.4272C6.21651 12.4192 6.20841 12.3626 6.23753 12.3626C6.30547 12.3592 6.3491 12.4062 6.37342 12.4062C6.39774 12.4062 6.45747 12.403 6.46558 12.3901C6.47369 12.3772 6.47689 12.2428 6.56915 12.178C6.66953 12.1069 6.79251 12.1376 6.82515 12.1538C6.82515 12.178 6.82835 12.238 6.8931 12.2412C6.95785 12.2444 6.96425 12.2331 7.0211 12.2525C7.07795 12.2719 7.14569 12.2493 7.17641 12.3446C7.20393 12.3366 7.26867 12.3285 7.25246 12.2363C7.28446 12.212 7.31241 12.1958 7.38046 12.1004C7.39667 12.0762 7.42409 12.0486 7.44521 12.013C7.50185 12.013 7.56979 12.0017 7.66035 12.081C7.63283 12.1004 7.61662 12.113 7.60862 12.1327C7.6323 12.1561 7.65393 12.1816 7.67326 12.2087C7.69758 12.2407 7.71379 12.28 7.74451 12.2881C7.81246 12.3075 7.92414 12.28 8.04873 12.2881C8.16851 12.2962 8.26878 12.3398 8.31251 12.3674C8.32873 12.3594 8.32873 12.356 8.36915 12.3642C8.40958 12.3723 8.4403 12.3755 8.39667 12.3237C8.42089 12.335 8.44841 12.3594 8.47273 12.335C8.49705 12.3107 8.51635 12.2752 8.5843 12.2671C8.65225 12.259 8.67657 12.2703 8.70409 12.1991C8.73971 12.1118 8.61673 12.1118 8.61673 12.1118C8.61673 12.1118 8.67337 12.0599 8.73651 11.992C8.81257 11.9208 8.89993 11.8286 8.92094 11.7153C8.95657 11.5066 8.75273 11.4791 8.75273 11.4791L7.76403 11.7834L6.55529 11.7234L5.52457 12.2364L5.52393 12.2363Z" fill="#927D49"/>
<path fill-rule="evenodd" clip-rule="evenodd" d="M4.63605 9.38028C4.63605 9.38028 4.60405 9.42071 4.58431 9.51618C4.56458 9.61165 4.57301 9.60034 4.55679 9.66829C4.54058 9.73624 4.34144 10.4126 4.4161 10.6408C4.49077 10.869 4.62005 10.9531 4.7009 11.1376C4.71711 11.178 4.7329 11.2023 4.74133 11.2379C4.76885 11.3576 4.74463 11.4499 4.77695 11.5697C4.78826 11.6101 4.81749 11.657 4.86111 11.7056C4.95711 11.8058 5.11359 11.9013 5.18111 11.9693C5.27647 12.0696 5.41247 12.2736 5.58559 12.2929C5.67785 12.3042 5.80895 12.2654 5.91732 12.2007C6.01332 12.1408 6.07262 12.0567 6.17332 12.0087C6.24446 11.9731 6.32052 11.9602 6.38846 11.944C6.52926 11.9165 6.65715 11.912 6.73321 11.9278C6.84969 11.9521 7.12478 12.0363 7.2772 12.0363C7.39631 12.0343 7.51475 12.018 7.62995 11.9877C7.86131 11.9198 8.1412 11.8032 8.32573 11.7514C8.4341 11.7194 8.52146 11.711 8.61053 11.6916C8.76263 11.656 8.89042 11.6074 8.96327 11.5152C8.91474 11.4585 8.8549 11.3712 8.53117 11.3744C8.16392 11.3825 7.73992 11.5863 7.53117 11.6187C7.32243 11.6512 7.23187 11.6786 6.9988 11.5944C6.77033 11.5094 6.76275 11.4532 6.76275 11.4532C6.76275 11.4532 6.52286 11.2854 6.42249 10.8577C6.32212 10.4299 6.42249 10.1182 6.68307 9.822C6.75102 9.74595 6.73481 9.678 6.73481 9.678C6.73481 9.678 6.90633 9.44663 6.85939 9.22999C6.80766 9.01473 6.47593 9.05846 6.47593 9.05846L4.63615 9.38028H4.63605Z" fill="#6E6342"/>
<path fill-rule="evenodd" clip-rule="evenodd" d="M4.91319 10.1005C4.89892 10.1273 4.89221 10.1575 4.89378 10.1878C4.89698 10.2315 4.90999 10.2881 5.04098 10.416C5.15266 10.5275 5.12834 10.6521 5.12834 10.6521C5.12834 10.6521 5.18455 10.6634 5.33708 10.5921C5.45687 10.5354 5.49708 10.6358 5.49708 10.6358C5.53195 10.6175 5.56974 10.6055 5.60876 10.6002C5.64411 10.5969 5.67832 10.586 5.70903 10.5682C5.70903 10.5682 5.84982 10.7122 5.97281 10.7801C6.08449 10.84 6.14924 10.8805 6.20428 10.84C6.25601 10.8044 6.25601 10.7316 6.2527 10.6992C6.23987 10.6694 6.22362 10.6412 6.20428 10.6151C6.16865 10.5634 6.11201 10.5034 6.10828 10.4551C6.10017 10.3436 6.19244 10.2108 6.17292 10.1785C6.1534 10.1461 6.08076 10.138 5.90113 10.2028C5.71511 10.2642 4.91244 10.1008 4.91244 10.1008L4.91319 10.1005Z" fill="#39331F"/>
<path fill-rule="evenodd" clip-rule="evenodd" d="M5.33625 10.8237C5.33625 10.8237 5.24408 10.7364 5.2764 10.3124C5.31553 10.3118 5.3546 10.3156 5.39289 10.3237C5.39289 10.3237 5.44313 10.6522 5.33625 10.8237Z" fill="#292311"/>
<path fill-rule="evenodd" clip-rule="evenodd" d="M4.67932 9.05663C4.69218 9.04712 4.70411 9.0364 4.71495 9.02463C4.68295 9.08447 4.53521 9.32393 4.655 9.70099C4.77479 10.0763 5.07569 10.3562 5.44625 10.3692C5.81681 10.3823 6.01159 10.2009 6.23431 9.92915C6.32167 9.82078 6.42204 9.68478 6.511 9.59262C6.64369 9.44852 6.74727 9.40809 6.74727 9.269C6.74727 8.98421 6.45596 8.85632 6.02716 8.72853C5.59836 8.60075 5.21159 8.61653 5.01095 8.704C4.81521 8.79936 4.73105 8.89973 4.67921 9.05674L4.67932 9.05663Z" fill="#252211"/>
<path fill-rule="evenodd" clip-rule="evenodd" d="M6.05647 10.9515L6.08848 10.9353C6.08848 10.9353 6.09648 10.8072 6.14833 10.8107C6.20008 10.8188 6.2244 10.8868 6.21949 10.911C6.21629 10.9353 6.20338 10.9758 6.15153 10.9709C6.08357 10.9725 6.05615 10.9515 6.05615 10.9515H6.05647Z" fill="#3F3824"/>
<path fill-rule="evenodd" clip-rule="evenodd" d="M5.91309 10.4077C5.91309 10.4077 5.94509 10.3963 5.98423 10.4352C6.01623 10.4352 6.15575 10.419 6.19949 10.4465C6.24322 10.4741 6.25613 10.4983 6.25613 10.4983C6.25613 10.4983 6.09271 10.534 6.00365 10.4983C5.91309 10.4676 5.91309 10.4077 5.91309 10.4077Z" fill="#2D2815"/>
<path fill-rule="evenodd" clip-rule="evenodd" d="M6.63294 10.432C6.63294 10.4239 6.54559 10.364 6.45333 10.3445C6.43712 10.3413 6.43382 10.3526 6.42134 10.3526C6.41323 10.3494 6.41003 10.3251 6.41003 10.3251L6.35756 10.3527C6.35756 10.3527 6.34945 10.364 6.37697 10.3847C6.40118 10.4041 6.44171 10.4203 6.45301 10.4527C6.46432 10.485 6.46432 10.4963 6.46922 10.5012C6.47242 10.5044 6.52906 10.5012 6.55657 10.485C6.58409 10.4688 6.63592 10.4423 6.63262 10.4316L6.63294 10.432Z" fill="#82764F"/>
<path fill-rule="evenodd" clip-rule="evenodd" d="M5.81543 10.7606C5.81543 10.7606 5.83154 10.6491 5.94002 10.6442C6.05159 10.6361 6.07271 10.7444 6.07271 10.7444L6.00796 10.8091C6.00796 10.8075 5.95943 10.7396 5.81596 10.7606H5.81543Z" fill="#2D2816"/>
<path fill-rule="evenodd" clip-rule="evenodd" d="M6.51978 10.2799C6.51978 10.2799 6.45983 10.3446 6.32725 10.3641C6.31594 10.3478 6.29163 10.3155 6.32725 10.2638C6.36288 10.212 6.4033 10.1958 6.44373 10.2119C6.46156 10.2148 6.4782 10.2227 6.49168 10.2348C6.50515 10.2468 6.5149 10.2625 6.51978 10.2799Z" fill="#574F35"/>
<path fill-rule="evenodd" clip-rule="evenodd" d="M6.76325 10.3592C6.76656 10.343 6.75525 10.3398 6.76325 10.3317C6.77125 10.3236 6.81509 10.3075 6.8232 10.3155C6.8264 10.3188 6.8232 10.3317 6.8232 10.3475C6.8232 10.3633 6.8232 10.3795 6.81509 10.3911C6.80379 10.4073 6.77147 10.4154 6.75525 10.4106C6.73904 10.4058 6.73584 10.3831 6.73584 10.3786C6.74384 10.3754 6.76325 10.3673 6.76325 10.3592ZM7.03952 10.1845C7.03952 10.1764 7.06704 10.1602 7.08325 10.1602C7.10747 10.1602 7.10747 10.1796 7.11077 10.1845C7.11877 10.1877 7.11877 10.1812 7.12688 10.1958C7.13499 10.2105 7.1464 10.2363 7.13819 10.2525C7.12997 10.2687 7.09776 10.2799 7.08976 10.2767C7.07845 10.2686 7.04283 10.1958 7.03952 10.1845Z" fill="#82764F"/>
<path fill-rule="evenodd" clip-rule="evenodd" d="M6.4834 10.3965C6.4834 10.3965 6.51903 10.4045 6.56756 10.4451C6.55135 10.4564 6.52703 10.4693 6.52703 10.4693C6.52703 10.4693 6.52382 10.4321 6.4834 10.3964V10.3965Z" fill="#6E6342"/>
<path fill-rule="evenodd" clip-rule="evenodd" d="M6.40411 10.0405C6.396 10.0325 6.42833 10.0131 6.44774 10.0163C6.46715 10.0195 6.47526 10.0325 6.49628 10.0357C6.51729 10.0389 6.5206 10.0276 6.52828 10.0195C6.53596 10.0114 6.5639 10.0163 6.5687 10.0195C6.57169 10.023 6.5744 10.0268 6.57681 10.0308C6.57715 10.0246 6.57876 10.0186 6.58153 10.0131C6.5843 10.0076 6.58818 10.0027 6.59292 9.99878C6.59913 9.99422 6.60628 9.99112 6.61386 9.98972C6.62143 9.98831 6.62922 9.98864 6.63665 9.99067C6.63985 10.002 6.65607 10.0424 6.65287 10.0505C6.64967 10.0586 6.60113 10.07 6.59292 10.0618C6.60103 10.0813 6.63665 10.1218 6.64145 10.1298C6.64625 10.1378 6.60583 10.1573 6.58972 10.1541C6.5671 10.1525 6.4279 10.0715 6.40368 10.0408L6.40411 10.0405ZM6.61607 9.7719C6.61307 9.76375 6.60734 9.75689 6.59985 9.75249C6.58855 9.74929 6.55132 9.75249 6.55132 9.7719C6.55132 9.79131 6.58332 9.8999 6.61927 9.95643C6.6598 10.0131 6.68722 10.0599 6.71474 10.0729C6.72338 10.0768 6.73319 10.0774 6.74219 10.0744C6.7512 10.0713 6.75873 10.065 6.76327 10.0567C6.76647 10.0486 6.77458 9.98875 6.77138 9.84795C6.76818 9.70715 6.76327 9.57126 6.75517 9.56315C6.74706 9.55505 6.71474 9.55515 6.70343 9.57126C6.69212 9.58737 6.61927 9.74769 6.61596 9.7719H6.61607Z" fill="#585136"/>
<path fill-rule="evenodd" clip-rule="evenodd" d="M6.47279 10.6003C6.47279 10.6003 6.41613 10.5646 6.36108 10.589C6.30934 10.6133 6.31254 10.7087 6.31254 10.7087C6.32418 10.7133 6.33676 10.7149 6.34918 10.7135C6.3616 10.7121 6.37349 10.7077 6.38381 10.7006C6.41944 10.6764 6.46468 10.636 6.47279 10.6004V10.6003Z" fill="#574F35"/>
<path fill-rule="evenodd" clip-rule="evenodd" d="M6.57985 10.7282C6.57665 10.6962 6.54785 10.6962 6.54785 10.6796C6.54983 10.6717 6.55441 10.6647 6.56085 10.6597C6.56729 10.6548 6.57522 10.6521 6.58337 10.6521C6.59959 10.6521 6.61537 10.6715 6.63521 10.6841C6.65462 10.6954 6.68374 10.7161 6.68694 10.7408C6.69014 10.7654 6.65494 10.8329 6.6158 10.8329C6.57665 10.8329 6.58828 10.7601 6.58017 10.7278L6.57985 10.7282ZM6.89217 10.6844C6.89217 10.6844 6.82742 10.7039 6.83222 10.6844C6.83702 10.665 6.85175 10.6602 6.87276 10.6602C6.88344 10.6491 6.89779 10.6421 6.91318 10.6407C6.92199 10.6403 6.93063 10.6432 6.9374 10.6488C6.9374 10.6488 6.98113 10.6294 6.99404 10.6407C7.00695 10.652 6.99735 10.652 7.00535 10.665C7.01553 10.6795 7.02222 10.6961 7.02487 10.7136C7.02487 10.7265 6.97633 10.754 6.9374 10.7492C6.89217 10.7395 6.90017 10.6926 6.89217 10.6844ZM7.26913 10.6116C7.26913 10.6116 7.28854 10.6229 7.27244 10.6359C7.26113 10.6472 7.20449 10.6679 7.15585 10.6715C7.10732 10.6715 7.06369 10.6795 7.06369 10.6634C7.06369 10.6473 7.10412 10.6149 7.12833 10.6068C7.13319 10.6007 7.13936 10.5958 7.14637 10.5924C7.15339 10.5891 7.16108 10.5873 7.16887 10.5874C7.18828 10.5874 7.26423 10.5793 7.28534 10.5761C7.30476 10.5728 7.32097 10.5841 7.30956 10.6003C7.30476 10.6116 7.26913 10.6116 7.26913 10.6116ZM7.38081 10.1119C7.38081 10.1119 7.35649 10.1637 7.32908 10.1637C7.30156 10.1605 7.30156 10.1524 7.30156 10.1443C7.30156 10.133 7.32908 10.1038 7.32577 10.0957C7.31777 10.0957 7.29825 10.0957 7.30156 10.0763C7.30156 10.0601 7.32908 10.0407 7.35329 10.0443C7.37159 10.0293 7.39437 10.0208 7.41804 10.0201C7.44556 10.0201 7.46977 10.0281 7.46977 10.0443C7.46977 10.0605 7.43777 10.096 7.42604 10.1043C7.41313 10.1172 7.39692 10.1256 7.38081 10.1123V10.1119ZM7.01185 11.0683C7.01185 11.0683 6.97985 11.0716 6.97985 11.0877C6.97985 11.0958 6.98785 11.0958 6.99926 11.091C7.00584 11.0906 7.01235 11.0895 7.01868 11.0877C7.02188 11.091 7.02188 11.1071 7.0462 11.1071C7.06617 11.1044 7.08541 11.0978 7.10284 11.0877C7.12225 11.0797 7.13846 11.0715 7.13846 11.0557C7.13036 11.0281 7.11414 11.0151 7.08993 11.0151C7.07752 11.0143 7.06515 11.0172 7.0543 11.0232C7.0543 11.0232 7.0462 11.007 7.01868 11.0232C6.99116 11.0395 6.99436 11.0394 7.00246 11.0476C7.01697 11.0605 7.01217 11.0689 7.01217 11.0689L7.01185 11.0683ZM6.82902 11.2366C6.82902 11.2285 6.86945 11.2123 6.88076 11.2172C6.89207 11.2204 6.92438 11.2818 6.92438 11.2883C6.92438 11.2964 6.88396 11.3158 6.86774 11.3158C6.85153 11.3158 6.82412 11.2883 6.82412 11.2838C6.82412 11.2806 6.84353 11.2758 6.84353 11.2725C6.84833 11.2645 6.82902 11.245 6.82902 11.2369V11.2366ZM6.70102 11.0003C6.70913 10.9971 6.70913 10.989 6.72044 10.9809C6.72398 10.9785 6.72801 10.977 6.73223 10.9765C6.73644 10.9759 6.74073 10.9763 6.74476 10.9777C6.74761 10.9726 6.75156 10.9682 6.75632 10.9648C6.76108 10.9615 6.76653 10.9592 6.77228 10.9582C6.79169 10.955 6.8079 10.9582 6.80428 10.9663C6.80428 10.9906 6.82049 11.0067 6.82049 11.0261C6.82049 11.0455 6.80919 11.0699 6.76876 11.0861C6.72833 11.0974 6.67329 11.0974 6.66518 11.0942C6.65708 11.091 6.64897 11.0585 6.65708 11.0423C6.66518 11.0261 6.6878 11.0084 6.70081 11.0003H6.70102Z" fill="#82764F"/>
<path fill-rule="evenodd" clip-rule="evenodd" d="M6.75145 11.0113C6.75145 11.0113 6.72396 11.0275 6.72396 11.0356C6.72152 11.0434 6.72044 11.0516 6.72076 11.0598C6.72076 11.0646 6.75636 11.0566 6.76115 11.0517C6.76275 11.0485 6.75145 11.0197 6.75145 11.0113Z" fill="#6E6342"/>
<path fill-rule="evenodd" clip-rule="evenodd" d="M6.51136 10.9352C6.52746 10.9386 6.55498 10.9352 6.57599 10.9433C6.5922 10.9515 6.60351 10.9677 6.5873 10.9871C6.57109 11.0065 6.5553 11.0356 6.51936 11.0307C6.47893 11.0275 6.44011 11.0065 6.44011 10.9903C6.43943 10.98 6.4408 10.9697 6.44413 10.96C6.44746 10.9503 6.4527 10.9413 6.45952 10.9336C6.47573 10.9207 6.48373 10.9288 6.51125 10.9352H6.51136Z" fill="#585136"/>
<path fill-rule="evenodd" clip-rule="evenodd" d="M6.49209 10.9515C6.49209 10.9515 6.44035 10.9919 6.42734 11.0114C6.41112 11.0308 6.33186 11.1311 6.30765 11.1521C6.31569 11.1379 6.32486 11.1244 6.33506 11.1117C6.30306 11.1321 6.27907 11.163 6.26711 11.199C6.2477 11.259 6.3756 11.2913 6.45966 11.3156C6.54371 11.3399 6.57625 11.3476 6.57625 11.3476C6.5453 11.3011 6.51873 11.2518 6.49689 11.2004C6.46488 11.1244 6.44835 11.1163 6.46936 11.0806C6.48558 11.045 6.5099 11.0208 6.5099 10.9933C6.50019 10.9677 6.49209 10.9515 6.49209 10.9515Z" fill="#574F35"/>
<path fill-rule="evenodd" clip-rule="evenodd" d="M4.64719 11.0794C4.65896 11.0815 4.67104 11.0815 4.68281 11.0794C4.70703 11.0761 4.9595 10.9834 5.22329 11C5.42076 11.0119 5.61649 11.0441 5.80739 11.096C6.13912 11.1834 6.55171 11.3565 6.81869 11.4553C6.88984 11.4827 6.95949 11.5313 7.01069 11.5506C7.21463 11.63 7.22263 11.63 7.34242 11.651C7.48322 11.6704 7.62722 11.6235 7.77772 11.5912C7.96215 11.5506 8.27767 11.5312 8.55436 11.4908C8.64383 11.4784 8.73208 11.4584 8.81814 11.431C8.81814 11.431 8.59809 11.651 8.07052 11.7303C7.85727 11.7627 7.64057 11.7654 7.42658 11.7384C7.25826 11.7222 7.14669 11.6979 7.06253 11.6736C6.96706 11.6461 6.77122 11.5733 6.53016 11.5136C6.36184 11.4699 6.17411 11.4376 5.95896 11.3971C5.42819 11.3 4.8522 11.1884 4.64697 11.08L4.64719 11.0794Z" fill="#252211"/>
<path fill-rule="evenodd" clip-rule="evenodd" d="M4.05168 10.0795C3.92369 10.1879 3.7879 10.2914 3.65531 10.3917L3.25564 10.6988C3.11975 10.7991 2.98705 10.9026 2.85106 11.003C2.71506 11.1034 2.57927 11.1987 2.43506 11.291C2.56306 11.1826 2.69884 11.0823 2.83474 10.9836C2.97063 10.8849 3.11153 10.7882 3.24263 10.6881L3.6423 10.3806C3.77979 10.2803 3.91249 10.1768 4.05168 10.0797V10.0795ZM3.3446 11.2122C3.3446 11.2122 3.4886 11.0924 3.66822 10.9242C3.89147 10.7155 4.16496 10.4484 4.25232 10.4L3.34449 11.2123L3.3446 11.2122Z" fill="#CFB66C"/>
<path fill-rule="evenodd" clip-rule="evenodd" d="M3.34521 11.212C3.41647 11.1408 3.49252 11.0713 3.56857 11.0032L3.68506 10.903C3.72068 10.871 3.76122 10.835 3.79674 10.7994C3.86788 10.7283 3.93753 10.6521 4.00868 10.5794C4.04394 10.5428 4.08123 10.5082 4.12036 10.4758C4.13993 10.4585 4.16165 10.4438 4.185 10.4321C4.20452 10.4208 4.22553 10.4001 4.25295 10.3964C4.23684 10.4208 4.21743 10.4321 4.20121 10.4531C4.1818 10.4693 4.16559 10.4887 4.14948 10.5048C4.11385 10.5404 4.07343 10.5727 4.0378 10.6052C3.96175 10.6699 3.88249 10.7332 3.80644 10.8009C3.73039 10.8686 3.65924 10.9417 3.58308 11.0096C3.50063 11.0793 3.42457 11.1472 3.34521 11.2123V11.212ZM4.31289 10.5647C4.31289 10.5647 3.78543 11.081 3.67695 11.165L4.31289 10.5647Z" fill="#CFB66C"/>
<path fill-rule="evenodd" clip-rule="evenodd" d="M4.31222 10.5647C4.26477 10.6196 4.21389 10.6715 4.1599 10.72L3.9999 10.8721C3.94816 10.9238 3.89952 10.9757 3.84459 11.0274C3.78795 11.0759 3.73622 11.1234 3.67627 11.1682L3.83158 11.0161C3.88342 10.9644 3.94006 10.9208 3.9951 10.8689L4.1504 10.7168C4.20374 10.6635 4.25558 10.6116 4.31222 10.5647ZM4.33643 10.8446C4.28781 10.9803 4.23052 11.1127 4.16491 11.2411C4.02902 11.513 3.82518 11.8527 3.73611 12.0259L4.33643 10.8446Z" fill="#CFB66C"/>
<path fill-rule="evenodd" clip-rule="evenodd" d="M4.33651 10.8447C4.33651 10.9045 4.3203 10.9564 4.30089 11.0081C4.28196 11.0599 4.26039 11.1107 4.23625 11.1602C4.21193 11.2088 4.18441 11.2606 4.15689 11.3076C4.12937 11.3545 4.09705 11.4029 4.07273 11.4516L3.90931 11.7396C3.85267 11.8356 3.79763 11.9322 3.73779 12.0244C3.77822 11.9209 3.83326 11.8238 3.8851 11.7283C3.94174 11.6323 3.99347 11.5363 4.0451 11.437C4.07031 11.3875 4.09298 11.3367 4.11305 11.285C4.13726 11.2331 4.16147 11.1846 4.18099 11.1376C4.20521 11.0859 4.22462 11.0372 4.24894 10.9904C4.27635 10.9402 4.29907 10.8916 4.3363 10.8447H4.33651Z" fill="#CFB66C"/>
<path fill-rule="evenodd" clip-rule="evenodd" d="M4.9132 12.1715C4.9132 12.1715 4.75319 12.3835 4.76919 12.6521C4.81282 12.5114 4.86786 12.2961 4.9132 12.1715ZM5.06531 12.384C5.06531 12.384 5.00866 12.96 4.96173 13.2432C5.02808 12.9158 5.04099 12.9434 5.06531 12.384ZM6.12518 13.2772C6.12518 13.2772 5.8857 13.9812 5.8808 14.1769C5.93264 13.9757 6.03291 13.5647 6.12518 13.2767V13.2772Z" fill="#DEC270"/>
<path fill-rule="evenodd" clip-rule="evenodd" d="M6.68457 12.128C6.68457 12.128 7.07294 12.7688 7.36425 13.3156C7.28542 13.0404 7.10409 12.5357 6.68457 12.128Z" fill="#CBAF59"/>
<path fill-rule="evenodd" clip-rule="evenodd" d="M7.72852 13.0713C7.94175 13.4482 8.13404 13.8366 8.30452 14.2347C8.2722 13.9596 8.18473 13.4888 7.72852 13.0713Z" fill="#E3C677"/>
<path fill-rule="evenodd" clip-rule="evenodd" d="M10.7963 14.0161C10.8609 13.9756 10.9888 13.7555 11.1005 13.7005C11.2121 13.6439 11.2962 13.6326 11.3966 13.5209C11.4969 13.4043 11.5246 13.3332 11.7444 13.241C12.0519 13.1082 11.8404 12.9367 11.8404 12.9367C11.8743 12.9034 11.9105 12.8726 11.9488 12.8445C12.0282 12.7847 12.1203 12.7118 12.1123 12.5839C12.101 12.3688 12.0606 12.0565 11.8842 11.8753C12.0557 11.8396 12.3841 11.8154 12.5882 11.7637C12.8243 11.7037 12.9328 11.6196 12.9328 11.6196C12.9328 11.6196 12.7969 11.3882 13.0169 11.1553C13.237 10.9223 13.4166 10.7831 13.5493 10.5225C13.3972 10.5031 13.1653 10.4222 12.5735 10.6471C12.6055 10.6621 12.6363 10.6794 12.6658 10.6988C12.6658 10.6988 12.3018 10.7992 12.1691 10.9109C11.9376 11.1066 11.9085 11.2668 11.6577 11.3866C11.4069 11.5064 11.1545 11.474 10.9458 11.571C10.7372 11.6681 10.7064 11.7507 10.6302 11.7863C10.6464 11.8057 10.627 11.838 10.6577 11.8655C10.6383 11.8931 10.525 12.0775 10.4101 12.0775C10.4214 12.1212 10.5185 12.1535 10.5185 12.1535C10.5185 12.1535 10.4474 12.2054 10.2661 12.2183C10.3583 12.3143 10.4458 12.4189 10.6868 12.571C10.6674 12.6115 10.5865 12.6714 10.6189 12.7475C10.6545 12.8235 10.7469 12.9271 11.1156 13.0113C10.9279 13.0193 10.708 13.063 10.4116 13.0226C10.1155 12.9869 10.067 12.9659 9.88417 13.0113C9.90358 13.0307 9.95532 13.0307 10.0006 13.0824C9.95212 13.0856 9.64791 13.0468 9.54433 13.1828C9.43596 13.3235 9.38903 13.5549 9.39713 13.7102C9.34049 13.7378 9.28545 13.7863 9.31297 13.8867C9.34049 13.987 9.48449 14.0194 9.57676 14.0824C9.66892 14.1503 9.67702 14.1746 9.76449 14.1585C9.85665 14.139 9.99254 14.0469 10.0719 14.0469C10.1513 14.0469 10.2078 14.1067 10.2078 14.1067C10.2078 14.1067 10.423 14.0031 10.4441 14.0226C10.4635 14.042 10.4473 14.1666 10.4683 14.186C10.4896 14.2006 10.7321 14.0566 10.7968 14.0161H10.7963Z" fill="#ECD592"/>
<path fill-rule="evenodd" clip-rule="evenodd" d="M15.4996 7.5405C14.4883 4.92888 11.9883 4.44504 11.9883 4.44504H4.85558L4.8831 7.1052H6.30358V13.0454H4.85547V15.7007H11.7908C13.4623 15.7007 14.8021 14.021 14.8021 14.021C16.9477 10.9758 15.4995 7.5405 15.4995 7.5405H15.4996ZM11.8281 12.2314C11.8281 12.2314 11.2841 13.0162 10.6922 13.0162H9.50816L9.48011 7.1117H10.9996C10.9996 7.1117 11.7036 7.2589 12.1954 8.65208C12.1954 8.65208 12.8475 10.6467 11.8281 12.2314Z" fill="white" fill-opacity="0.8"/>
</svg>
