<svg width="20" height="20" viewBox="0 0 20 20" fill="none" xmlns="http://www.w3.org/2000/svg">
<circle cx="10" cy="10" r="10" fill="#F3BA2F"/>
<g clip-path="url(#clip0_63:115)">
<path d="M7.67048 9.04252L10.0009 6.71218L12.3325 9.04372L13.6885 7.68772L10.0009 4L6.31454 7.68652L7.67048 9.04252ZM4.00098 9.99981L5.35702 8.64377L6.71297 9.99973L5.35694 11.3558L4.00098 9.99981ZM7.67048 10.9575L10.0009 13.2878L12.3324 10.9563L13.6891 12.3116L13.6885 12.3123L10.0009 16L6.31442 12.3136L6.3125 12.3117L7.67048 10.9575ZM13.289 10.0006L14.6451 8.64452L16.001 10.0005L14.645 11.3565L13.289 10.0006Z" fill="white"/>
<path d="M11.3751 9.99927H11.3757L9.99969 8.62329L8.98281 9.64017H8.98275L8.86593 9.75705L8.62497 9.99807L8.62305 9.99993L8.62497 10.0019L9.99969 11.3767L11.3757 10.0007L11.3763 9.99993L11.3751 9.99927Z" fill="white"/>
</g>
<mask id="mask0_63:115" style="mask-type:alpha" maskUnits="userSpaceOnUse" x="0" y="0" width="20" height="20">
<path fill-rule="evenodd" clip-rule="evenodd" d="M0 6.10352e-05L20 6.10352e-05L20 20.0001L0 20.0001L0 6.10352e-05Z" fill="white"/>
</mask>
<g mask="url(#mask0_63:115)">
<path fill-rule="evenodd" clip-rule="evenodd" d="M10 19.9996C4.5 19.9996 0 15.4996 0 9.94965C0.05 4.44965 4.5 -0.0503503 10.05 -0.000350261C15.55 0.0496497 20 4.49965 20 10.0996C19.95 15.5496 15.5 19.9996 10 19.9996Z" fill="#0090FF"/>
<path fill-rule="evenodd" clip-rule="evenodd" d="M10.9502 8.80002L10.6502 10.4L13.5002 10.8L13.3002 11.55L10.5002 11.15C10.3002 11.8 10.2002 12.5 9.95019 13.1C9.70019 13.8 9.45019 14.5 9.15019 15.15C8.75019 16 8.05019 16.6 7.1002 16.75C6.5502 16.85 5.9502 16.8 5.5002 16.45C5.3502 16.35 5.2002 16.15 5.2002 16C5.2002 15.8 5.3002 15.55 5.4502 15.45C5.5502 15.4 5.8002 15.45 5.9502 15.5C6.1002 15.65 6.2502 15.85 6.3502 16.05C6.6502 16.45 7.0502 16.5 7.4502 16.2C7.90019 15.8 8.1502 15.25 8.3002 14.7C8.6002 13.5 8.90019 12.35 9.15019 11.15V10.95L6.5002 10.55L6.6002 9.80002L9.3502 10.2L9.70019 8.65002L6.8502 8.20002L6.9502 7.40002L9.90019 7.80002C10.0002 7.50002 10.0502 7.25002 10.1502 7.00002C10.4002 6.10002 10.6502 5.20002 11.2502 4.40002C11.8502 3.60002 12.5502 3.10002 13.6002 3.15002C14.0502 3.15002 14.5002 3.30002 14.8002 3.65002C14.8502 3.70002 14.9502 3.80002 14.9502 3.90002C14.9502 4.10002 14.9502 4.35002 14.8002 4.50002C14.6002 4.65002 14.3502 4.60002 14.1502 4.40002C14.0002 4.25002 13.9002 4.10002 13.7502 3.95002C13.4502 3.55002 13.0002 3.50002 12.6502 3.85002C12.4002 4.10002 12.1502 4.45002 12.0002 4.80002C11.6502 5.85002 11.4002 6.95002 11.0502 8.05002L13.8002 8.45002L13.6002 9.20002L10.9502 8.80002Z" fill="white"/>
</g>
<defs>
<clipPath id="clip0_63:115">
<rect width="12" height="12" fill="white" transform="translate(4 4)"/>
</clipPath>
</defs>
</svg>
