<svg width="20" height="20" viewBox="0 0 20 20" fill="none" xmlns="http://www.w3.org/2000/svg">
<circle cx="10" cy="10" r="10" fill="white"/>
<g clip-path="url(#clip0_55:434)">
<path d="M11.8669 10.4667C11.8669 10.3333 11.8669 10.2667 11.7336 10.2C11.2669 9.86667 10.7336 9.53333 10.2669 9.2C10.2176 9.16704 10.1596 9.14944 10.1002 9.14944C10.0409 9.14944 9.9829 9.16704 9.93356 9.2L8.4669 10.2667C8.40567 10.2979 8.35445 10.3457 8.31909 10.4046C8.28373 10.4636 8.26564 10.5313 8.2669 10.6C8.26377 10.7437 8.2173 10.8831 8.13356 11C8.1006 11.0493 8.08301 11.1073 8.08301 11.1667C8.08301 11.226 8.1006 11.284 8.13356 11.3333C8.6669 12.4 9.13356 13.4667 9.6669 14.5333C9.8669 14.8667 10.0002 15.2667 10.2002 15.6667C10.2669 15.6 10.2669 15.5333 10.3336 15.4667C10.9336 14.1333 11.4669 12.8 12.0669 11.4667C12.1336 11.3333 12.1336 11.2667 12.0002 11.2C11.9253 11.0952 11.8745 10.9751 11.8514 10.8483C11.8283 10.7215 11.8336 10.5912 11.8669 10.4667Z" fill="#CD0124"/>
<path d="M9.6001 8.73336C8.26676 7.80003 6.93343 6.8667 5.66676 6.00003L5.6001 6.0667C5.66676 6.20003 5.66676 6.2667 5.73343 6.40003L7.13343 9.40003C7.26676 9.6667 7.33343 9.93336 7.73343 10C7.84865 10.0104 7.9644 9.98725 8.06676 9.93336C8.46676 9.60003 8.93343 9.33336 9.33343 9.00003L9.6001 8.73336Z" fill="#CD0124"/>
<path d="M10 0C8.02219 0 6.08879 0.58649 4.4443 1.6853C2.79981 2.78412 1.51809 4.3459 0.761209 6.17317C0.00433286 8.00043 -0.193701 10.0111 0.192152 11.9509C0.578004 13.8907 1.53041 15.6725 2.92894 17.0711C4.32746 18.4696 6.10929 19.422 8.0491 19.8079C9.98891 20.1937 11.9996 19.9957 13.8268 19.2388C15.6541 18.4819 17.2159 17.2002 18.3147 15.5557C19.4135 13.9112 20 11.9778 20 10C20 7.34784 18.9464 4.8043 17.0711 2.92893C15.1957 1.05357 12.6522 0 10 0V0ZM15.4 5.8C15.2667 5.8 15.2 5.86667 15.1333 6C14.6 7.33333 14 8.66667 13.4667 10V10.2667C13.5199 10.3794 13.5482 10.5022 13.5497 10.6269C13.5511 10.7515 13.5257 10.875 13.475 10.9889C13.4244 11.1028 13.3498 11.2045 13.2563 11.2869C13.1628 11.3694 13.0527 11.4307 12.9333 11.4667C12.8667 11.4667 12.8 11.5333 12.7333 11.6667C12.1333 13 11.5333 14.4 11 15.7333C10.967 15.7827 10.9494 15.8407 10.9494 15.9C10.9494 15.9593 10.967 16.0173 11 16.0667C11.1246 16.2377 11.18 16.4493 11.1553 16.6595C11.1306 16.8696 11.0275 17.0626 10.8667 17.2C10.7269 17.3381 10.5419 17.4209 10.3458 17.4331C10.1498 17.4454 9.95587 17.3863 9.8 17.2667C9.71676 17.2098 9.64554 17.1371 9.59042 17.0527C9.5353 16.9683 9.49737 16.8739 9.4788 16.7748C9.46022 16.6757 9.46136 16.574 9.48216 16.4753C9.50296 16.3767 9.543 16.2831 9.6 16.2C9.63269 16.1384 9.64978 16.0697 9.64978 16C9.64978 15.9303 9.63269 15.8616 9.6 15.8C8.93334 14.4667 8.33334 13.1333 7.66667 11.8C7.63633 11.7322 7.59026 11.6727 7.53228 11.6263C7.47431 11.5799 7.4061 11.5481 7.33334 11.5333C7.19749 11.5107 7.06914 11.4556 6.95923 11.3726C6.84932 11.2897 6.76112 11.1813 6.70217 11.0569C6.64322 10.9324 6.61527 10.7955 6.62069 10.6579C6.62612 10.5203 6.66477 10.3861 6.73334 10.2667C6.7663 10.2173 6.78389 10.1593 6.78389 10.1C6.78389 10.0407 6.7663 9.98267 6.73334 9.93333C6.13334 8.6 5.53334 7.33333 4.86667 6C4.86667 5.93333 4.8 5.86667 4.6 5.86667C4.40394 5.8391 4.22357 5.74421 4.08978 5.59826C3.95599 5.45231 3.87712 5.26438 3.86667 5.06667C3.879 4.88146 3.9413 4.70306 4.04695 4.55045C4.15261 4.39784 4.29766 4.27673 4.46667 4.2C4.6461 4.1305 4.84415 4.12576 5.02669 4.18661C5.20923 4.24746 5.36483 4.37007 5.46667 4.53333C5.53334 4.66667 5.6 4.66667 5.8 4.66667L14.2667 4.66667C14.4 4.66667 14.5333 4.66667 14.6 4.46667C14.691 4.30963 14.8347 4.18995 15.0056 4.12891C15.1765 4.06788 15.3635 4.06944 15.5333 4.13333C15.6989 4.19603 15.8433 4.30454 15.9495 4.4462C16.0558 4.58785 16.1195 4.75681 16.1333 4.93333C16.1358 5.14185 16.063 5.34427 15.9283 5.50346C15.7936 5.66265 15.6061 5.76793 15.4 5.8Z" fill="#CD0124"/>
<path d="M9.9998 8.26672C10.0491 8.29969 10.1071 8.31728 10.1665 8.31728C10.2258 8.31728 10.2838 8.29969 10.3331 8.26672C11.5998 7.33339 12.8665 6.46672 14.0665 5.53339C14.1331 5.46672 14.1998 5.46672 14.1998 5.40006V5.33339L5.7998 5.33339C5.87608 5.36138 5.94463 5.40708 5.9998 5.46672L9.9998 8.26672Z" fill="#CD0124"/>
<path d="M10.6665 8.73336C11.1998 9.13336 11.7332 9.4667 12.2665 9.80003C12.3998 9.8667 12.5998 9.80003 12.7998 9.80003C12.8665 9.80003 12.9332 9.6667 12.9332 9.60003C13.3998 8.53336 13.8665 7.40003 14.3332 6.33336C14.3332 6.2667 14.3998 6.20003 14.3998 6.13336H14.3332C13.1998 6.93336 11.9332 7.80003 10.6665 8.73336Z" fill="#CD0124"/>
</g>
<defs>
<clipPath id="clip0_55:434">
<rect width="20" height="20" fill="white"/>
</clipPath>
</defs>
</svg>
