<svg width="20" height="20" viewBox="0 0 20 20" fill="none" xmlns="http://www.w3.org/2000/svg">
<path d="M10 0C15.5226 0 20 4.4774 20 10C20 15.5226 15.5224 20 10 20C4.4776 20 0 15.5238 0 10C0 4.4762 4.4768 0 10 0Z" fill="#1E1E1E"/>
<path d="M10.5459 4C8.03947 4.01007 6.01007 6.03947 6 8.54591C6 9.04786 6.08102 9.54646 6.23971 10.0225C6.35813 10.3466 6.70955 10.5211 7.03939 10.4209C7.35821 10.2987 7.52745 9.95014 7.42581 9.62413C7.29109 9.25306 7.23116 8.85945 7.2489 8.46536C7.30356 6.65505 8.81518 5.23164 10.6255 5.2863C12.4358 5.34095 13.8592 6.85258 13.8046 8.66289C13.7533 10.3577 12.4185 11.7341 10.7257 11.8372C10.7257 11.8372 10.0876 11.876 9.7702 11.9148C9.65322 11.9316 9.5372 11.9546 9.42261 11.9839C9.40631 12.0006 9.37994 12.0006 9.36316 11.9843L9.36269 11.9839C9.35118 11.969 9.35118 11.9479 9.36269 11.933L9.46145 11.3942L10.0607 8.69884C10.1326 8.36229 9.91834 8.031 9.58178 7.95909C9.24523 7.88718 8.91394 8.10148 8.84203 8.43804C8.84203 8.43804 7.4167 15.0354 7.4167 15.0953C7.3352 15.4161 7.52889 15.7421 7.84962 15.8236C7.85298 15.8245 7.85681 15.8255 7.86017 15.826H7.89325C8.2135 15.9089 8.54047 15.7162 8.62293 15.3959C8.62437 15.3907 8.62581 15.3854 8.62677 15.3796C8.62581 15.3696 8.62581 15.3595 8.62677 15.3499C8.64451 15.2722 8.82429 14.3944 8.82429 14.3944C8.96045 13.7318 9.49453 13.2241 10.1628 13.1215C10.3004 13.1004 10.8786 13.0616 10.8786 13.0616C13.3755 12.8128 15.1978 10.5868 14.9485 8.08997C14.7212 5.8127 12.8347 4.05945 10.5459 4Z" fill="white"/>
<path d="M10.8212 14.4817C10.4113 14.3963 10.0105 14.6595 9.92513 15.069C9.92417 15.0728 9.92369 15.0766 9.92273 15.0805C9.83404 15.4875 10.092 15.8898 10.4995 15.9785C10.5 15.9785 10.5004 15.9785 10.5009 15.9789H10.522C10.9209 16.0753 11.3222 15.8298 11.4181 15.4314C11.419 15.4285 11.4195 15.4252 11.4205 15.4223V15.3806C11.491 14.9692 11.2282 14.5747 10.8212 14.4817Z" fill="#E6007A"/>
</svg>
