<svg width="20" height="20" viewBox="0 0 20 20" fill="none" xmlns="http://www.w3.org/2000/svg">
<path d="M10 20C15.5228 20 20 15.5228 20 10C20 4.47715 15.5228 0 10 0C4.47715 0 0 4.47715 0 10C0 15.5228 4.47715 20 10 20Z" fill="#8247E5"/>
<path d="M13.3201 7.74892C13.0823 7.61304 12.7766 7.61304 12.5048 7.74892L10.6025 8.86993L9.31161 9.58331L7.44325 10.7043C7.20546 10.8402 6.89973 10.8402 6.62797 10.7043L5.16726 9.8211C4.92946 9.68522 4.75961 9.41346 4.75961 9.10773V7.40922C4.75961 7.13746 4.89549 6.8657 5.16726 6.69585L6.62797 5.84659C6.86576 5.71071 7.17149 5.71071 7.44325 5.84659L8.90397 6.72982C9.14176 6.8657 9.31161 7.13746 9.31161 7.44319V8.5642L10.6025 7.81686V6.66188C10.6025 6.39012 10.4666 6.11836 10.1948 5.94851L7.47722 4.35191C7.23943 4.21603 6.9337 4.21603 6.66194 4.35191L3.87639 5.98248C3.60463 6.11836 3.46875 6.39012 3.46875 6.66188V9.85507C3.46875 10.1268 3.60463 10.3986 3.87639 10.5684L6.62797 12.165C6.86576 12.3009 7.17149 12.3009 7.44325 12.165L9.31161 11.078L10.6025 10.3306L12.4708 9.24361C12.7086 9.10773 13.0143 9.10773 13.2861 9.24361L14.7468 10.0929C14.9846 10.2287 15.1545 10.5005 15.1545 10.8062V12.5047C15.1545 12.7765 15.0186 13.0483 14.7468 13.2181L13.3201 14.0674C13.0823 14.2032 12.7766 14.2032 12.5048 14.0674L11.0441 13.2181C10.8063 13.0822 10.6364 12.8105 10.6364 12.5047V11.4177L9.34558 12.165V13.286C9.34558 13.5578 9.48146 13.8296 9.75322 13.9994L12.5048 15.596C12.7426 15.7319 13.0483 15.7319 13.3201 15.596L16.0717 13.9994C16.3094 13.8635 16.4793 13.5918 16.4793 13.286V10.0589C16.4793 9.78713 16.3434 9.51537 16.0717 9.34552L13.3201 7.74892Z" fill="white"/>
</svg>
