<svg width="20" height="20" viewBox="0 0 20 20" fill="none" xmlns="http://www.w3.org/2000/svg">
<path d="M14.4095 2.32298C13.9114 2.79734 13.4551 3.31146 13.0495 3.85968L12.9212 3.81991C12.1816 3.58983 11.4151 3.44781 10.6426 3.39952C10.41 3.38248 9.54206 3.38248 9.25872 3.39952C8.40275 3.45349 7.74659 3.57563 7.00097 3.82275C6.97114 3.83411 6.9443 3.84263 6.91746 3.85116C6.49692 3.30578 6.02867 2.7945 5.5127 2.32582C7.98818 1.11861 10.8842 0.973746 13.476 1.92531C13.7534 2.02472 14.0248 2.14118 14.2902 2.26617L14.4095 2.32298Z" fill="#F00500"/>
<path d="M19.0271 13.0969C18.6513 14.1167 18.0876 15.0625 17.3569 15.8863C16.9602 16.3294 16.5217 16.7356 16.0505 17.1049C14.947 17.9513 13.6585 18.5564 12.2836 18.8745C10.7625 19.2239 9.17583 19.2239 7.65475 18.8745C6.27683 18.5564 4.99137 17.9513 3.88785 17.1049C3.41661 16.7356 2.97818 16.3294 2.58151 15.8863C0.478837 13.5202 -0.15942 10.2706 0.9113 7.3421C1.11411 6.79957 1.36762 6.27692 1.67184 5.77983C1.81202 5.55259 1.985 5.29695 2.06852 5.19185C2.35484 6.36497 2.70677 7.39607 2.838 7.76817C2.82905 7.78806 2.81712 7.81078 2.80519 7.83066C2.11027 9.17137 1.73447 10.4638 1.645 11.8386C1.645 11.8556 1.64201 11.8755 1.64201 11.8926C1.61815 12.3044 1.63008 12.5004 1.70167 12.7589C1.92535 13.5685 2.61431 14.4604 3.69398 15.3352C5.46261 16.7668 7.86055 17.8008 9.67689 17.9201C11.5708 18.0422 14.3654 16.9884 16.2265 15.4489C16.5188 15.2017 16.7932 14.9404 17.0497 14.662C17.2346 14.4575 17.509 14.1053 17.4881 14.1053C17.4821 14.1053 17.4881 14.0996 17.5 14.0939C17.509 14.0883 17.5179 14.0797 17.5119 14.0741C17.509 14.0712 17.5149 14.0627 17.5239 14.0599C17.5328 14.057 17.5388 14.0513 17.5358 14.0457C17.5328 14.04 17.5358 14.0343 17.5477 14.0315C17.5567 14.0286 17.5597 14.0201 17.5567 14.0144C17.5537 14.0087 17.5567 14.003 17.5626 14.003C17.5686 14.003 17.5746 13.9945 17.5746 13.9888C17.5746 13.9832 17.5805 13.9746 17.5865 13.9746C17.5925 13.9746 17.5984 13.969 17.5984 13.9633C17.6074 13.9406 17.6223 13.9178 17.6372 13.8979C17.6819 13.8326 17.8609 13.5287 17.8848 13.4776C18.0548 13.1111 18.1621 12.7845 18.2128 12.4578C18.2367 12.3016 18.2516 12.0147 18.2397 11.9465C18.2367 11.9352 18.2367 11.9153 18.2337 11.884C18.2277 11.8272 18.2248 11.742 18.2188 11.6568C18.2128 11.529 18.2009 11.35 18.192 11.262C18.0637 9.97239 17.7177 8.91857 17.0616 7.80226C17.0347 7.75965 17.0109 7.71704 16.996 7.68296C16.99 7.67444 16.987 7.66592 16.984 7.66023C17.0765 7.39607 17.4553 6.29112 17.7565 5.0271L17.7625 5.03278L17.8072 5.08959C17.8848 5.18901 18.0905 5.48442 18.183 5.62644C18.6035 6.27976 18.9316 6.98136 19.1643 7.7142C19.7041 9.47815 19.6594 11.3586 19.0271 13.0969Z" fill="#F00500"/>
<path d="M15.1561 9.70256C15.1471 9.74801 15.007 9.88435 14.8668 9.98377C14.4552 10.2707 13.7185 10.5377 12.9699 10.6655C12.5434 10.7393 12.1169 10.7507 11.9886 10.6911C11.9051 10.6513 11.8932 10.62 11.923 10.5178C11.9857 10.3047 12.1885 10.0718 12.5046 9.85311C12.6657 9.74233 13.3188 9.36454 13.6231 9.20547C14.1241 8.94415 14.5297 8.78792 14.8041 8.75099C14.8906 8.73963 14.995 8.73679 15.0278 8.75099C15.0815 8.77088 15.1412 8.92142 15.165 9.10321C15.177 9.19979 15.171 9.62587 15.1561 9.70256Z" fill="black"/>
<path d="M8.12904 10.6428C8.11115 10.6768 8.02167 10.7138 7.92027 10.728C7.81886 10.7422 7.50869 10.7337 7.33272 10.7138C6.70043 10.6342 6.02937 10.4496 5.54024 10.2224C5.26585 10.0945 5.069 9.96672 4.92286 9.82754L4.83935 9.74516L4.8304 9.63722C4.81549 9.44975 4.81847 9.15434 4.84233 9.04924C4.85725 8.96119 4.89005 8.87597 4.93479 8.79928C4.95865 8.77087 4.95865 8.77087 5.06602 8.77087C5.19725 8.77087 5.3076 8.79076 5.48655 8.84473C5.8534 8.95267 6.3992 9.21399 7.06429 9.59462C7.61307 9.90707 7.81886 10.0605 7.97694 10.2707C8.08431 10.4013 8.15589 10.5859 8.12904 10.6428Z" fill="black"/>
<path d="M12.352 14.5967C12.352 14.6052 12.3162 14.7416 12.2715 14.9035C12.2268 15.0654 12.191 15.196 12.191 15.2017C12.1582 15.2046 12.1283 15.2074 12.0955 15.2046H12.0001L11.8689 15.5C11.7973 15.6619 11.7317 15.8124 11.7227 15.8352L11.7048 15.8749L11.6422 15.7783L11.5796 15.6818V14.895L11.5557 14.9006C11.505 14.912 11.1441 14.9574 10.986 14.9716C10.3329 15.0341 9.67671 15.0199 9.02652 14.9319C8.92214 14.9177 8.83266 14.9063 8.82968 14.9092C8.8267 14.912 8.82968 15.0938 8.83565 15.3182L8.84459 15.7215L8.79389 15.7954C8.76705 15.8352 8.7402 15.8692 8.7402 15.8721C8.73126 15.8806 8.70143 15.8352 8.63283 15.7045C8.55827 15.5681 8.50459 15.4233 8.46581 15.2727L8.44493 15.1904L8.35248 15.196L8.26002 15.2046L8.23616 15.0995C8.22423 15.0427 8.20932 14.9546 8.20335 14.9063L8.19441 14.8154L8.11686 14.7501C8.07212 14.7132 8.02739 14.6762 8.01844 14.6706C8.00353 14.6592 7.99756 14.6393 7.99756 14.6223V14.5882L8.37037 14.591L8.74319 14.5939L8.75512 14.6308L8.76705 14.6677L8.8953 14.6734C8.96688 14.6762 9.19355 14.6819 9.39636 14.6876L9.76917 14.6961L9.86461 14.5541L9.96303 14.4121H10.0883L10.0853 14.1167L10.0823 13.8213L9.91829 13.7531C9.39039 13.5315 9.08021 13.2787 8.96389 12.9719C8.94003 12.9095 8.94003 12.8867 8.93407 12.6027C8.93108 12.3215 8.93108 12.2959 8.95196 12.2334C8.99372 12.0914 9.11004 11.9806 9.25916 11.9437C9.30986 11.9295 9.44408 11.9295 10.148 11.9295L10.9771 11.9323L11.0695 11.9749C11.1799 12.0261 11.2306 12.063 11.2932 12.1425C11.3648 12.2334 11.3857 12.3044 11.3857 12.4777C11.3857 12.7248 11.3678 12.9379 11.341 13.0231C11.3022 13.1395 11.2425 13.2503 11.168 13.3497C11.0188 13.5315 10.7474 13.7133 10.4999 13.7957L10.4283 13.8213L10.4313 14.1195L10.4343 14.4178L10.4999 14.4234L10.5655 14.4291L10.655 14.5569L10.7415 14.6848H11.1411C11.3618 14.6848 11.5557 14.6876 11.5736 14.6904C11.6034 14.6961 11.6094 14.6933 11.6392 14.645L11.675 14.5939H12.018C12.2745 14.5825 12.352 14.5882 12.352 14.5967Z" fill="black"/>
<path d="M10.7774 15.4119C10.7207 15.4432 10.682 15.4574 10.673 15.4517C10.6641 15.4488 10.6223 15.4147 10.5776 15.3835L10.497 15.321L10.4135 15.4062C10.2316 15.5937 10.2256 15.6022 10.1719 15.6051C10.0884 15.6136 10.0705 15.5994 9.96914 15.4545C9.91545 15.3807 9.8737 15.3182 9.8737 15.3182C9.8737 15.3182 9.83493 15.3125 9.79019 15.3096L9.70668 15.3011L9.6679 15.3778L9.62913 15.4545L9.56053 15.4346C9.50685 15.4176 9.45317 15.3977 9.40246 15.375L9.31299 15.3324V15.1705L10.1063 15.1733L10.8997 15.1761L10.9027 15.2528C10.9056 15.3437 10.9086 15.3409 10.7774 15.4119Z" fill="black"/>
<path d="M18.2337 11.9465C18.2307 11.9352 18.2307 11.9153 18.2278 11.884C17.512 11.8102 15.4689 11.7647 13.5721 13.256C13.5721 13.256 12.9606 10.5859 10.0974 10.5859C7.23423 10.5859 6.17246 13.256 6.17246 13.256C4.56787 11.6114 2.42046 11.7307 1.64501 11.8386C1.64501 11.8556 1.64203 11.8755 1.64203 11.8926C1.61817 12.3044 1.6301 12.5004 1.70168 12.7589C1.92537 13.5684 2.61433 14.4604 3.69399 15.3352C5.46262 16.7668 7.86056 17.8008 9.6769 17.9201C11.5708 18.0422 14.3654 16.9884 16.2265 15.4488C16.5188 15.2017 16.7932 14.9404 17.0497 14.662C17.2346 14.4575 17.509 14.1053 17.4881 14.1053C17.4821 14.1053 17.4881 14.0996 17.5 14.0939C17.509 14.0883 17.5179 14.0797 17.512 14.0741C17.509 14.0712 17.5149 14.0627 17.5239 14.0598C17.5328 14.057 17.5388 14.0513 17.5358 14.0456C17.5328 14.04 17.5358 14.0343 17.5477 14.0314C17.5567 14.0286 17.5597 14.0201 17.5567 14.0144C17.5537 14.0087 17.5567 14.003 17.5627 14.003C17.5686 14.003 17.5746 13.9945 17.5746 13.9888C17.5746 13.9832 17.5806 13.9746 17.5865 13.9746C17.5925 13.9746 17.5984 13.969 17.5984 13.9633C17.6074 13.9405 17.6223 13.9178 17.6372 13.8979C17.682 13.8326 17.8609 13.5287 17.8848 13.4775C18.0548 13.1111 18.1621 12.7845 18.2128 12.4578C18.2307 12.3016 18.2457 12.0147 18.2337 11.9465ZM10.7775 15.4119C10.7208 15.4432 10.682 15.4574 10.6731 15.4517C10.6641 15.4488 10.6224 15.4148 10.5776 15.3835L10.4971 15.321L10.4136 15.4062C10.2317 15.5937 10.2257 15.6022 10.172 15.6051C10.0885 15.6136 10.0706 15.5994 9.96919 15.4545C9.91551 15.3807 9.87375 15.3182 9.87375 15.3182C9.87375 15.3182 9.83498 15.3125 9.79024 15.3097L9.70673 15.3011L9.66796 15.3778L9.62919 15.4545L9.56059 15.4346C9.5069 15.4176 9.45322 15.3977 9.40252 15.375L9.31304 15.3324V15.1705L10.1064 15.1733L10.8997 15.1762L10.9027 15.2529C10.9057 15.3437 10.9087 15.3409 10.7775 15.4119ZM12.2687 14.9006C12.224 15.0625 12.1882 15.1932 12.1882 15.1989C12.1554 15.2017 12.1255 15.2046 12.0927 15.2017H11.9973L11.869 15.5C11.7975 15.6619 11.7319 15.8124 11.7229 15.8352L11.705 15.8749L11.6424 15.7783L11.5797 15.6818V14.895L11.5559 14.9006C11.5052 14.912 11.1443 14.9574 10.9862 14.9716C10.3331 15.0341 9.6769 15.0199 9.02672 14.9319C8.92233 14.9177 8.83285 14.9063 8.82987 14.9092C8.82689 14.912 8.82987 15.0938 8.83584 15.3182L8.84478 15.7215L8.79408 15.7954C8.76724 15.8352 8.7404 15.8692 8.7404 15.8721C8.73145 15.8806 8.70162 15.8352 8.63303 15.7045C8.55846 15.5681 8.50478 15.4233 8.46601 15.2727L8.44513 15.1904L8.35267 15.196L8.26021 15.2046L8.23635 15.0995C8.22442 15.0427 8.20951 14.9546 8.20355 14.9063L8.1946 14.8154L8.11705 14.7501C8.07231 14.7132 8.02758 14.6762 8.01863 14.6706C8.00372 14.6592 7.99775 14.6393 7.99775 14.6223V14.5882L8.37056 14.591L8.74338 14.5939L8.75531 14.6308L8.76724 14.6677L8.89549 14.6734C8.96707 14.6762 9.19374 14.6819 9.39655 14.6876L9.76936 14.6961L9.8648 14.5541L9.96323 14.4121H10.0885L10.0855 14.1167L10.0825 13.8212L9.91849 13.7531C9.39058 13.5315 9.0804 13.2787 8.96409 12.9719C8.94023 12.9095 8.94023 12.8867 8.93426 12.6027C8.93128 12.3215 8.93128 12.2959 8.95215 12.2334C8.99391 12.0914 9.11023 11.9806 9.25935 11.9437C9.31006 11.9295 9.44427 11.9295 10.1481 11.9295L10.9773 11.9323L11.0697 11.9749C11.1801 12.0261 11.2308 12.063 11.2934 12.1425C11.365 12.2334 11.3859 12.3044 11.3859 12.4777C11.3859 12.7248 11.368 12.9379 11.3411 13.0231C11.3024 13.1395 11.2427 13.2503 11.1682 13.3497C11.019 13.5315 10.7476 13.7133 10.5001 13.7957L10.4285 13.8212L10.4315 14.1195L10.4345 14.4178L10.5001 14.4234L10.5657 14.4291L10.6552 14.5569L10.7417 14.6848H11.1413C11.362 14.6848 11.5559 14.6876 11.5738 14.6904C11.6036 14.6961 11.6096 14.6933 11.6394 14.645L11.6752 14.5939H12.0182C12.2836 14.5939 12.3612 14.5967 12.3612 14.6052C12.3522 14.6024 12.3134 14.7416 12.2687 14.9006Z" fill="white"/>
<path d="M18.21 11.6568C18.204 11.529 18.1921 11.35 18.1831 11.262C18.0549 9.97239 17.7089 8.91857 17.0528 7.80226C17.0259 7.75966 17.0021 7.71705 16.9871 7.68296C16.9812 7.67444 16.9782 7.66592 16.9752 7.66024C17.0677 7.39607 17.4465 6.29113 17.7477 5.02711C18.1563 3.31146 18.4158 1.30608 17.6224 0.7039C17.6224 0.7039 16.2505 0.607324 14.4132 2.32297C13.9152 2.79734 13.4588 3.31146 13.0532 3.85968L12.925 3.81991C12.1853 3.58983 11.4188 3.44781 10.6463 3.39952C10.4137 3.38247 9.54579 3.38247 9.26245 3.39952C8.40647 3.45349 7.75032 3.57563 7.00469 3.82275C6.97487 3.83411 6.94802 3.84263 6.92118 3.85115C6.50065 3.30578 6.0324 2.79449 5.51642 2.32582C3.60463 0.601643 2.18198 0.70106 2.18198 0.70106C1.34091 1.32313 1.62723 3.4194 2.06268 5.19186C2.349 6.36498 2.70093 7.39607 2.83216 7.76818C2.82322 7.78806 2.81129 7.81078 2.79936 7.83067C2.10443 9.17138 1.72864 10.4638 1.63916 11.8386C2.41759 11.7306 4.56202 11.6085 6.16959 13.256C6.16959 13.256 7.23136 10.5859 10.0946 10.5859C12.9578 10.5859 13.5692 13.256 13.5692 13.256C15.4661 11.7647 17.5091 11.813 18.2249 11.884C18.2219 11.8272 18.2159 11.742 18.21 11.6568ZM3.39586 6.69732C3.39586 6.69732 2.2804 4.04147 2.56672 2.52465C2.61444 2.26901 2.70392 2.04461 2.84409 1.87418C2.84409 1.87418 4.10868 1.99348 6.14871 4.15224C6.14871 4.15224 5.76099 4.3312 5.24203 4.71182C5.24203 4.71182 5.23905 4.71466 5.23606 4.71466C4.67237 5.12653 3.95061 5.77984 3.39586 6.69732ZM8.1291 10.6427C8.1112 10.6768 8.02173 10.7138 7.92032 10.728C7.81892 10.7422 7.50874 10.7336 7.33277 10.7138C6.70048 10.6342 6.02941 10.4496 5.54028 10.2224C5.26589 10.0945 5.06904 9.96671 4.9229 9.82753L4.83939 9.74515L4.83044 9.63721C4.81553 9.44974 4.81852 9.15433 4.84238 9.04924C4.85729 8.96118 4.89009 8.87596 4.93483 8.79927C4.95869 8.77087 4.95869 8.77087 5.06606 8.77087C5.19729 8.77087 5.30765 8.79075 5.4866 8.84472C5.85344 8.95266 6.39924 9.21398 7.06434 9.59461C7.61313 9.90706 7.81892 10.0604 7.97699 10.2706C8.08436 10.4013 8.15594 10.5859 8.1291 10.6427ZM15.1559 9.70255C15.1469 9.74799 15.0068 9.88434 14.8666 9.98375C14.455 10.2706 13.7183 10.5376 12.9697 10.6655C12.5432 10.7393 12.1167 10.7507 11.9885 10.691C11.905 10.6513 11.893 10.62 11.9229 10.5178C11.9855 10.3047 12.1883 10.0718 12.5044 9.85309C12.6655 9.74231 13.3187 9.36453 13.6229 9.20546C14.1239 8.94414 14.5296 8.78791 14.804 8.75098C14.8904 8.73962 14.9948 8.73678 15.0276 8.75098C15.0813 8.77087 15.141 8.92141 15.1648 9.1032C15.1768 9.19978 15.1708 9.62585 15.1559 9.70255ZM14.6608 4.71182L14.6548 4.70898C14.1538 4.32835 13.778 4.1494 13.778 4.1494C15.7494 1.99064 16.9693 1.87134 16.9693 1.87134C17.1035 2.04461 17.19 2.26617 17.2377 2.52181C17.5151 4.03863 16.4384 6.69732 16.4384 6.69732C15.988 5.93323 15.3826 5.25719 14.6608 4.71182Z" fill="#FFA409"/>
<path d="M17.2405 2.52181C17.0079 2.4934 15.9073 2.48772 14.6607 4.71182L14.6547 4.70898C14.1536 4.32836 13.7778 4.14941 13.7778 4.14941C15.7493 1.99064 16.9691 1.87134 16.9691 1.87134C17.1063 2.04461 17.1928 2.26616 17.2405 2.52181Z" fill="#FF9300"/>
<path d="M16.4417 6.69733C15.9883 5.9304 15.3859 5.2572 14.6611 4.71183C15.9078 2.48773 17.0054 2.49341 17.241 2.52182C17.5184 4.04148 16.4417 6.69733 16.4417 6.69733Z" fill="#FF8300"/>
<path d="M17.2855 2.53075C17.2705 2.52777 17.2556 2.52479 17.2407 2.5218L17.2855 2.53075Z" fill="#FF8300"/>
<path d="M6.14894 4.14941C6.14894 4.14941 5.76122 4.32836 5.24226 4.70898C5.24226 4.70898 5.23927 4.71182 5.23629 4.71182C3.94487 2.48488 2.80853 2.4934 2.56396 2.52181C2.61168 2.26616 2.70116 2.04177 2.84134 1.87134C2.84432 1.87134 4.1089 1.99064 6.14894 4.14941Z" fill="#FF9300"/>
<path d="M5.23886 4.71183C4.67219 5.12654 3.95042 5.77701 3.39567 6.69733C3.39567 6.69733 2.28021 4.04148 2.56653 2.52182C2.80811 2.49341 3.94743 2.48773 5.23886 4.71183Z" fill="#FF8300"/>
<path d="M2.56676 2.5218C2.55185 2.52479 2.53396 2.52777 2.51904 2.53075L2.56676 2.5218Z" fill="#FF8300"/>
<path d="M13.4231 8.17151C13.4231 8.17151 12.4687 8.22832 12.588 7.5182C12.7073 6.80809 13.4529 6.72287 13.6617 6.75128C13.8704 6.77968 14.7055 7.06373 14.5564 7.66022C14.4073 8.25672 14.1985 8.1431 14.0792 8.17151C13.9599 8.19991 13.4231 8.17151 13.4231 8.17151Z" fill="white"/>
<path d="M6.38399 8.17151C6.38399 8.17151 5.42959 8.22832 5.54889 7.5182C5.66819 6.80809 6.41382 6.72287 6.62259 6.75128C6.83137 6.77968 7.66647 7.06373 7.51734 7.66022C7.36822 8.25672 7.15944 8.1431 7.04014 8.17151C6.92084 8.19991 6.38399 8.17151 6.38399 8.17151Z" fill="white"/>
</svg>
