<svg width="18" height="18" viewBox="0 0 18 18" fill="none" xmlns="http://www.w3.org/2000/svg">
<g clip-path="url(#clip0_3278_58365)">
<path d="M9.08162 1.00043C13.4995 1.04537 17.0448 4.66353 16.9998 9.08139C16.9549 13.4992 13.3366 17.0445 8.91888 16.9996C4.50119 16.9547 0.95572 13.3375 1.00067 8.91865C1.04561 4.49984 4.66329 0.955493 9.08162 1.00043Z" fill="#232323"/>
<g clip-path="url(#clip1_3278_58365)">
<path d="M5.46736 11.1847C5.53075 11.1225 5.6174 11.0868 5.70892 11.0877L14.0077 11.1722C14.1593 11.1737 14.2333 11.3575 14.125 11.4636L12.469 13.0863C12.4056 13.1484 12.3189 13.1841 12.2274 13.1832L3.92865 13.0988C3.777 13.0972 3.70304 12.9134 3.81133 12.8073L5.46736 11.1847Z" fill="url(#paint0_linear_3278_58365)"/>
<path d="M5.52986 5.06393C5.59586 5.00184 5.68252 4.96612 5.77142 4.96702L14.0702 5.05143C14.2218 5.05297 14.2958 5.23676 14.1875 5.34287L12.5315 6.96555C12.4681 7.02767 12.3814 7.06339 12.2899 7.06246L3.99115 6.97805C3.8395 6.97651 3.76554 6.79272 3.87383 6.68661L5.52986 5.06393Z" fill="url(#paint1_linear_3278_58365)"/>
<path d="M12.5193 8.1761C12.4572 8.11272 12.3713 8.07523 12.2798 8.0743L3.98102 7.98989C3.82938 7.98835 3.75169 8.1706 3.8578 8.27889L5.48048 9.93492C5.5426 9.99831 5.62851 10.0358 5.72002 10.0367L14.0188 10.1211C14.1704 10.1227 14.2481 9.94042 14.142 9.83213L12.5193 8.1761Z" fill="url(#paint2_linear_3278_58365)"/>
</g>
</g>
<defs>
<linearGradient id="paint0_linear_3278_58365" x1="13.2871" y1="4.064" x2="7.43184" y2="15.0065" gradientUnits="userSpaceOnUse">
<stop stop-color="#00FFA3"/>
<stop offset="1" stop-color="#DC1FFF"/>
</linearGradient>
<linearGradient id="paint1_linear_3278_58365" x1="10.7894" y1="2.72739" x2="4.9341" y2="13.6699" gradientUnits="userSpaceOnUse">
<stop stop-color="#00FFA3"/>
<stop offset="1" stop-color="#DC1FFF"/>
</linearGradient>
<linearGradient id="paint2_linear_3278_58365" x1="12.0306" y1="3.39146" x2="6.17531" y2="14.334" gradientUnits="userSpaceOnUse">
<stop stop-color="#00FFA3"/>
<stop offset="1" stop-color="#DC1FFF"/>
</linearGradient>
<clipPath id="clip0_3278_58365">
<rect width="16" height="16" fill="white" transform="translate(1.08203 0.919067) rotate(0.582753)"/>
</clipPath>
<clipPath id="clip1_3278_58365">
<rect width="10.4" height="8.8" fill="white" transform="translate(3.84131 4.94739) rotate(0.582753)"/>
</clipPath>
</defs>
</svg>
