<svg width="20" height="20" viewBox="0 0 20 20" fill="none" xmlns="http://www.w3.org/2000/svg">
<path d="M10 20.0009C15.5228 20.0009 20 15.5237 20 10.0009C20 4.47804 15.5228 0.00088501 10 0.00088501C4.47715 0.00088501 0 4.47804 0 10.0009C0 15.5237 4.47715 20.0009 10 20.0009Z" fill="black"/>
<path d="M5.57311 10.5441C5.54773 10.3505 5.53496 10.1555 5.53488 9.96027C5.5359 9.18131 5.74042 8.41614 6.12815 7.74054C6.51589 7.06494 7.07341 6.50236 7.74547 6.10853C8.41753 5.7147 9.18082 5.50327 9.95974 5.4952C10.7387 5.48713 11.5062 5.68269 12.1862 6.06251L13.2086 5.5415C12.3936 4.94997 11.431 4.5953 10.427 4.51667C9.42308 4.43805 8.41694 4.63853 7.51981 5.09597C6.62268 5.55341 5.86949 6.24999 5.3435 7.10871C4.8175 7.96744 4.53917 8.95489 4.53928 9.96191C4.53928 10.101 4.54455 10.2395 4.55511 10.3775C4.5699 10.5729 4.52656 10.7683 4.43055 10.9392C4.33454 11.11 4.19014 11.2486 4.01553 11.3376L3.5464 11.5768V12.6926L16.4548 6.11494V4.99973L5.57311 10.5441Z" fill="white"/>
<path d="M16.4543 7.23124L6.26455 12.4195L3.5459 13.8056V14.9203L14.4303 9.37427C14.4557 9.56912 14.4685 9.76541 14.4686 9.96191C14.4681 10.7418 14.2636 11.5079 13.8755 12.1844C13.4874 12.8608 12.9291 13.4239 12.2561 13.8179C11.5831 14.2118 10.8187 14.4229 10.0389 14.4301C9.25904 14.4374 8.49088 14.2405 7.81066 13.8591L7.75604 13.8881L6.79157 14.3796C7.60636 14.9711 8.56883 15.3259 9.57262 15.4047C10.5764 15.4835 11.5824 15.2833 12.4796 14.8262C13.3767 14.3691 14.13 13.6728 14.6562 12.8144C15.1824 11.956 15.4611 10.9688 15.4614 9.96191C15.4614 9.82155 15.456 9.6812 15.4456 9.54248C15.4308 9.34714 15.4741 9.15179 15.57 8.98097C15.6659 8.81015 15.8102 8.67148 15.9846 8.58238L16.4543 8.34317V7.23124Z" fill="white"/>
</svg>
