<svg width="20" height="20" viewBox="0 0 20 20" fill="none" xmlns="http://www.w3.org/2000/svg">
<path d="M10 20C15.5228 20 20 15.5228 20 10C20 4.47715 15.5228 0 10 0C4.47715 0 0 4.47715 0 10C0 15.5228 4.47715 20 10 20Z" fill="#172852"/>
<path d="M8.05614 4.46898C9.22714 4.03097 10.5451 4.02997 11.7381 4.38998C13.2911 4.87198 14.6021 6.04399 15.2871 7.515C15.4761 7.934 15.6571 8.371 15.6751 8.837C14.8021 8.331 13.8451 8.003 12.8861 7.704C11.3521 7.15099 9.74614 6.76699 8.29414 6.00699C7.95614 5.80498 7.52514 5.59798 7.43314 5.17698C7.39614 4.81298 7.78114 4.60998 8.05614 4.46898Z" fill="#FFD83D"/>
<path d="M4.52052 8.00894C4.85952 7.08894 5.41552 6.23494 6.17052 5.60194C6.36252 7.18094 7.03452 8.70694 8.14452 9.85494C9.47552 11.2379 11.3715 12.0869 13.3005 12.0549C14.0665 12.0789 14.8155 11.9019 15.5625 11.7589C14.8275 14.4149 11.9165 16.1779 9.21952 15.7539C7.59152 15.5459 6.08852 14.5819 5.18152 13.2209C4.15852 11.7169 3.90052 9.71994 4.52052 8.00894Z" fill="#FFD83D"/>
<path d="M12.8848 7.70399C13.8438 8.00299 14.8007 8.33099 15.6737 8.83699L15.7327 8.86799C15.8137 9.47699 15.8727 10.098 15.7647 10.708C15.3257 10.522 14.9697 10.195 14.5977 9.90599C13.8818 9.30999 13.1508 8.62799 12.8848 7.70399Z" fill="#FF6F03"/>
</svg>
