<svg width="20" height="20" viewBox="0 0 20 20" fill="none" xmlns="http://www.w3.org/2000/svg">
<path d="M10 0C15.5226 0 20 4.4774 20 10C20 15.5226 15.5224 20 10 20C4.4776 20 0 15.5238 0 10C0 4.4762 4.4768 0 10 0Z" fill="#53AE94"/>
<path d="M11.2344 8.66763V7.18002H14.6362V4.91341H5.37295V7.18002H8.77515V8.66643C6.01015 8.79343 3.93115 9.34103 3.93115 9.99703C3.93115 10.653 6.01115 11.2006 8.77515 11.3284V16.0935H11.2352V11.328C13.9952 11.2006 16.07 10.6534 16.07 9.99803C16.07 9.34263 13.9952 8.79543 11.2352 8.66803L11.2344 8.66763ZM11.2352 10.9244V10.9232C11.1658 10.9276 10.8092 10.949 10.0152 10.949C9.38035 10.949 8.93375 10.931 8.77635 10.9228V10.9248C6.33355 10.8166 4.51015 10.3912 4.51015 9.88223C4.51015 9.37323 6.33375 8.94843 8.77635 8.84003V10.501C8.93635 10.512 9.39395 10.539 10.0256 10.539C10.7842 10.539 11.1656 10.5074 11.2356 10.501V8.84003C13.6736 8.94863 15.4928 9.37443 15.4928 9.88163C15.4928 10.3888 13.6728 10.8148 11.2356 10.9234" fill="white"/>
</svg>
