<svg width="20" height="20" viewBox="0 0 20 20" fill="none" xmlns="http://www.w3.org/2000/svg">
<path d="M10 20C15.5228 20 20 15.5228 20 10C20 4.47715 15.5228 0 10 0C4.47715 0 0 4.47715 0 10C0 15.5228 4.47715 20 10 20Z" fill="#FAE6F1"/>
<g clip-path="url(#clip0_55:699)">
<path d="M8.31343 5.95821C8.17618 5.93808 8.16964 5.93138 8.235 5.92467C8.35918 5.90454 8.64676 5.93138 8.84938 5.97833C9.31997 6.09237 9.7448 6.38752 10.1958 6.90403L10.3134 7.04489L10.4834 7.01806C11.2089 6.89732 11.954 6.99123 12.5749 7.28638C12.7448 7.36687 13.0128 7.52786 13.0455 7.56811C13.0585 7.58153 13.0781 7.66873 13.0912 7.75594C13.137 8.07121 13.1174 8.30599 13.0193 8.4871C12.967 8.58772 12.967 8.61455 12.9997 8.70175C13.0258 8.76883 13.1043 8.81579 13.1762 8.81579C13.333 8.81579 13.4964 8.56089 13.5749 8.20537L13.6075 8.0645L13.6664 8.13158C13.9997 8.51393 14.2611 9.04386 14.3004 9.4195L14.3134 9.52012L14.2546 9.43292C14.1566 9.27864 14.0651 9.17802 13.9409 9.09081C13.7187 8.93653 13.4834 8.88958 12.8625 8.85604C12.3004 8.8225 11.9801 8.77554 11.6664 8.66821C11.1304 8.4871 10.8559 8.25232 10.2219 7.387C9.94088 7.00465 9.76441 6.7967 9.58794 6.62229C9.20232 6.23994 8.8167 6.0387 8.31343 5.95821Z" fill="#FF007A"/>
<path d="M13.183 6.81011C13.1961 6.5552 13.2288 6.3875 13.3007 6.23322C13.3268 6.17285 13.353 6.11919 13.3595 6.11919C13.366 6.11919 13.353 6.16614 13.3334 6.21981C13.2811 6.36738 13.2745 6.57533 13.3072 6.81011C13.353 7.11196 13.3726 7.15221 13.6863 7.4809C13.8301 7.63518 14 7.82971 14.0654 7.91021L14.1765 8.05778L14.0654 7.95046C13.9281 7.8163 13.6144 7.5614 13.5425 7.52786C13.4968 7.50102 13.4902 7.50102 13.4575 7.53456C13.4314 7.5614 13.4249 7.60164 13.4249 7.79617C13.4183 8.09803 13.3791 8.28585 13.2811 8.48039C13.2288 8.581 13.2222 8.56088 13.268 8.44685C13.3007 8.35964 13.3072 8.31939 13.3072 8.03095C13.3072 7.44736 13.2419 7.30649 12.8432 7.07172C12.7451 7.01134 12.5752 6.92414 12.4771 6.87718C12.3726 6.83023 12.2941 6.78998 12.3007 6.78998C12.3137 6.77657 12.6994 6.8906 12.8497 6.95768C13.0785 7.05159 13.1177 7.0583 13.1438 7.05159C13.1634 7.03147 13.1765 6.9778 13.183 6.81011Z" fill="#FF007A"/>
<path d="M8.58175 7.80959C8.30725 7.42053 8.13077 6.81682 8.16999 6.36738L8.18306 6.22652L8.24842 6.23993C8.36607 6.26006 8.56868 6.34055 8.66672 6.40092C8.92816 6.56191 9.04581 6.78328 9.15692 7.33333C9.1896 7.49432 9.23535 7.68214 9.25496 7.74251C9.28764 7.84313 9.41182 8.07791 9.5164 8.22549C9.58829 8.33281 9.54254 8.38648 9.37914 8.37306C9.13077 8.34623 8.79744 8.11145 8.58175 7.80959Z" fill="#FF007A"/>
<path d="M12.8498 10.7276C11.5557 10.1909 11.0981 9.72807 11.0981 8.94324C11.0981 8.8292 11.1047 8.73529 11.1047 8.73529C11.1112 8.73529 11.157 8.77554 11.2158 8.82249C11.4772 9.03715 11.7713 9.13106 12.5883 9.2518C13.0655 9.32559 13.34 9.37925 13.5883 9.46646C14.3792 9.73477 14.8694 10.2848 14.987 11.0294C15.0197 11.2441 15.0001 11.6532 14.9478 11.8679C14.9021 12.0356 14.7714 12.3442 14.7387 12.3509C14.7321 12.3509 14.7191 12.3173 14.7191 12.2637C14.706 11.9819 14.5687 11.7136 14.34 11.5057C14.0655 11.2642 13.7125 11.0831 12.8498 10.7276Z" fill="#FF007A"/>
<path d="M11.9346 10.9489C11.9216 10.8483 11.8889 10.7209 11.8693 10.6672L11.8366 10.5666L11.8954 10.6404C11.9804 10.741 12.0457 10.8617 12.1046 11.0294C12.1503 11.1569 12.1503 11.1971 12.1503 11.4051C12.1503 11.6063 12.1438 11.6533 12.1046 11.7673C12.0392 11.9484 11.9608 12.0759 11.8301 12.2167C11.5948 12.4649 11.2876 12.5991 10.8497 12.6595C10.7712 12.6662 10.549 12.6863 10.3529 12.6997C9.86273 12.7265 9.53594 12.7802 9.24182 12.8875C9.2026 12.9009 9.16339 12.9144 9.15685 12.9077C9.14378 12.8942 9.34639 12.7735 9.50979 12.693C9.73855 12.579 9.97384 12.5186 10.4902 12.4247C10.7451 12.3844 11.0065 12.3308 11.0719 12.3039C11.7189 12.096 12.0392 11.5795 11.9346 10.9489Z" fill="#FF007A"/>
<path d="M12.5295 12.0289C12.3595 11.6466 12.3203 11.2843 12.4118 10.9422C12.4249 10.9087 12.438 10.8751 12.451 10.8751C12.4641 10.8751 12.5033 10.8953 12.5425 10.9221C12.621 10.9758 12.7844 11.0697 13.2027 11.3044C13.7321 11.5996 14.0327 11.8277 14.2419 12.0893C14.4249 12.3173 14.536 12.579 14.5883 12.9009C14.621 13.0821 14.6013 13.5181 14.5556 13.6992C14.4118 14.2694 14.085 14.7255 13.6079 14.9871C13.536 15.0274 13.4772 15.0542 13.4706 15.0542C13.4641 15.0542 13.4902 14.9871 13.5295 14.9066C13.6863 14.5645 13.7059 14.2358 13.5883 13.8669C13.5164 13.6388 13.3661 13.3638 13.0654 12.9009C12.7059 12.3643 12.621 12.2234 12.5295 12.0289Z" fill="#FF007A"/>
<path d="M7.65972 14.0815C8.14338 13.6656 8.73815 13.3705 9.28717 13.2766C9.52246 13.2363 9.91462 13.2497 10.1303 13.3101C10.4767 13.404 10.7904 13.6053 10.9538 13.8535C11.1107 14.0949 11.1826 14.3029 11.2545 14.7657C11.2806 14.9469 11.3133 15.1347 11.3198 15.1749C11.3721 15.4164 11.4767 15.6042 11.6074 15.7049C11.81 15.8591 12.163 15.8658 12.5094 15.7317C12.5682 15.7116 12.6205 15.6914 12.6205 15.6981C12.6336 15.7116 12.4571 15.8323 12.3395 15.8927C12.1761 15.9799 12.0453 16.0067 11.8689 16.0067C11.5551 16.0067 11.2872 15.839 11.0715 15.5036C11.0257 15.4365 10.9342 15.242 10.8558 15.0609C10.627 14.5175 10.5094 14.3566 10.2414 14.1754C10.0061 14.0212 9.70547 13.9876 9.47671 14.1017C9.17606 14.2492 9.09762 14.645 9.30677 14.8865C9.39174 14.9871 9.5486 15.0676 9.67932 15.0877C9.92115 15.1213 10.1303 14.9267 10.1303 14.6785C10.1303 14.5175 10.0715 14.4236 9.91462 14.3498C9.70547 14.2559 9.47671 14.3633 9.48325 14.5712C9.48325 14.6584 9.52246 14.7121 9.60743 14.7523C9.65972 14.7792 9.65972 14.7792 9.6205 14.7724C9.43096 14.7322 9.38521 14.4907 9.53553 14.3364C9.71854 14.1486 10.1042 14.2291 10.2349 14.4907C10.2872 14.598 10.2937 14.8127 10.248 14.9469C10.1368 15.242 9.82311 15.3963 9.50285 15.3091C9.28717 15.2487 9.19566 15.1883 8.93423 14.9133C8.47671 14.4303 8.30024 14.3364 7.64664 14.2358L7.52246 14.2157L7.65972 14.0815Z" fill="#FF007A"/>
<path fill-rule="evenodd" clip-rule="evenodd" d="M4.22251 3.28844C5.74539 5.18679 8.09179 8.13829 8.20944 8.29928C8.30748 8.43344 8.26826 8.56089 8.10487 8.6548C8.01336 8.70846 7.82382 8.76213 7.73232 8.76213C7.62774 8.76213 7.50356 8.70846 7.41859 8.62126C7.35977 8.56089 7.10487 8.17853 6.5297 7.25955C6.09179 6.55521 5.71924 5.97162 5.71271 5.96491C5.68657 5.9515 5.68657 5.9515 6.48395 7.41383C6.98722 8.33282 7.15062 8.66151 7.15062 8.70175C7.15062 8.78896 7.12447 8.83591 7.0199 8.95666C6.84343 9.15789 6.765 9.38596 6.70617 9.86223C6.64081 10.3922 6.46434 10.7678 5.96107 11.4051C5.66696 11.7807 5.62121 11.8478 5.54931 12.0021C5.45781 12.1899 5.43166 12.2972 5.41859 12.5387C5.40552 12.7936 5.43166 12.9546 5.50356 13.1961C5.56892 13.4107 5.64081 13.5516 5.81728 13.8266C5.96761 14.0681 6.05911 14.2492 6.05911 14.3163C6.05911 14.37 6.07219 14.37 6.30748 14.3163C6.86957 14.1821 7.33362 13.9541 7.58853 13.6723C7.74539 13.4979 7.7846 13.404 7.7846 13.1625C7.7846 13.0083 7.77807 12.9747 7.73885 12.8808C7.67349 12.7332 7.54931 12.6125 7.28134 12.4247C6.9284 12.1765 6.77807 11.9752 6.73885 11.7069C6.70617 11.4788 6.74539 11.3246 6.94147 10.902C7.14408 10.4659 7.19637 10.2848 7.22905 9.8421C7.24866 9.56037 7.28134 9.44634 7.35977 9.35913C7.44474 9.26522 7.51663 9.23168 7.71924 9.20485C8.05258 9.15789 8.26826 9.07069 8.4382 8.90299C8.58853 8.76213 8.65389 8.62126 8.66042 8.41331L8.66696 8.25903L8.58199 8.16512C8.2748 7.80289 4.0199 3 4.00029 3C3.99375 3 4.09833 3.12745 4.22251 3.28844ZM6.22905 12.8271C6.30094 12.6997 6.26173 12.5387 6.14408 12.4582C6.03297 12.3844 5.86304 12.418 5.86304 12.5186C5.86304 12.5454 5.87611 12.5722 5.91532 12.5857C5.97415 12.6192 5.98068 12.6527 5.93493 12.7265C5.88918 12.8003 5.88918 12.8674 5.948 12.9143C6.03951 12.9881 6.16369 12.9479 6.22905 12.8271Z" fill="#FF007A"/>
<path fill-rule="evenodd" clip-rule="evenodd" d="M8.87554 9.29876C8.71868 9.34572 8.56835 9.52012 8.5226 9.69453C8.49646 9.80185 8.50953 9.99638 8.55528 10.0568C8.62718 10.1507 8.69254 10.1775 8.87554 10.1775C9.23502 10.1775 9.54221 10.0165 9.57489 9.82198C9.60757 9.66099 9.47031 9.43963 9.28077 9.33901C9.18273 9.28535 8.98012 9.26522 8.87554 9.29876ZM9.29384 9.63416C9.34613 9.55366 9.32652 9.46646 9.22848 9.40609C9.05201 9.29205 8.78404 9.38596 8.78404 9.56037C8.78404 9.64757 8.92129 9.74148 9.05201 9.74148C9.13698 9.74148 9.25463 9.68782 9.29384 9.63416Z" fill="#FF007A"/>
</g>
<defs>
<clipPath id="clip0_55:699">
<rect width="11" height="13" fill="white" transform="translate(4 3)"/>
</clipPath>
</defs>
</svg>
