<svg width="20" height="20" viewBox="0 0 20 20" fill="none" xmlns="http://www.w3.org/2000/svg">
<path d="M10 20C15.5417 20 20 15.5417 20 10C20 4.4583 15.5417 0 10 0C4.4583 0 0 4.4583 0 10C0 15.5417 4.4583 20 10 20Z" fill="#2775CA"/>
<path d="M12.75 11.5833C12.75 10.125 11.875 9.62505 10.1251 9.41675C8.87507 9.25005 8.62508 8.91675 8.62508 8.33335C8.62508 7.74995 9.04177 7.37506 9.87506 7.37506C10.6251 7.37506 11.0418 7.62505 11.25 8.25005C11.2917 8.37505 11.4167 8.45835 11.5417 8.45835H12.2083C12.375 8.45835 12.5 8.33335 12.5 8.16675V8.12505C12.3333 7.20836 11.5833 6.50006 10.6251 6.41676V5.41676C10.6251 5.25006 10.5001 5.12506 10.2918 5.08336H9.66677C9.50007 5.08336 9.37507 5.20836 9.33337 5.41676V6.37506C8.08338 6.54176 7.29179 7.37505 7.29179 8.41675C7.29179 9.79175 8.12508 10.3333 9.87506 10.5417C11.0418 10.75 11.4167 11 11.4167 11.6667C11.4167 12.3334 10.8334 12.7917 10.0418 12.7917C8.95837 12.7917 8.58338 12.3333 8.45838 11.7083C8.41678 11.5417 8.29178 11.4583 8.16678 11.4583H7.45839C7.29179 11.4583 7.16679 11.5833 7.16679 11.75V11.7917C7.33339 12.8333 8.00008 13.5833 9.37507 13.7917V14.7917C9.37507 14.9583 9.50007 15.0833 9.70837 15.125H10.3334C10.5001 15.125 10.6251 15 10.6668 14.7917V13.7917C11.9167 13.5833 12.75 12.7083 12.75 11.5833Z" fill="white"/>
<path d="M7.87484 15.9584C4.62484 14.7918 2.95814 11.1668 4.16654 7.95833C4.79154 6.20832 6.16654 4.87501 7.87484 4.25001C8.04154 4.16671 8.12484 4.04171 8.12484 3.83331V3.25C8.12484 3.0833 8.04154 2.9583 7.87484 2.9167C7.83314 2.9167 7.74984 2.9167 7.70814 2.9583C3.74984 4.20831 1.58314 8.41674 2.83314 12.3751C3.58314 14.7084 5.37484 16.5001 7.70814 17.2501C7.87484 17.3334 8.04154 17.2501 8.08314 17.0834C8.12484 17.0418 8.12484 17.0001 8.12484 16.9168V16.3334C8.12484 16.2084 7.99984 16.0418 7.87484 15.9584ZM12.2915 2.9583C12.1248 2.875 11.9581 2.9583 11.9165 3.125C11.8748 3.1667 11.8748 3.2083 11.8748 3.2917V3.87501C11.8748 4.04171 11.9998 4.20831 12.1248 4.29171C15.3748 5.45832 17.0415 9.08334 15.8331 12.2918C15.2081 14.0418 13.8331 15.3751 12.1248 16.0001C11.9581 16.0834 11.8748 16.2084 11.8748 16.4168V17.0001C11.8748 17.1668 11.9581 17.2918 12.1248 17.3334C12.1665 17.3334 12.2498 17.3334 12.2915 17.2918C16.2498 16.0418 18.4165 11.8334 17.1665 7.87503C16.4165 5.50002 14.5831 3.70831 12.2915 2.9583Z" fill="white"/>
</svg>
