<svg width="20" height="20" viewBox="0 0 20 20" fill="none" xmlns="http://www.w3.org/2000/svg">
<g clip-path="url(#clip0_63:130)">
<path d="M16.3079 4.19732L15.7588 4.74647C17.0691 6.17944 17.7958 8.05091 17.7958 9.99267C17.7958 11.9344 17.0691 13.8059 15.7588 15.2389L16.3079 15.788C17.7652 14.2074 18.5743 12.1362 18.5743 9.98627C18.5743 7.83636 17.7652 5.76518 16.3079 4.18451V4.19732Z" fill="#5A5564"/>
<path d="M4.75972 4.24492C6.19269 2.93456 8.06415 2.2079 10.0059 2.2079C11.9477 2.2079 13.8191 2.93456 15.2521 4.24492L15.8013 3.69577C14.2206 2.23851 12.1494 1.42946 9.99951 1.42946C7.8496 1.42946 5.77842 2.23851 4.19775 3.69577L4.75972 4.24492Z" fill="#5A5564"/>
<path d="M4.24466 15.2444C2.93585 13.8117 2.21015 11.9414 2.21015 10.0009C2.21015 8.06044 2.93585 6.19011 4.24466 4.75746L3.69551 4.20831C2.23825 5.78898 1.4292 7.86016 1.4292 10.0101C1.4292 12.16 2.23825 14.2312 3.69551 15.8118L4.24466 15.2444Z" fill="#5A5564"/>
<path d="M15.2442 15.7514C13.8112 17.0618 11.9397 17.7884 9.99799 17.7884C8.05622 17.7884 6.18476 17.0618 4.75179 15.7514L4.20264 16.3006C5.7833 17.7578 7.85448 18.5669 10.0044 18.5669C12.1543 18.5669 14.2255 17.7578 15.8062 16.3006L15.2442 15.7514Z" fill="#5A5564"/>
<path d="M13.4671 8.16767C13.3573 7.02178 12.3688 6.63738 11.1186 6.52022V4.94234H10.1521V6.49094C9.89763 6.49094 9.6377 6.49094 9.3796 6.49094V4.94234H8.42042V6.53121H6.45996V7.56544C6.45996 7.56544 7.17385 7.55262 7.16287 7.56544C7.29159 7.55128 7.42078 7.58764 7.52322 7.66686C7.62566 7.74608 7.69335 7.86197 7.71202 7.99011V12.3394C7.70927 12.3846 7.69749 12.4287 7.67736 12.4693C7.65724 12.5099 7.62919 12.546 7.59487 12.5755C7.56119 12.6056 7.52178 12.6286 7.479 12.643C7.43622 12.6575 7.39095 12.6632 7.34592 12.6597C7.35873 12.6707 6.64301 12.6597 6.64301 12.6597L6.45996 13.8148H8.40212V15.4292H9.36862V13.8385H10.1411V15.4219H11.1094V13.8257C12.7422 13.7269 13.8808 13.3242 14.0236 11.7957C14.1389 10.5656 13.5605 10.0165 12.6361 9.79498C13.198 9.51858 13.5458 9.00604 13.4671 8.16767ZM12.1125 11.6053C12.1125 12.8061 10.0551 12.6689 9.39974 12.6689V10.5382C10.0551 10.54 12.1125 10.3515 12.1125 11.6053ZM11.6641 8.60333C11.6641 9.70163 9.94706 9.568 9.40157 9.568V7.63134C9.94706 7.63134 11.6641 7.45927 11.6641 8.60333Z" fill="#F09242"/>
<path d="M9.99817 20C8.02052 19.9996 6.08737 19.4129 4.44316 18.3139C2.79895 17.215 1.51751 15.6531 0.760859 13.826C0.00420949 11.9988 -0.19367 9.98826 0.192241 8.04862C0.578152 6.10898 1.53052 4.32732 2.92894 2.92891C4.32735 1.53049 6.10901 0.578121 8.04865 0.19221C9.98829 -0.1937 11.9988 0.00417897 13.826 0.760828C15.6532 1.51748 17.215 2.79892 18.3139 4.44313C19.4129 6.08734 19.9996 8.02049 20 9.99814C20.0002 11.3117 19.7417 12.6124 19.2391 13.826C18.7366 15.0395 17.9999 16.1422 17.0711 17.071C16.1423 17.9998 15.0396 18.7366 13.826 19.2391C12.6124 19.7417 11.3117 20.0002 9.99817 20ZM9.99817 0.779765C8.17614 0.781213 6.39544 1.32278 4.88113 2.33603C3.36682 3.34927 2.18688 4.7887 1.49046 6.47239C0.794033 8.15607 0.612381 10.0084 0.968463 11.7953C1.32454 13.5822 2.20237 15.2234 3.491 16.5116C4.77963 17.7997 6.4212 18.6769 8.20824 19.0322C9.99528 19.3876 11.8476 19.2052 13.531 18.5081C15.2144 17.811 16.6533 16.6305 17.666 15.1158C18.6786 13.6011 19.2195 11.8202 19.2202 9.99814C19.2207 8.78712 18.9825 7.58789 18.5191 6.46901C18.0558 5.35013 17.3765 4.33355 16.52 3.4774C15.6635 2.62125 14.6467 1.94232 13.5276 1.47944C12.4085 1.01656 11.2092 0.778803 9.99817 0.779765Z" fill="#282138"/>
</g>
<defs>
<clipPath id="clip0_63:130">
<rect width="20" height="20" fill="white"/>
</clipPath>
</defs>
</svg>
