<svg width="20" height="20" viewBox="0 0 20 20" fill="none" xmlns="http://www.w3.org/2000/svg">
<path d="M10 0C15.5226 0 20 4.4774 20 10C20 15.5226 15.5224 20 10 20C4.4776 20 0 15.5238 0 10C0 4.4762 4.4768 0 10 0Z" fill="#23292F"/>
<path d="M14.242 5H15.9774L12.3663 8.57369C11.059 9.8675 8.93999 9.8675 7.63274 8.57369L4.02208 5H5.75756L8.50072 7.71483C9.32837 8.53433 10.6707 8.53433 11.4988 7.71483L14.242 5ZM5.73548 14.9376H4L7.63322 11.3418C8.94047 10.048 11.0595 10.048 12.3668 11.3418L16 14.9376H14.2645L11.4988 12.2007C10.6711 11.3812 9.32885 11.3812 8.50072 12.2007L5.73548 14.9376Z" fill="white"/>
</svg>
